<?xml version="1.0" encoding="utf-8"?>
<!-- Generator: Adobe Illustrator 22.1.0, SVG Export Plug-In . SVG Version: 6.00 Build 0)  -->
<svg version="1.1" id="Layer_1" xmlns="http://www.w3.org/2000/svg" xmlns:xlink="http://www.w3.org/1999/xlink" x="0px" y="0px"
	 viewBox="0 0 62 64" style="enable-background:new 0 0 62 64;" xml:space="preserve">
<style type="text/css">
	.st0{fill:#FF778C;}
</style>
<g id="_x36_zRX5F_2_">
	<g>
		<path class="st0" d="M44.7,63.4c-13.4-5.5-23.9-14.7-32.6-26.1c-3.7-4.8-6.8-10-9.6-15.4c-1.4-2.6-1.8-5.9-2.2-9
			c-0.9-6.7,3.9-10.2,8-12.2c2.9-1.4,5.9-1,8.2,1.4c3.4,3.4,6.1,7.3,7.9,11.8c1.1,2.9,0.2,5.4-1.2,7.9c-2.1,3.7-2.1,3.8,0.6,6.8
			c3.2,3.5,6.6,6.8,9.9,10.3c1.7,1.8,3.5,2.4,5.6,0.8c4.4-3.4,8.6-2.3,12.7,0.4c2.6,1.7,5.2,3.5,7.3,5.7c3.3,3.3,3.3,6.9,0.6,10.7
			c-2.1,3-5,5.2-8.3,6.8C50.1,64.1,47,64.3,44.7,63.4z"/>
	</g>
</g>
</svg>
