<svg id="레이어_1" data-name="레이어 1" xmlns="http://www.w3.org/2000/svg" viewBox="0 0 119.02 89.14"><defs><style>.cls-1{fill:#f19ec2;}</style></defs><title>대지 1</title><path class="cls-1" d="M0,1.26H6.16V40.05h8.56V41.2H0Z"/><path class="cls-1" d="M16.15,41.2,36.57,0,56.94,41.2H50l-3.25-6.62h-26L17.52,41.2Zm5.19-7.76H46.22L33.84,8.33Z"/><path class="cls-1" d="M62.08,1.26h6.16V40.05H76.8V41.2H62.08Z"/><path class="cls-1" d="M78.23,41.2,98.65,0,119,41.2h-6.9l-3.25-6.62h-26L79.6,41.2Zm5.19-7.76H108.3L95.92,8.33Z"/><path class="cls-1" d="M.6,48.69H6.76v38.8h8.56v1.14H.6Z"/><path class="cls-1" d="M16.75,88.63l20.42-41.2,20.37,41.2h-6.9L47.39,82h-26l-3.25,6.62Zm5.19-7.76H46.82L34.43,55.76Z"/><path class="cls-1" d="M87.78,48.69V88.63H86.53v-10L63.93,57.82V88.63H62.68V48.35l23.85,22V48.69Z"/><path class="cls-1" d="M98.46,89.14h-1v-41h1c10.44,0,17.28,10.49,17.28,20.48S108.9,89.14,98.46,89.14Zm5.19-38.63V86.8c4.56-1.42,10.84-9.07,10.84-18.14S108.21,51.94,103.65,50.51Z"/></svg>