<?xml version="1.0" encoding="utf-8"?>
<!-- Generator: Adobe Illustrator 22.1.0, SVG Export Plug-In . SVG Version: 6.00 Build 0)  -->
<svg version="1.1" id="Layer_1" xmlns="http://www.w3.org/2000/svg" xmlns:xlink="http://www.w3.org/1999/xlink" x="0px" y="0px"
	 viewBox="0 0 500 260" style="enable-background:new 0 0 500 260;" xml:space="preserve">
<style type="text/css">
	.st0{fill:#DE699D;stroke:#050101;stroke-width:3;stroke-linecap:square;stroke-miterlimit:10;}
	.st1{fill:#DE699D;}
</style>
<g>
	<g>
		<g>
			<path class="st0" d="M211.2,72.8"/>
		</g>
		<g>
			<polygon class="st1" points="499.3,255.9 0.7,255.9 0.7,145.9 75.1,145.9 75.1,161 141.7,161 141.7,147.5 98.7,147.5 98.7,118.4 
				169,118.4 169,120 100.2,120 100.2,145.9 143.3,145.9 143.3,162.5 73.5,162.5 73.5,147.5 2.2,147.5 2.2,254.3 497.8,254.3 
				497.8,76.3 499.3,76.3 			"/>
		</g>
		<g>
			<polygon class="st1" points="212,162.5 200.8,162.5 200.8,161 210.4,161 210.4,4.1 499.3,4.1 499.3,77.8 497.8,77.8 497.8,5.7 
				212,5.7 			"/>
		</g>
		<g>
			<polygon class="st1" points="178.7,162.5 167.4,162.5 167.4,118.4 212,118.4 212,120 169,120 169,161 178.7,161 			"/>
		</g>
		<g>
			<rect x="73.5" y="145.9" class="st1" width="26.7" height="1.6"/>
		</g>
		<g>
			<polygon class="st1" points="75.2,159.9 75.1,159.4 75.3,159.4 141.6,147.8 141.7,148.3 141.5,148.4 			"/>
		</g>
		<g>
			
				<rect x="108.2" y="120.1" transform="matrix(0.1713 -0.9852 0.9852 0.1713 -61.755 234.3145)" class="st1" width="0.5" height="67.6"/>
		</g>
		<g>
			<g>
				<path class="st1" d="M136.1,128.3c0.9,0,1.6-0.7,1.6-1.6c0-0.9-0.7-1.6-1.6-1.6c-0.9,0-1.6,0.7-1.6,1.6
					C134.5,127.6,135.3,128.3,136.1,128.3z"/>
			</g>
			<g>
				<path class="st1" d="M140.5,134.4c-0.7-1.6-1.5-3.3-2.3-4.9c0,0,0,0,0,0h0c-0.3-0.4-1-0.7-2-0.7c-1,0-1.7,0.3-2,0.7
					c0,0-1.5,3.3-2.3,5c-0.1,0.1-0.1,0.3-0.1,0.4c0,0.3,0.3,0.5,0.5,0.6c0.3,0.1,0.6-0.1,0.7-0.3c0.1-0.3,0.3-0.5,0.4-0.8
					c0.2-0.5,0.5-1.1,0.7-1.6c0,0,0,0,0,0c0,0.1,0,0.1,0,0.2c0,2.7,0,5.4,0,8.1c0,0.1,0,0.2,0,0.3c0,0.5,0.5,0.9,1,0.7
					c0.4-0.1,0.6-0.4,0.6-0.9c0-1.5,0-3.1,0-4.6c0-0.1,0-0.2,0-0.2c0.2,0,0.4,0,0.6,0c0,0.1,0,0.2,0,0.2c0,1.5,0,3,0,4.5
					c0,0.1,0,0.2,0,0.3c0,0.4,0.4,0.7,0.8,0.7c0.4,0,0.8-0.2,0.9-0.6c0-0.1,0-0.3,0-0.4c0-2.7,0-5.4,0-8.1c0-0.1,0-0.1,0-0.2
					c0.1,0.1,0.1,0.1,0.1,0.2c0.3,0.7,0.6,1.4,1,2.1c0.2,0.4,0.6,0.5,0.9,0.4C140.5,135.2,140.6,134.8,140.5,134.4z"/>
			</g>
		</g>
		<g>
			<g>
				<path class="st1" d="M146.6,128.3c0.9,0,1.6-0.7,1.6-1.6c0-0.9-0.7-1.6-1.6-1.6c-0.9,0-1.6,0.7-1.6,1.6
					C145,127.6,145.7,128.3,146.6,128.3z"/>
			</g>
			<g>
				<path class="st1" d="M150.6,134.3c-0.7-1.6-1.4-3.2-2-4.8c0,0,0,0,0,0c0,0,0-0.1-0.1-0.1c-0.3-0.4-1-0.6-1.9-0.6
					c-0.9,0-1.6,0.3-1.9,0.6c0,0-0.1,0.1-0.1,0.2c0,0,0,0,0,0c-0.7,1.7-1.4,3.3-2.1,5c0,0.1,0,0.2,0,0.3c0,0,0,0.1,0,0.1
					c0.1,0.3,0.4,0.5,0.7,0.4c0.2-0.1,0.4-0.2,0.5-0.5c0.2-0.4,0.4-0.9,0.6-1.3c0,0.1,0,0.1,0,0.2c-0.2,0.8-0.3,1.7-0.5,2.5
					c-0.1,0.3,0.1,0.5,0.4,0.5c0.2,0,0.4,0,0.6,0c0,0.1,0,0.2,0,0.3c0,1.3,0,2.6,0,3.9c0,0.1,0,0.2,0,0.3c0,0.5,0.5,0.8,0.9,0.7
					c0.4-0.1,0.6-0.4,0.6-0.9c0-1.4,0-2.7,0-4.1c0-0.1,0-0.2,0-0.2c0.2,0,0.4,0,0.6,0c0,0.1,0,0.2,0,0.2c0,1.3,0,2.6,0,3.9
					c0,0.1,0,0.2,0,0.3c0,0.5,0.5,0.9,0.9,0.7c0.4-0.1,0.6-0.4,0.6-0.9c0-1.4,0-2.7,0-4.1c0-0.1,0-0.2,0-0.2c0.2,0,0.4,0,0.5,0
					c0.3,0,0.4-0.2,0.4-0.5c0-0.1,0-0.2-0.1-0.3c-0.2-0.8-0.3-1.6-0.5-2.4c0.1,0.1,0.1,0.2,0.1,0.3c0.2,0.4,0.4,0.9,0.6,1.3
					c0.1,0.3,0.4,0.4,0.7,0.3c0.3-0.1,0.5-0.2,0.5-0.5C150.7,134.7,150.6,134.5,150.6,134.3z"/>
			</g>
		</g>
		<g>
			<path class="st1" d="M120,137.2l0.7-2.5c0-0.1,0-0.1,0.1-0.2c0-0.1,0-0.1,0-0.2c0-0.1,0-0.1,0.1-0.2c0-0.1,0-0.1,0-0.2
				c0,0.1,0,0.1,0.1,0.2c0,0.1,0,0.1,0.1,0.2c0,0.1,0,0.1,0,0.2c0,0.1,0,0.1,0.1,0.2l0.7,2.5h1.5l1.7-5.8h-1.6l-0.7,2.8
				c0,0.1,0,0.1-0.1,0.2c0,0.1,0,0.1,0,0.2c0,0.1,0,0.1,0,0.2c0,0.1,0,0.1-0.1,0.2c0-0.1-0.1-0.3-0.1-0.4c0-0.1-0.1-0.3-0.1-0.4
				l-0.7-2.8h-1.3l-0.7,2.8c0,0.1,0,0.1,0,0.2c0,0.1,0,0.1,0,0.2c0,0,0,0,0,0c0,0,0,0,0,0c0,0.1,0,0.1-0.1,0.2c0,0.1,0,0.1-0.1,0.2
				c0-0.1,0-0.1,0-0.2c0-0.1,0-0.1,0-0.2c0-0.1,0-0.1,0-0.2c0-0.1,0-0.1-0.1-0.2l-0.7-2.8h-1.6l1.6,5.8H120z"/>
		</g>
		<g>
			<path class="st1" d="M127.6,137.3c0,0,0.1,0,0.1,0c0,0,0.1,0,0.1,0c0,0,0.1,0,0.1,0c0,0,0.1,0,0.1,0c0.2,0,0.3,0,0.5,0
				c0.2,0,0.3-0.1,0.5-0.1c0.1,0,0.2-0.1,0.3-0.1c0.1,0,0.2-0.1,0.3-0.1v-1.7c-0.2,0.2-0.4,0.4-0.6,0.5c-0.2,0.1-0.5,0.2-0.7,0.2
				c-0.1,0-0.1,0-0.2,0c-0.1,0-0.2,0-0.2-0.1c-0.3-0.1-0.6-0.3-0.8-0.6c-0.2-0.3-0.3-0.6-0.3-1c0,0,0,0,0,0c0,0,0,0,0,0
				c0-0.4,0.1-0.7,0.4-1.1c0.2-0.3,0.6-0.5,1-0.5h0.1c0.3,0,0.5,0.1,0.8,0.2c0.2,0.1,0.4,0.3,0.6,0.5v-1.7c-0.3-0.1-0.5-0.2-0.8-0.3
				c-0.3-0.1-0.5-0.1-0.8-0.1c0,0-0.1,0-0.1,0c0,0-0.1,0-0.1,0c0,0-0.1,0-0.1,0c0,0-0.1,0-0.1,0c-0.8,0.1-1.4,0.4-1.8,1
				c-0.5,0.6-0.7,1.3-0.7,2c0,0.8,0.2,1.4,0.7,2C126.3,136.9,126.9,137.2,127.6,137.3z"/>
		</g>
		<g>
			<rect x="141.7" y="161" class="st1" width="5.4" height="1.6"/>
		</g>
		<g>
			<g>
				<path class="st1" d="M198.3,131.2c0.9,0,1.6-0.7,1.6-1.6c0-0.9-0.7-1.6-1.6-1.6c-0.9,0-1.6,0.7-1.6,1.6
					C196.7,130.5,197.4,131.2,198.3,131.2z"/>
			</g>
			<g>
				<path class="st1" d="M202.6,137.3c-0.7-1.6-1.5-3.3-2.3-4.9c0,0,0,0,0,0h0c-0.3-0.4-1-0.7-2-0.7c-1,0-1.7,0.3-2,0.7
					c0,0-1.5,3.3-2.3,5c-0.1,0.1-0.1,0.3-0.1,0.4c0,0.3,0.3,0.5,0.5,0.6c0.3,0.1,0.6-0.1,0.7-0.3c0.1-0.3,0.3-0.5,0.4-0.8
					c0.2-0.5,0.5-1.1,0.7-1.6c0,0,0,0,0,0c0,0.1,0,0.1,0,0.2c0,2.7,0,5.4,0,8.1c0,0.1,0,0.2,0,0.3c0,0.5,0.5,0.9,1,0.7
					c0.4-0.1,0.6-0.4,0.6-0.9c0-1.5,0-3.1,0-4.6c0-0.1,0-0.2,0-0.2c0.2,0,0.4,0,0.6,0c0,0.1,0,0.2,0,0.2c0,1.5,0,3,0,4.5
					c0,0.1,0,0.2,0,0.3c0,0.4,0.4,0.7,0.8,0.7c0.4,0,0.8-0.2,0.9-0.6c0-0.1,0-0.3,0-0.4c0-2.7,0-5.4,0-8.1c0-0.1,0-0.1,0-0.2
					c0.1,0.1,0.1,0.1,0.1,0.2c0.3,0.7,0.6,1.4,1,2.1c0.2,0.4,0.6,0.5,0.9,0.4C202.6,138.1,202.8,137.7,202.6,137.3z"/>
			</g>
		</g>
		<g>
			<g>
				<path class="st1" d="M182,131.2c0.9,0,1.6-0.7,1.6-1.6c0-0.9-0.7-1.6-1.6-1.6c-0.9,0-1.6,0.7-1.6,1.6
					C180.4,130.5,181.1,131.2,182,131.2z"/>
			</g>
			<g>
				<path class="st1" d="M186,137.2c-0.7-1.6-1.4-3.2-2-4.8c0,0,0,0,0,0c0,0,0-0.1-0.1-0.1c-0.3-0.4-1-0.6-1.9-0.6
					c-0.9,0-1.6,0.3-1.9,0.6c0,0-0.1,0.1-0.1,0.2c0,0,0,0,0,0c-0.7,1.7-1.4,3.3-2.1,5c0,0.1,0,0.2,0,0.3c0,0,0,0.1,0,0.1
					c0.1,0.3,0.4,0.5,0.7,0.4c0.2-0.1,0.4-0.2,0.5-0.5c0.2-0.4,0.4-0.9,0.6-1.3c0,0.1,0,0.1,0,0.2c-0.2,0.8-0.3,1.7-0.5,2.5
					c-0.1,0.3,0.1,0.5,0.4,0.5c0.2,0,0.4,0,0.6,0c0,0.1,0,0.2,0,0.3c0,1.3,0,2.6,0,3.9c0,0.1,0,0.2,0,0.3c0,0.5,0.5,0.8,0.9,0.7
					c0.4-0.1,0.6-0.4,0.6-0.9c0-1.4,0-2.7,0-4.1c0-0.1,0-0.2,0-0.2c0.2,0,0.4,0,0.6,0c0,0.1,0,0.2,0,0.2c0,1.3,0,2.6,0,3.9
					c0,0.1,0,0.2,0,0.3c0,0.5,0.5,0.9,0.9,0.7c0.4-0.1,0.6-0.4,0.6-0.9c0-1.4,0-2.7,0-4.1c0-0.1,0-0.2,0-0.2c0.2,0,0.4,0,0.5,0
					c0.3,0,0.4-0.2,0.4-0.5c0-0.1,0-0.2-0.1-0.3c-0.2-0.8-0.3-1.6-0.5-2.4c0.1,0.1,0.1,0.2,0.1,0.3c0.2,0.4,0.4,0.9,0.6,1.3
					c0.1,0.3,0.4,0.4,0.7,0.3c0.3-0.1,0.5-0.2,0.5-0.5C186.1,137.6,186.1,137.4,186,137.2z"/>
			</g>
		</g>
		<g>
			<g>
				<path class="st1" d="M191,139.2c-0.1,0-0.2,0-0.3,0c-0.1,0-0.2,0-0.3,0c0,0,0,0-0.1,0v0H190c-0.1,0-0.2,0-0.3,0
					c-0.1,0-0.2,0-0.3,0c-0.1,0-0.2,0-0.4,0c-0.2,0-0.5,0.1-0.6,0.3c-0.1,0.2-0.1,0.4,0,0.6c0.3,0.7,0.6,1.3,1,1.9
					c0.1,0.2,0.4,0.4,0.6,0.4c0.2,0,0.5-0.1,0.6-0.4c0.3-0.6,0.7-1.3,1-1.9c0.1-0.2,0.1-0.4,0-0.6
					C191.4,139.3,191.2,139.2,191,139.2z"/>
			</g>
			<g>
				<path class="st1" d="M189.1,136.9c0.1,0,0.2,0,0.3,0c0.1,0,0.2,0,0.3,0c0.1,0,0.2,0,0.3,0c0.1,0,0.2,0,0.3,0c0.1,0,0.2,0,0.3,0
					c0.1,0,0.2,0,0.3,0c0.3,0,0.5-0.1,0.6-0.4c0.1-0.2,0.1-0.5,0-0.7c-0.3-0.7-0.6-1.2-0.9-1.8c-0.1-0.3-0.4-0.4-0.6-0.4
					c-0.3,0-0.5,0.2-0.6,0.4c-0.3,0.6-0.6,1.1-0.9,1.8c-0.1,0.3-0.1,0.5,0,0.7C188.6,136.7,188.8,136.8,189.1,136.9z"/>
			</g>
		</g>
		<g>
			<path class="st1" d="M174.3,152.8v-4.7h2.7v0.9h-1.6v0.9h1.6v0.9h-1.6v1h1.6v0.9H174.3z"/>
			<path class="st1" d="M177,152.9h-2.8v-4.8h2.8v1.1h-1.6v0.8h1.6v1h-1.6v0.9h1.6V152.9z M174.3,152.8h2.5V152h-1.6v-1.1h1.6V150
				h-1.6V149h1.6v-0.8h-2.5V152.8z"/>
		</g>
		<g>
			<path class="st1" d="M178.1,152.8v-4.7h1v3.8h1.6v0.9H178.1z"/>
			<path class="st1" d="M180.9,152.9h-2.8v-4.8h1.2v3.8h1.6V152.9z M178.2,152.8h2.5V152h-1.6v-3.8h-0.9V152.8z"/>
		</g>
		<g>
			<path class="st1" d="M181.5,152.8v-4.7h2.7v0.9h-1.6v0.9h1.6v0.9h-1.6v1h1.6v0.9H181.5z"/>
			<path class="st1" d="M184.2,152.9h-2.8v-4.8h2.8v1.1h-1.6v0.8h1.6v1h-1.6v0.9h1.6V152.9z M181.5,152.8h2.5V152h-1.6v-1.1h1.6V150
				h-1.6V149h1.6v-0.8h-2.5V152.8z"/>
		</g>
		<g>
			<path class="st1" d="M187.5,152.8h-1.1l-1.7-4.7h1.1l0.9,2.7c0.1,0.3,0.2,0.6,0.3,1c0.1-0.3,0.2-0.6,0.3-0.9l0.9-2.7h1.1
				L187.5,152.8z"/>
			<path class="st1" d="M187.6,152.9h-1.2l-1.8-4.8h1.3l0,0l0.9,2.7c0.1,0.2,0.1,0.5,0.2,0.7c0.1-0.2,0.1-0.4,0.2-0.7l0.9-2.7h1.3
				L187.6,152.9z M186.5,152.8h1l1.7-4.6h-1l-0.9,2.7c-0.1,0.3-0.2,0.6-0.3,0.9L187,152l-0.1-0.3c-0.1-0.4-0.2-0.6-0.3-0.9l-0.9-2.6
				h-1L186.5,152.8z"/>
		</g>
		<g>
			<path class="st1" d="M192.8,152.8l-0.4-1h-2l-0.3,1H189l1.9-4.7h1.1l1.9,4.7H192.8z M191.7,149.9c-0.1-0.2-0.2-0.5-0.3-0.8
				c-0.1,0.3-0.2,0.6-0.3,0.8l-0.4,1.1h1.3L191.7,149.9z"/>
			<path class="st1" d="M194,152.9h-1.3l-0.4-1h-1.9l-0.3,1h-1.2l1.9-4.8h1.2l0,0L194,152.9z M192.8,152.8h1l-1.9-4.6h-1l-1.8,4.6h1
				l0.3-1h2L192.8,152.8z M192.2,151.1h-1.5l0.4-1.2c0.1-0.3,0.2-0.6,0.3-0.8l0.1-0.2l0.1,0.2c0.1,0.2,0.2,0.5,0.3,0.8L192.2,151.1z
				 M190.9,150.9h1.1l-0.4-1c-0.1-0.2-0.1-0.4-0.2-0.6c-0.1,0.2-0.1,0.4-0.2,0.6L190.9,150.9z"/>
		</g>
		<g>
			<path class="st1" d="M195.7,149v3.8h-1V149h-1v-0.9h3v0.9H195.7z"/>
			<path class="st1" d="M195.7,152.9h-1.2v-3.8h-1v-1.1h3.2v1h-1V152.9z M194.7,152.8h0.9V149h1v-0.8h-2.9v0.8h1V152.8z"/>
		</g>
		<g>
			<path class="st1" d="M199.5,153c-1.4,0-2.5-1.1-2.5-2.5c0-1.4,1.1-2.5,2.5-2.5c1.4,0,2.5,1.1,2.5,2.5
				C202,151.9,200.9,153,199.5,153z M199.5,149c-0.8,0-1.5,0.7-1.5,1.5c0,0.8,0.6,1.5,1.5,1.5c0.8,0,1.5-0.7,1.5-1.5
				C200.9,149.6,200.3,149,199.5,149z"/>
			<path class="st1" d="M199.5,153c-1.4,0-2.6-1.1-2.6-2.5c0-1.4,1.2-2.5,2.6-2.5c1.4,0,2.6,1.1,2.6,2.5
				C202.1,151.9,200.9,153,199.5,153z M199.5,148.1c-1.3,0-2.4,1.1-2.4,2.4c0,1.4,1.1,2.4,2.4,2.4c1.3,0,2.4-1.1,2.4-2.4
				C201.9,149.1,200.9,148.1,199.5,148.1z M199.5,152.1c-0.9,0-1.5-0.7-1.5-1.6c0-0.9,0.7-1.6,1.5-1.6c0.9,0,1.5,0.7,1.5,1.6
				C201,151.4,200.3,152.1,199.5,152.1z M199.5,149c-0.8,0-1.4,0.6-1.4,1.4c0,0.8,0.6,1.4,1.4,1.4c0.8,0,1.4-0.6,1.4-1.4
				C200.9,149.7,200.3,149,199.5,149z"/>
		</g>
		<g>
			<path class="st1" d="M205.1,152.8l-1.2-2v2h-1v-4.7h1.5c0.6,0,1.1,0.1,1.4,0.4c0.3,0.3,0.4,0.6,0.4,1c0,0.7-0.5,1.2-1.1,1.3
				l1.4,2H205.1z M204.9,149.2c-0.2-0.2-0.4-0.2-0.7-0.2h-0.3v1.2h0.4c0.3,0,0.5-0.1,0.6-0.2c0.1-0.1,0.2-0.3,0.2-0.4
				C205,149.5,205,149.3,204.9,149.2z"/>
			<path class="st1" d="M206.4,152.9h-1.4l0,0l-1.1-1.8v1.8h-1.1v-4.8h1.5c0.7,0,1.1,0.1,1.4,0.4c0.3,0.3,0.4,0.6,0.4,1
				c0,0.7-0.4,1.2-1.1,1.4L206.4,152.9z M205.1,152.8h1.1l-1.3-2l0.1,0c0.6-0.1,1-0.6,1-1.3c0-0.4-0.1-0.7-0.4-0.9
				c-0.3-0.3-0.7-0.4-1.3-0.4h-1.4v4.6h0.9v-2.2L205.1,152.8z M204.2,150.3h-0.4v-1.4h0.4c0.3,0,0.5,0,0.7,0.2l0,0
				c0.1,0.1,0.1,0.3,0.1,0.4c0,0.2-0.1,0.4-0.2,0.5C204.7,150.2,204.5,150.3,204.2,150.3z M203.9,150.1h0.3c0.3,0,0.5,0,0.6-0.2
				c0.1-0.1,0.2-0.2,0.2-0.4c0-0.1,0-0.3-0.1-0.3c-0.2-0.2-0.4-0.2-0.6-0.2h-0.3V150.1z"/>
		</g>
		<g>
			<path class="st1" d="M318.8,123.7v7.7h3.1v2.2h-5.6v-9.8H318.8z"/>
			<path class="st1" d="M322.9,132.3c0-0.2,0-0.4,0.1-0.6c0.1-0.2,0.2-0.3,0.3-0.5c0.1-0.1,0.3-0.2,0.5-0.3c0.2-0.1,0.4-0.1,0.6-0.1
				c0.2,0,0.4,0,0.6,0.1c0.2,0.1,0.3,0.2,0.5,0.3c0.1,0.1,0.2,0.3,0.3,0.5c0.1,0.2,0.1,0.4,0.1,0.6c0,0.2,0,0.4-0.1,0.6
				c-0.1,0.2-0.2,0.3-0.3,0.5c-0.1,0.1-0.3,0.2-0.5,0.3c-0.2,0.1-0.4,0.1-0.6,0.1c-0.2,0-0.4,0-0.6-0.1c-0.2-0.1-0.3-0.2-0.5-0.3
				s-0.2-0.3-0.3-0.5C322.9,132.7,322.9,132.5,322.9,132.3z"/>
			<path class="st1" d="M335.6,133.6h-3.2l-2.4-3.8v3.8h-2.6v-9.8h4c0.5,0,1,0.1,1.4,0.2c0.4,0.2,0.7,0.4,1,0.7
				c0.3,0.3,0.5,0.6,0.6,1c0.1,0.4,0.2,0.8,0.2,1.2c0,0.7-0.2,1.4-0.5,1.8s-0.9,0.8-1.6,0.9L335.6,133.6z M329.9,128.1h0.5
				c0.5,0,0.9-0.1,1.2-0.3c0.3-0.2,0.4-0.5,0.4-0.9c0-0.4-0.1-0.7-0.4-0.9s-0.7-0.3-1.2-0.3h-0.5V128.1z"/>
			<path class="st1" d="M335.5,128.7c0-0.7,0.1-1.4,0.4-2s0.6-1.2,1.1-1.6c0.5-0.5,1-0.8,1.7-1.1c0.7-0.3,1.4-0.4,2.2-0.4
				c0.8,0,1.5,0.1,2.2,0.4c0.7,0.3,1.2,0.6,1.7,1.1c0.5,0.5,0.9,1,1.1,1.6s0.4,1.3,0.4,2c0,0.7-0.1,1.4-0.4,2s-0.6,1.2-1.1,1.6
				c-0.5,0.5-1.1,0.8-1.7,1.1c-0.7,0.3-1.4,0.4-2.2,0.4c-0.8,0-1.5-0.1-2.2-0.4c-0.7-0.3-1.2-0.6-1.7-1.1c-0.5-0.5-0.9-1-1.1-1.6
				S335.5,129.4,335.5,128.7z M338.1,128.7c0,0.4,0.1,0.8,0.2,1.1c0.1,0.3,0.3,0.6,0.6,0.9c0.3,0.2,0.5,0.4,0.9,0.6
				c0.3,0.1,0.7,0.2,1.1,0.2s0.7-0.1,1.1-0.2c0.3-0.1,0.6-0.3,0.9-0.6c0.3-0.2,0.5-0.5,0.6-0.9c0.1-0.3,0.2-0.7,0.2-1.1
				c0-0.4-0.1-0.8-0.2-1.1c-0.1-0.3-0.3-0.6-0.6-0.9c-0.3-0.2-0.6-0.4-0.9-0.6c-0.3-0.1-0.7-0.2-1.1-0.2s-0.7,0.1-1.1,0.2
				c-0.3,0.1-0.6,0.3-0.9,0.6c-0.3,0.2-0.5,0.5-0.6,0.9C338.2,127.9,338.1,128.3,338.1,128.7z"/>
			<path class="st1" d="M347,128.7c0-0.7,0.1-1.4,0.4-2c0.3-0.6,0.6-1.2,1.1-1.6c0.5-0.5,1-0.8,1.7-1.1c0.7-0.3,1.4-0.4,2.2-0.4
				c0.8,0,1.5,0.1,2.2,0.4s1.2,0.6,1.7,1.1c0.5,0.5,0.9,1,1.1,1.6c0.3,0.6,0.4,1.3,0.4,2c0,0.7-0.1,1.4-0.4,2
				c-0.3,0.6-0.6,1.2-1.1,1.6s-1.1,0.8-1.7,1.1c-0.7,0.3-1.4,0.4-2.2,0.4c-0.8,0-1.5-0.1-2.2-0.4c-0.7-0.3-1.2-0.6-1.7-1.1
				c-0.5-0.5-0.9-1-1.1-1.6C347.1,130.1,347,129.4,347,128.7z M349.7,128.7c0,0.4,0.1,0.8,0.2,1.1c0.1,0.3,0.3,0.6,0.6,0.9
				c0.3,0.2,0.5,0.4,0.9,0.6c0.3,0.1,0.7,0.2,1.1,0.2s0.7-0.1,1.1-0.2c0.3-0.1,0.6-0.3,0.9-0.6c0.3-0.2,0.5-0.5,0.6-0.9
				c0.1-0.3,0.2-0.7,0.2-1.1c0-0.4-0.1-0.8-0.2-1.1c-0.1-0.3-0.3-0.6-0.6-0.9c-0.3-0.2-0.6-0.4-0.9-0.6c-0.3-0.1-0.7-0.2-1.1-0.2
				s-0.7,0.1-1.1,0.2c-0.3,0.1-0.6,0.3-0.9,0.6c-0.3,0.2-0.5,0.5-0.6,0.9C349.8,127.9,349.7,128.3,349.7,128.7z"/>
			<path class="st1" d="M364.6,125.9h-3.1v1.6h2.8v2.2h-2.8v3.9H359v-9.8h5.6V125.9z"/>
			<path class="st1" d="M370.4,125.9v7.7h-2.6v-7.7h-2.1v-2.2h6.8v2.2H370.4z"/>
			<path class="st1" d="M372.6,128.7c0-0.7,0.1-1.4,0.4-2s0.6-1.2,1.1-1.6c0.5-0.5,1-0.8,1.7-1.1c0.7-0.3,1.4-0.4,2.2-0.4
				c0.8,0,1.5,0.1,2.2,0.4s1.2,0.6,1.7,1.1c0.5,0.5,0.9,1,1.1,1.6c0.3,0.6,0.4,1.3,0.4,2c0,0.7-0.1,1.4-0.4,2
				c-0.3,0.6-0.6,1.2-1.1,1.6c-0.5,0.5-1.1,0.8-1.7,1.1c-0.7,0.3-1.4,0.4-2.2,0.4c-0.8,0-1.5-0.1-2.2-0.4c-0.7-0.3-1.2-0.6-1.7-1.1
				c-0.5-0.5-0.9-1-1.1-1.6S372.6,129.4,372.6,128.7z M375.3,128.7c0,0.4,0.1,0.8,0.2,1.1c0.1,0.3,0.3,0.6,0.6,0.9
				c0.3,0.2,0.5,0.4,0.9,0.6c0.3,0.1,0.7,0.2,1.1,0.2c0.4,0,0.7-0.1,1.1-0.2c0.3-0.1,0.6-0.3,0.9-0.6c0.3-0.2,0.5-0.5,0.6-0.9
				c0.1-0.3,0.2-0.7,0.2-1.1c0-0.4-0.1-0.8-0.2-1.1c-0.1-0.3-0.3-0.6-0.6-0.9c-0.3-0.2-0.6-0.4-0.9-0.6c-0.3-0.1-0.7-0.2-1.1-0.2
				c-0.4,0-0.7,0.1-1.1,0.2c-0.3,0.1-0.6,0.3-0.9,0.6c-0.3,0.2-0.5,0.5-0.6,0.9C375.3,127.9,375.3,128.3,375.3,128.7z"/>
			<path class="st1" d="M387.1,133.6h-2.6v-9.8h4.1c1.1,0,1.9,0.3,2.5,0.9c0.6,0.6,0.9,1.4,0.9,2.4s-0.3,1.9-0.9,2.4
				c-0.6,0.6-1.4,0.9-2.5,0.9h-1.5V133.6z M387.1,128.3h0.8c0.9,0,1.4-0.4,1.4-1.2c0-0.8-0.5-1.2-1.4-1.2h-0.8V128.3z"/>
		</g>
		<g>
			<path class="st1" d="M63.2,219.8h3.1c0.5,0,1,0.1,1.5,0.3s0.9,0.5,1.2,0.9c0.4,0.4,0.6,0.8,0.8,1.3c0.2,0.5,0.3,1,0.3,1.5
				c0,0.5-0.1,1-0.3,1.5c-0.2,0.5-0.5,0.9-0.8,1.3c-0.4,0.4-0.8,0.7-1.2,0.9c-0.5,0.2-1,0.3-1.5,0.3h-3.1V219.8z M65.3,226h0.5
				c0.4,0,0.7-0.1,1-0.2c0.3-0.1,0.5-0.3,0.7-0.5c0.2-0.2,0.3-0.4,0.4-0.7c0.1-0.3,0.2-0.6,0.2-0.9c0-0.3-0.1-0.6-0.2-0.9
				c-0.1-0.3-0.3-0.5-0.4-0.7c-0.2-0.2-0.4-0.4-0.7-0.5c-0.3-0.1-0.6-0.2-0.9-0.2h-0.5V226z"/>
			<path class="st1" d="M75.6,221.5h-2.5v1.3h2.3v1.7h-2.3v1.4h2.5v1.7h-4.5v-7.9h4.5V221.5z"/>
			<path class="st1" d="M82.4,222.4c-0.5-0.6-1.1-0.9-1.8-0.9c-0.3,0-0.6,0.1-0.9,0.2c-0.3,0.1-0.5,0.3-0.7,0.5
				c-0.2,0.2-0.3,0.4-0.4,0.7s-0.2,0.6-0.2,0.9c0,0.3,0.1,0.6,0.2,0.9c0.1,0.3,0.3,0.5,0.5,0.7c0.2,0.2,0.4,0.4,0.7,0.5
				c0.3,0.1,0.5,0.2,0.8,0.2c0.7,0,1.3-0.3,1.8-0.8v2.4l-0.2,0.1c-0.3,0.1-0.6,0.2-0.9,0.2c-0.3,0.1-0.5,0.1-0.8,0.1
				c-0.5,0-1.1-0.1-1.6-0.3c-0.5-0.2-0.9-0.5-1.3-0.9s-0.7-0.8-0.9-1.3c-0.2-0.5-0.3-1.1-0.3-1.7s0.1-1.2,0.3-1.7
				c0.2-0.5,0.5-0.9,0.9-1.3c0.4-0.4,0.8-0.7,1.3-0.9c0.5-0.2,1-0.3,1.6-0.3c0.3,0,0.6,0,0.9,0.1c0.3,0.1,0.6,0.2,1,0.3V222.4z"/>
			<path class="st1" d="M85.7,223l2.5-3.3h2.6l-3.2,3.8l3.4,4.2h-2.7l-2.7-3.4v3.4h-2.1v-7.9h2.1V223z"/>
		</g>
		<g>
			<path class="st1" d="M117.2,247.1H37.6v-13.4h79.6V247.1z M38.1,246.6h78.6v-12.4H38.1V246.6z"/>
		</g>
		<g>
			<g>
				<path class="st1" d="M459.7,245.9v-3c0.8,0.4,1.6,0.8,2.5,0.1c0.6-0.6,0.8-1.3,0.4-2.3l0.1,0c0.1,0,0.3,0.1,0.4,0.1
					c0.7,0.2,1.4,0,1.9-0.6c0.5-0.6,0.6-1.3,0.2-1.9c-0.5-0.8-0.4-1.4,0-2.2c0.3-0.5,0.3-1.1,0-1.6c-0.3-0.5-0.9-0.8-1.5-0.8
					c0,0,0,0,0,0c-0.2,0-0.5,0.1-0.7,0.1c-0.1,0-0.1,0-0.2,0l0,0c0-0.1,0.1-0.2,0.1-0.4c0.2-0.8-0.1-1.4-0.6-1.9
					c-0.6-0.5-1.3-0.6-1.8-0.2c-0.7,0.5-1.3,0.5-2.1,0c-0.6-0.3-1.2-0.3-1.7,0c-0.5,0.4-0.8,1-0.8,1.8c0,0.2,0.1,0.4,0.1,0.6l0,0
					c0,0,0,0.1,0,0.1l-0.1,0c-0.1,0-0.3-0.1-0.4-0.1c-0.8-0.2-1.4,0.1-1.9,0.7c-0.5,0.6-0.5,1.3-0.1,1.9c0.5,0.7,0.5,1.2,0,1.9
					c-0.4,0.6-0.4,1.4,0.2,2c0.5,0.6,1.2,0.8,2,0.6c0.1,0,0.2-0.1,0.3-0.1l0,0c-0.2,0.6-0.4,1.4,0.3,2.2c0.9,1,1.9,0.5,2.7,0.1v3
					h-14.7v-2.8c0.1,0,0.1,0,0.2,0l0,0c0.2,0,0.3,0,0.4-0.1c2.2-0.2,3.8-1.3,4.9-3.2c0.4-0.6,0.6-1.3,0.9-2c0.1-0.2,0.2-0.4,0.2-0.6
					c0.3-0.7,0.5-1.4,0.8-2.1c0.1-0.3,0.3-0.7,0.4-1l0-0.1l-3-0.2l0.4-1.8l-0.2,0c-0.3,0-0.5,0.1-0.8,0.1c-0.6,0.1-1.1,0.1-1.5,0.3
					c-0.6,0.3-1.1,0.2-1.6-0.3c-0.4-0.4-0.9-0.9-1.2-1.2l0,0c-0.1-0.1-0.2-0.3-0.3-0.4l-0.1-0.1l-0.1,0.1c-0.2,0.2-0.4,0.3-0.6,0.5
					c-0.5,0.4-1,0.8-1.5,1.3c-0.4,0.3-0.7,0.4-1.3,0.2c-0.5-0.2-1.1-0.3-1.7-0.4c-0.2,0-0.5-0.1-0.8-0.1l-0.2,0l0.4,1.8l-3.1,0.2
					l0,0l0.1,0.1c0.1,0.3,0.2,0.5,0.3,0.7c0.2,0.5,0.4,0.9,0.6,1.3c0.1,0.4,0.3,0.7,0.4,1.1l0,0c0.1,0.4,0.3,0.8,0.5,1.3
					c1,2.5,2.6,3.9,4.9,4.4c0.3,0.1,0.6,0.1,0.9,0.2c0.1,0,0.3,0,0.4,0.1v2.8h-13.1c0-0.1,0-0.1,0-0.2l0,0c0-0.6,0-1.1,0-1.6
					c0-0.4,0.1-0.5,0.4-0.7c0.6-0.3,1.3-0.7,2-1.2c1.4-1,2.2-2.2,2.5-3.8c0.7-3.5-2.2-7.8-5.1-8.9c-0.2-0.1-0.6-0.1-0.8,0.1
					c-2.7,1.4-4.4,3.7-5,6.8c-0.3,1.8,0.1,3.4,1.3,4.7c0.8,0.8,1.7,1.6,2.7,2.1c0.9,0.5,1.2,0.9,1,1.8c-0.1,0.4,0,0.7,0,1.1l0,0
					c0,0,0,0,0,0h-11.7v-3.4c3.3,0.8,5-1.3,6.4-3.6l0.1-0.1l-0.1,0c-2.5-0.5-4.5-0.7-6.2,1.1v-2.8c2.2,0.5,3.8-0.5,5.2-3.2l0.1-0.1
					l-0.1,0c-1.7-0.4-3.6-0.6-5.1,0.8v-2.3c1.9,0,3.1-0.8,3.8-2.6l0.1-0.1l-0.1,0c-0.2,0-0.5,0-0.7-0.1c-0.5-0.1-1.1-0.1-1.6,0
					c-0.5,0.1-1,0.3-1.5,0.6c-0.2,0.1-0.4,0.2-0.6,0.3c-1-1-2.7-1.3-4.1-0.7l-0.1,0l0.1,0.1c0.9,1.5,1.9,2.7,3.8,2.4v2.3
					c-1.6-1.4-3.4-1.2-5.2-0.8l-0.1,0l0.1,0.1c1.4,2.6,2.9,3.5,5.2,3.2v2.8c-1.9-1.9-4.2-1.5-6.2-1.1l-0.1,0l0.1,0.1
					c1.3,2.9,3.1,3.9,6.3,3.7v3.4h-14.1c0-0.6,0-1.1,0-1.7c0-1.5-0.1-2.9,0.9-4.3c1.2,0.6,2.3,0.2,3.2-1c0.4-0.5,0.7-1,1.1-1.5
					c1-1.5,2-2.4,3.1-3c0.1,0,0.1-0.1,0.1-0.2c0,0,0-0.1,0-0.1l0-0.1l-0.1,0c-0.2-0.1-0.4-0.1-0.6-0.2l0,0c-0.4-0.2-0.9-0.3-1.3-0.4
					c-2.6-0.7-5.3,0.3-6.5,2.5c-0.6,1.2-0.7,2.1-0.2,2.9c0.4,0.6,0.2,1-0.2,1.6c0-0.1-0.1-0.2-0.1-0.3c-0.1-0.3-0.2-0.6-0.2-0.8
					c0.2-0.9,0.1-1.8-0.6-2.5c-0.8-0.9-2-1.5-3.3-1.5c-0.1,0-0.1,0-0.2,0c-1.4,0-2.8,0.6-3.7,1.5l-0.1,0.1l0.1,0.1
					c0.2,0.1,0.5,0.3,0.7,0.4l0,0c0.6,0.4,1.2,0.7,1.7,1.1c0.3,0.2,0.6,0.5,0.9,0.8c0.1,0.1,0.3,0.3,0.4,0.4
					c0.8,0.8,1.9,1.4,3.2,0.5c0.7,1.2,0.6,2.6,0.6,3.8c0,0.6,0,1.2,0,1.9h-9.9v0.9h76v-0.9H459.7z M456.6,241.3
					c0.4-0.8,1-1.5,1.4-2.1c0.1-0.2,0.3-0.3,0.5-0.5c0.1-0.1,0.2-0.2,0.3-0.3l0.1-0.1l-0.6-0.7l-0.1,0.1c-0.2,0.1-0.3,0.3-0.5,0.4
					l0,0c-0.3,0.3-0.7,0.7-1,0.9c-0.4,0.3-1,0.7-1.6,0.9c-0.4,0.1-0.8,0-1-0.3c-0.2-0.3-0.2-0.6,0-0.9c0.7-1.1,0.7-2,0-2.9
					c-0.2-0.3-0.2-0.7,0.1-1c0.3-0.4,0.8-0.5,1.1-0.2c0.7,0.4,1.4,0.9,2,1.4c0.2,0.1,0.4,0.3,0.5,0.5c0.1,0.1,0.2,0.2,0.3,0.3
					l0.1,0.1l0.6-0.5l-0.1-0.1c-0.2-0.2-0.4-0.5-0.6-0.7c-0.5-0.6-0.9-1.1-1.4-1.7c-0.2-0.2-0.3-0.5-0.3-0.8
					c-0.1-0.3,0.1-0.6,0.3-0.8c0.2-0.2,0.5-0.3,0.9-0.2c0.2,0,0.4,0.1,0.6,0.3c0.7,0.5,1.3,0.5,2,0c0.5-0.4,0.9-0.4,1.3-0.2
					c0.5,0.3,0.6,0.8,0.3,1.4c-0.4,0.6-0.8,1.2-1.3,1.9c-0.2,0.2-0.3,0.3-0.6,0.5c-0.1,0.1-0.2,0.2-0.3,0.2l-0.1,0.1l0.6,0.7
					l0.1-0.1c0.1-0.1,0.3-0.3,0.5-0.4c0.3-0.3,0.7-0.6,1-0.9c0.4-0.3,0.9-0.6,1.4-0.8c0.4-0.2,0.8-0.1,1.2,0.3
					c0.3,0.3,0.3,0.7,0,1.1c-0.7,0.9-0.7,1.7,0,2.6c0.3,0.3,0.2,0.8,0,1.1c-0.3,0.4-0.8,0.5-1.2,0.2c-0.7-0.4-1.4-0.9-2-1.4
					c-0.2-0.1-0.3-0.3-0.5-0.5c-0.1-0.1-0.2-0.2-0.3-0.3l-0.1-0.1l-0.6,0.6l0.1,0.1c0.2,0.2,0.3,0.4,0.5,0.6l0.1,0.1
					c0.5,0.6,0.9,1.1,1.3,1.7c0.1,0.2,0.2,0.4,0.3,0.6l0,0.1c0.2,0.4,0.1,0.8-0.3,1.1c-0.3,0.3-0.7,0.3-1,0.1
					c-0.5-0.4-0.9-0.6-1.4-0.6c-0.5,0-0.9,0.2-1.4,0.6c-0.3,0.2-0.7,0.2-1-0.1C456.8,242.2,456.4,241.7,456.6,241.3z M436.7,234.6
					c0.1,0,0.2,0,0.3,0c0.7-0.1,1-0.1,1.2,0.1c0.2,0.1,0.2,0.5,0.3,1.1c0,0.8,0.1,1.7,0.3,2.6c0.1,0.6,0.3,1.1,0.5,1.7l0,0
					c0,0.1,0.1,0.2,0.1,0.4C438.4,239.7,437.8,238.3,436.7,234.6L436.7,234.6z M443.3,241.4c0,0.2,0,0.5,0,0.7
					c-1.5,0.1-2.8-0.9-3.3-2.4c-0.2-0.7-0.3-1.3-0.4-2c0-0.3-0.1-0.5-0.1-0.8c0-0.2-0.1-0.4-0.1-0.7c0-0.8-0.1-1.6-0.1-2.4l0-0.8
					c1.9,0.4,3.2,1.5,3.7,3.3c0.3,0.9,0.3,1.9,0.4,2.9l0,0c0,0.1,0,0.3,0,0.4C443.3,240.2,443.3,240.8,443.3,241.4z M442,233.2
					l1.7-1.5l1.7,1.5l-1.7,2.7L442,233.2z M444.2,240.7c0-1.5-0.1-3.1,0.5-4.6c0.7-1.8,1.9-2.8,3.7-3.1c-0.1,0.7-0.1,1.5-0.2,2.2
					c-0.1,1.5-0.2,3-0.7,4.5c-0.5,1.5-1.8,2.4-3.3,2.5C444.2,241.6,444.2,241.1,444.2,240.7z M449.5,234.7c0.2,0,0.4,0,0.6,0l0.8,0
					c-0.2,0.6-0.4,1.1-0.6,1.7c-0.5,1.5-1,2.9-2,4c0.7-1.7,0.8-3.5,0.9-5.2C449.1,234.8,449.2,234.7,449.5,234.7z M431.8,238.8
					L431.8,238.8l-0.7-0.8l-0.8,1c-0.4-1.4,0.1-2.4,1.5-3.5l0.1-0.1l-0.8-0.8l-0.8,1.2l-0.1,0l0-0.3c0-0.3,0-0.6,0-0.8
					c0-0.3,0-0.5-0.1-0.6c-0.1-0.1-0.3-0.1-0.7,0l-0.1,0v1.7l-0.9-1.1l-0.8,0.8l0.1,0.1c1.3,1,2,2,1.5,3.5l-0.8-1l-0.9,0.7l0.1,0.1
					c1.5,1.2,2,2.3,1.6,3.6c-3.4-1.4-4.7-3.8-3.8-6.9c0.6-2.2,1.9-3.9,3.8-5c0.3-0.2,0.6-0.2,1,0c2.4,1.3,4.3,4.7,4.1,7.4
					c-0.1,0.9-0.4,1.8-1.1,2.5c-0.7,0.9-1.7,1.6-3,2.1C429.8,241.1,430.3,239.9,431.8,238.8z M416.3,241.5c-0.5,0.3-1.2,0.4-1.9,0.3
					c-1.1-0.3-2.1-1.1-2.8-2.2C414,239.1,415.6,239.7,416.3,241.5z M416.3,231.2c-0.7,0.3-1.4,0-2.1-0.9
					C415.2,230.2,415.9,230.5,416.3,231.2z M417.6,241.5c0.7-1.7,2.3-2.4,4.6-2c-0.5,1.1-1.4,1.9-2.4,2.2
					C419.1,241.9,418.3,241.8,417.6,241.5z M417.7,236.1c0.1-0.4,0.3-0.8,0.7-1.1c0.7-0.5,1.8-0.7,2.8-0.5
					C420.3,236.1,419,236.6,417.7,236.1z M417.7,231.3c0.4-0.7,1.2-1.1,2-0.9C419.2,231.2,418.5,231.5,417.7,231.3z M416.3,236.1
					c-0.6,0.3-1.3,0.3-1.9,0c-0.6-0.3-1.2-0.8-1.7-1.5c1.1-0.2,2.1,0,2.8,0.4C415.9,235.3,416.2,235.7,416.3,236.1z M398.5,238
					L398.5,238l1.8,1.4c-0.4,0.4-0.7,0.4-1.1,0.2c-0.3-0.2-0.6-0.5-0.9-0.7l-0.2-0.1c-0.6-0.5-1.2-1-1.8-1.6l-0.6-0.5
					c0.9-0.7,2.8-0.7,3.9-0.1c0.9,0.5,1.4,1.3,1.3,2.1l-1.9-1.4l0,0L398.5,238z M404.5,236.5L404.5,236.5l-1.5,2l-0.1,0
					c0-0.1,0-0.3-0.1-0.4c-0.1-0.3-0.1-0.6-0.1-0.9c0.3-1.6,1.9-3,3.8-3.2c0.6,0,1.1,0,1.8,0.1c0.2,0,0.5,0,0.7,0.1
					c-0.2,0.2-0.3,0.3-0.5,0.5l0,0c-0.4,0.5-0.8,0.9-1.1,1.3c-0.3,0.4-0.6,0.8-0.9,1.2c-0.3,0.4-0.6,0.9-1,1.3
					c-0.6,0.8-1.1,0.9-1.9,0.5l1.3-2l0,0L404.5,236.5z"/>
			</g>
			<g>
				<path class="st1" d="M383.7,245.9v-3c0.8,0.4,1.6,0.8,2.5,0.1c0.6-0.6,0.8-1.3,0.4-2.3l0.1,0c0.1,0,0.3,0.1,0.4,0.1
					c0.7,0.2,1.4,0,1.9-0.6c0.5-0.6,0.6-1.3,0.2-1.9c-0.5-0.8-0.4-1.4,0-2.2c0.3-0.5,0.3-1.1,0-1.6c-0.3-0.5-0.9-0.8-1.5-0.8
					c0,0,0,0,0,0c-0.2,0-0.5,0.1-0.7,0.1c-0.1,0-0.1,0-0.2,0l0,0c0-0.1,0.1-0.2,0.1-0.4c0.2-0.8-0.1-1.4-0.6-1.9
					c-0.6-0.5-1.3-0.6-1.8-0.2c-0.7,0.5-1.3,0.5-2.1,0c-0.6-0.3-1.2-0.3-1.7,0c-0.5,0.4-0.8,1-0.8,1.8c0,0.2,0.1,0.4,0.1,0.6l0,0
					c0,0,0,0.1,0,0.1l-0.1,0c-0.1,0-0.3-0.1-0.4-0.1c-0.8-0.2-1.4,0.1-1.9,0.7c-0.5,0.6-0.5,1.3-0.1,1.9c0.5,0.7,0.5,1.2,0,1.9
					c-0.4,0.6-0.4,1.4,0.2,2c0.5,0.6,1.2,0.8,2,0.6c0.1,0,0.2-0.1,0.3-0.1l0,0c-0.2,0.6-0.4,1.4,0.3,2.2c0.9,1,1.9,0.5,2.7,0.1v3
					h-14.7v-2.8c0.1,0,0.1,0,0.2,0l0,0c0.2,0,0.3,0,0.4-0.1c2.2-0.2,3.8-1.3,4.9-3.2c0.4-0.6,0.6-1.3,0.9-2c0.1-0.2,0.2-0.4,0.2-0.6
					c0.3-0.7,0.5-1.4,0.8-2.1c0.1-0.3,0.3-0.7,0.4-1l0-0.1l-3-0.2l0.4-1.8l-0.2,0c-0.3,0-0.5,0.1-0.8,0.1c-0.6,0.1-1.1,0.1-1.5,0.3
					c-0.6,0.3-1.1,0.2-1.6-0.3c-0.4-0.4-0.9-0.9-1.2-1.2l0,0c-0.1-0.1-0.2-0.3-0.3-0.4l-0.1-0.1l-0.1,0.1c-0.2,0.2-0.4,0.3-0.6,0.5
					c-0.5,0.4-1,0.8-1.5,1.3c-0.4,0.3-0.7,0.4-1.3,0.2c-0.5-0.2-1.1-0.3-1.7-0.4c-0.2,0-0.5-0.1-0.8-0.1l-0.2,0l0.4,1.8l-3.1,0.2
					l0,0l0.1,0.1c0.1,0.3,0.2,0.5,0.3,0.7c0.2,0.5,0.4,0.9,0.6,1.3c0.1,0.4,0.3,0.7,0.4,1.1l0,0c0.1,0.4,0.3,0.8,0.5,1.3
					c1,2.5,2.6,3.9,4.9,4.4c0.3,0.1,0.6,0.1,0.9,0.2c0.1,0,0.3,0,0.4,0.1v2.8h-13.1c0-0.1,0-0.1,0-0.2l0,0c0-0.6,0-1.1,0-1.6
					c0-0.4,0.1-0.5,0.4-0.7c0.6-0.3,1.3-0.7,2-1.2c1.4-1,2.2-2.2,2.5-3.8c0.7-3.5-2.2-7.8-5.1-8.9c-0.2-0.1-0.6-0.1-0.8,0.1
					c-2.7,1.4-4.4,3.7-5,6.8c-0.3,1.8,0.1,3.4,1.3,4.7c0.8,0.8,1.7,1.6,2.7,2.1c0.9,0.5,1.2,0.9,1,1.8c-0.1,0.4,0,0.7,0,1.1l0,0
					c0,0,0,0,0,0h-11.7v-3.4c3.3,0.8,5-1.3,6.4-3.6l0.1-0.1l-0.1,0c-2.5-0.5-4.5-0.7-6.2,1.1v-2.8c2.2,0.5,3.8-0.5,5.2-3.2l0.1-0.1
					l-0.1,0c-1.7-0.4-3.6-0.6-5.1,0.8v-2.3c1.9,0,3.1-0.8,3.8-2.6l0.1-0.1l-0.1,0c-0.2,0-0.5,0-0.7-0.1c-0.5-0.1-1.1-0.1-1.6,0
					c-0.5,0.1-1,0.3-1.5,0.6c-0.2,0.1-0.4,0.2-0.6,0.3c-1-1-2.7-1.3-4.1-0.7l-0.1,0l0.1,0.1c0.9,1.5,1.9,2.7,3.8,2.4v2.3
					c-1.6-1.4-3.4-1.2-5.2-0.8l-0.1,0l0.1,0.1c1.4,2.6,2.9,3.5,5.2,3.2v2.8c-1.9-1.9-4.2-1.5-6.2-1.1l-0.1,0l0.1,0.1
					c1.3,2.9,3.1,3.9,6.3,3.7v3.4h-14.1c0-0.6,0-1.1,0-1.7c0-1.5-0.1-2.9,0.9-4.3c1.2,0.6,2.3,0.2,3.2-1c0.4-0.5,0.7-1,1.1-1.5
					c1-1.5,2-2.4,3.1-3c0.1,0,0.1-0.1,0.1-0.2c0,0,0-0.1,0-0.1l0-0.1l-0.1,0c-0.2-0.1-0.4-0.1-0.6-0.2l0,0c-0.4-0.2-0.9-0.3-1.3-0.4
					c-2.6-0.7-5.3,0.3-6.5,2.5c-0.6,1.2-0.7,2.1-0.2,2.9c0.4,0.6,0.2,1-0.2,1.6c0-0.1-0.1-0.2-0.1-0.3c-0.1-0.3-0.2-0.6-0.2-0.8
					c0.2-0.9,0.1-1.8-0.6-2.5c-0.8-0.9-2-1.5-3.3-1.5c-0.1,0-0.1,0-0.2,0c-1.4,0-2.8,0.6-3.7,1.5l-0.1,0.1l0.1,0.1
					c0.2,0.1,0.5,0.3,0.7,0.4l0,0c0.6,0.4,1.2,0.7,1.7,1.1c0.3,0.2,0.6,0.5,0.9,0.8c0.1,0.1,0.3,0.3,0.4,0.4
					c0.8,0.8,1.9,1.4,3.2,0.5c0.7,1.2,0.6,2.6,0.6,3.8c0,0.6,0,1.2,0,1.9h-9.9v0.9h76v-0.9H383.7z M380.6,241.3
					c0.4-0.8,1-1.5,1.4-2.1c0.1-0.2,0.3-0.3,0.5-0.5c0.1-0.1,0.2-0.2,0.3-0.3l0.1-0.1l-0.6-0.7l-0.1,0.1c-0.2,0.1-0.3,0.3-0.5,0.4
					l0,0c-0.3,0.3-0.7,0.7-1,0.9c-0.4,0.3-1,0.7-1.6,0.9c-0.4,0.1-0.8,0-1-0.3c-0.2-0.3-0.2-0.6,0-0.9c0.7-1.1,0.7-2,0-2.9
					c-0.2-0.3-0.2-0.7,0.1-1c0.3-0.4,0.8-0.5,1.1-0.2c0.7,0.4,1.4,0.9,2,1.4c0.2,0.1,0.4,0.3,0.5,0.5c0.1,0.1,0.2,0.2,0.3,0.3
					l0.1,0.1l0.6-0.5l-0.1-0.1c-0.2-0.2-0.4-0.5-0.6-0.7c-0.5-0.6-0.9-1.1-1.4-1.7c-0.2-0.2-0.3-0.5-0.3-0.8
					c-0.1-0.3,0.1-0.6,0.3-0.8c0.2-0.2,0.5-0.3,0.9-0.2c0.2,0,0.4,0.1,0.6,0.3c0.7,0.5,1.3,0.5,2,0c0.5-0.4,0.9-0.4,1.3-0.2
					c0.5,0.3,0.6,0.8,0.3,1.4c-0.4,0.6-0.8,1.2-1.3,1.9c-0.2,0.2-0.3,0.3-0.6,0.5c-0.1,0.1-0.2,0.2-0.3,0.2l-0.1,0.1l0.6,0.7
					l0.1-0.1c0.1-0.1,0.3-0.3,0.5-0.4c0.3-0.3,0.7-0.6,1-0.9c0.4-0.3,0.9-0.6,1.4-0.8c0.4-0.2,0.8-0.1,1.2,0.3
					c0.3,0.3,0.3,0.7,0,1.1c-0.7,0.9-0.7,1.7,0,2.6c0.3,0.3,0.2,0.8,0,1.1c-0.3,0.4-0.8,0.5-1.2,0.2c-0.7-0.4-1.4-0.9-2-1.4
					c-0.2-0.1-0.3-0.3-0.5-0.5c-0.1-0.1-0.2-0.2-0.3-0.3l-0.1-0.1l-0.6,0.6l0.1,0.1c0.2,0.2,0.3,0.4,0.5,0.6l0.1,0.1
					c0.5,0.6,0.9,1.1,1.3,1.7c0.1,0.2,0.2,0.4,0.3,0.6l0,0.1c0.2,0.4,0.1,0.8-0.3,1.1c-0.3,0.3-0.7,0.3-1,0.1
					c-0.5-0.4-0.9-0.6-1.4-0.6c-0.5,0-0.9,0.2-1.4,0.6c-0.3,0.2-0.7,0.2-1-0.1C380.7,242.2,380.3,241.7,380.6,241.3z M360.7,234.6
					c0.1,0,0.2,0,0.3,0c0.7-0.1,1-0.1,1.2,0.1c0.2,0.1,0.2,0.5,0.3,1.1c0,0.8,0.1,1.7,0.3,2.6c0.1,0.6,0.3,1.1,0.5,1.7l0,0
					c0,0.1,0.1,0.2,0.1,0.4C362.4,239.7,361.8,238.3,360.7,234.6L360.7,234.6z M367.2,241.4c0,0.2,0,0.5,0,0.7
					c-1.5,0.1-2.8-0.9-3.3-2.4c-0.2-0.7-0.3-1.3-0.4-2c0-0.3-0.1-0.5-0.1-0.8c0-0.2-0.1-0.4-0.1-0.7c0-0.8-0.1-1.6-0.1-2.4l0-0.8
					c1.9,0.4,3.2,1.5,3.7,3.3c0.3,0.9,0.3,1.9,0.4,2.9l0,0c0,0.1,0,0.3,0,0.4C367.3,240.2,367.3,240.8,367.2,241.4z M366,233.2
					l1.7-1.5l1.7,1.5l-1.7,2.7L366,233.2z M368.1,240.7c0-1.5-0.1-3.1,0.5-4.6c0.7-1.8,1.9-2.8,3.7-3.1c-0.1,0.7-0.1,1.5-0.2,2.2
					c-0.1,1.5-0.2,3-0.7,4.5c-0.5,1.5-1.8,2.4-3.3,2.5C368.1,241.6,368.1,241.1,368.1,240.7z M373.4,234.7c0.2,0,0.4,0,0.6,0l0.8,0
					c-0.2,0.6-0.4,1.1-0.6,1.7c-0.5,1.5-1,2.9-2,4c0.7-1.7,0.8-3.5,0.9-5.2C373,234.8,373.1,234.7,373.4,234.7z M355.7,238.8
					L355.7,238.8l-0.7-0.8l-0.8,1c-0.4-1.4,0.1-2.4,1.5-3.5l0.1-0.1l-0.8-0.8l-0.8,1.2l-0.1,0l0-0.3c0-0.3,0-0.6,0-0.8
					c0-0.3,0-0.5-0.1-0.6c-0.1-0.1-0.3-0.1-0.7,0l-0.1,0v1.7l-0.9-1.1l-0.8,0.8l0.1,0.1c1.3,1,2,2,1.5,3.5l-0.8-1l-0.9,0.7l0.1,0.1
					c1.5,1.2,2,2.3,1.6,3.6c-3.4-1.4-4.7-3.8-3.8-6.9c0.6-2.2,1.9-3.9,3.8-5c0.3-0.2,0.6-0.2,1,0c2.4,1.3,4.3,4.7,4.1,7.4
					c-0.1,0.9-0.4,1.8-1.1,2.5c-0.7,0.9-1.7,1.6-3,2.1C353.8,241.1,354.3,239.9,355.7,238.8z M340.3,241.5c-0.5,0.3-1.2,0.4-1.9,0.3
					c-1.1-0.3-2.1-1.1-2.8-2.2C338,239.1,339.6,239.7,340.3,241.5z M340.3,231.2c-0.7,0.3-1.4,0-2.1-0.9
					C339.2,230.2,339.8,230.5,340.3,231.2z M341.6,241.5c0.7-1.7,2.3-2.4,4.6-2c-0.5,1.1-1.4,1.9-2.4,2.2
					C343,241.9,342.3,241.8,341.6,241.5z M341.7,236.1c0.1-0.4,0.3-0.8,0.7-1.1c0.7-0.5,1.8-0.7,2.8-0.5
					C344.2,236.1,343,236.6,341.7,236.1z M341.7,231.3c0.4-0.7,1.2-1.1,2-0.9C343.2,231.2,342.4,231.5,341.7,231.3z M340.3,236.1
					c-0.6,0.3-1.3,0.3-1.9,0c-0.6-0.3-1.2-0.8-1.7-1.5c1.1-0.2,2.1,0,2.8,0.4C339.9,235.3,340.2,235.7,340.3,236.1z M322.5,238
					L322.5,238l1.8,1.4c-0.4,0.4-0.7,0.4-1.1,0.2c-0.3-0.2-0.6-0.5-0.9-0.7l-0.2-0.1c-0.6-0.5-1.2-1-1.8-1.6l-0.6-0.5
					c0.9-0.7,2.8-0.7,3.9-0.1c0.9,0.5,1.4,1.3,1.3,2.1l-1.9-1.4l0,0L322.5,238z M328.5,236.5L328.5,236.5l-1.5,2l-0.1,0
					c0-0.1,0-0.3-0.1-0.4c-0.1-0.3-0.1-0.6-0.1-0.9c0.3-1.6,1.9-3,3.8-3.2c0.6,0,1.1,0,1.8,0.1c0.2,0,0.5,0,0.7,0.1
					c-0.2,0.2-0.3,0.3-0.5,0.5l0,0c-0.4,0.5-0.8,0.9-1.1,1.3c-0.3,0.4-0.6,0.8-0.9,1.2c-0.3,0.4-0.6,0.9-1,1.3
					c-0.6,0.8-1.1,0.9-1.9,0.5l1.3-2l0,0L328.5,236.5z"/>
			</g>
			<g>
				<path class="st1" d="M307.7,245.9v-3c0.8,0.4,1.6,0.8,2.5,0.1c0.6-0.6,0.8-1.3,0.4-2.3l0.1,0c0.1,0,0.3,0.1,0.4,0.1
					c0.7,0.2,1.4,0,1.9-0.6c0.5-0.6,0.6-1.3,0.2-1.9c-0.5-0.8-0.4-1.4,0-2.2c0.3-0.5,0.3-1.1,0-1.6c-0.3-0.5-0.9-0.8-1.5-0.8
					c0,0,0,0,0,0c-0.2,0-0.5,0.1-0.7,0.1c-0.1,0-0.1,0-0.2,0l0,0c0-0.1,0.1-0.2,0.1-0.4c0.2-0.8-0.1-1.4-0.6-1.9
					c-0.6-0.5-1.3-0.6-1.8-0.2c-0.7,0.5-1.3,0.5-2.1,0c-0.6-0.3-1.2-0.3-1.7,0c-0.5,0.4-0.8,1-0.8,1.8c0,0.2,0.1,0.4,0.1,0.6l0,0
					c0,0,0,0.1,0,0.1l-0.1,0c-0.1,0-0.3-0.1-0.4-0.1c-0.8-0.2-1.4,0.1-1.9,0.7c-0.5,0.6-0.5,1.3-0.1,1.9c0.5,0.7,0.5,1.2,0,1.9
					c-0.4,0.6-0.4,1.4,0.2,2c0.5,0.6,1.2,0.8,2,0.6c0.1,0,0.2-0.1,0.3-0.1l0,0c-0.2,0.6-0.4,1.4,0.3,2.2c0.9,1,1.9,0.5,2.7,0.1v3
					h-14.7v-2.8c0.1,0,0.1,0,0.2,0l0,0c0.2,0,0.3,0,0.4-0.1c2.2-0.2,3.8-1.3,4.9-3.2c0.4-0.6,0.6-1.3,0.9-2c0.1-0.2,0.2-0.4,0.2-0.6
					c0.3-0.7,0.5-1.4,0.8-2.1c0.1-0.3,0.3-0.7,0.4-1l0-0.1l-3-0.2l0.4-1.8l-0.2,0c-0.3,0-0.5,0.1-0.8,0.1c-0.6,0.1-1.1,0.1-1.5,0.3
					c-0.6,0.3-1.1,0.2-1.6-0.3c-0.4-0.4-0.9-0.9-1.2-1.2l0,0c-0.1-0.1-0.2-0.3-0.3-0.4l-0.1-0.1l-0.1,0.1c-0.2,0.2-0.4,0.3-0.6,0.5
					c-0.5,0.4-1,0.8-1.5,1.3c-0.4,0.3-0.7,0.4-1.3,0.2c-0.5-0.2-1.1-0.3-1.7-0.4c-0.2,0-0.5-0.1-0.8-0.1l-0.2,0l0.4,1.8l-3.1,0.2
					l0,0l0.1,0.1c0.1,0.3,0.2,0.5,0.3,0.7c0.2,0.5,0.4,0.9,0.6,1.3c0.1,0.4,0.3,0.7,0.4,1.1l0,0c0.1,0.4,0.3,0.8,0.5,1.3
					c1,2.5,2.6,3.9,4.9,4.4c0.3,0.1,0.6,0.1,0.9,0.2c0.1,0,0.3,0,0.4,0.1v2.8h-13.1c0-0.1,0-0.1,0-0.2l0,0c0-0.6,0-1.1,0-1.6
					c0-0.4,0.1-0.5,0.4-0.7c0.6-0.3,1.3-0.7,2-1.2c1.4-1,2.2-2.2,2.5-3.8c0.7-3.5-2.2-7.8-5.1-8.9c-0.2-0.1-0.6-0.1-0.8,0.1
					c-2.7,1.4-4.4,3.7-5,6.8c-0.3,1.8,0.1,3.4,1.3,4.7c0.8,0.8,1.7,1.6,2.7,2.1c0.9,0.5,1.2,0.9,1,1.8c-0.1,0.4,0,0.7,0,1.1l0,0
					c0,0,0,0,0,0h-11.7v-3.4c3.3,0.8,5-1.3,6.4-3.6l0.1-0.1l-0.1,0c-2.5-0.5-4.5-0.7-6.2,1.1v-2.8c2.2,0.5,3.8-0.5,5.2-3.2l0.1-0.1
					l-0.1,0c-1.7-0.4-3.6-0.6-5.1,0.8v-2.3c1.9,0,3.1-0.8,3.8-2.6l0.1-0.1l-0.1,0c-0.2,0-0.5,0-0.7-0.1c-0.5-0.1-1.1-0.1-1.6,0
					c-0.5,0.1-1,0.3-1.5,0.6c-0.2,0.1-0.4,0.2-0.6,0.3c-1-1-2.7-1.3-4.1-0.7l-0.1,0l0.1,0.1c0.9,1.5,1.9,2.7,3.8,2.4v2.3
					c-1.6-1.4-3.4-1.2-5.2-0.8l-0.1,0l0.1,0.1c1.4,2.6,2.9,3.5,5.2,3.2v2.8c-1.9-1.9-4.2-1.5-6.2-1.1l-0.1,0l0.1,0.1
					c1.3,2.9,3.1,3.9,6.3,3.7v3.4h-14.1c0-0.6,0-1.1,0-1.7c0-1.5-0.1-2.9,0.9-4.3c1.2,0.6,2.3,0.2,3.2-1c0.4-0.5,0.7-1,1.1-1.5
					c1-1.5,2-2.4,3.1-3c0.1,0,0.1-0.1,0.1-0.2c0,0,0-0.1,0-0.1l0-0.1l-0.1,0c-0.2-0.1-0.4-0.1-0.6-0.2l0,0c-0.4-0.2-0.9-0.3-1.3-0.4
					c-2.6-0.7-5.3,0.3-6.5,2.5c-0.6,1.2-0.7,2.1-0.2,2.9c0.4,0.6,0.2,1-0.2,1.6c0-0.1-0.1-0.2-0.1-0.3c-0.1-0.3-0.2-0.6-0.2-0.8
					c0.2-0.9,0.1-1.8-0.6-2.5c-0.8-0.9-2-1.5-3.3-1.5c-0.1,0-0.1,0-0.2,0c-1.4,0-2.8,0.6-3.7,1.5l-0.1,0.1l0.1,0.1
					c0.2,0.1,0.5,0.3,0.7,0.4l0,0c0.6,0.4,1.2,0.7,1.7,1.1c0.3,0.2,0.6,0.5,0.9,0.8c0.1,0.1,0.3,0.3,0.4,0.4
					c0.8,0.8,1.9,1.4,3.2,0.5c0.7,1.2,0.6,2.6,0.6,3.8c0,0.6,0,1.2,0,1.9h-9.9v0.9h76v-0.9H307.7z M304.6,241.3
					c0.4-0.8,1-1.5,1.4-2.1c0.1-0.2,0.3-0.3,0.5-0.5c0.1-0.1,0.2-0.2,0.3-0.3l0.1-0.1l-0.6-0.7l-0.1,0.1c-0.2,0.1-0.3,0.3-0.5,0.4
					l0,0c-0.3,0.3-0.7,0.7-1,0.9c-0.4,0.3-1,0.7-1.6,0.9c-0.4,0.1-0.8,0-1-0.3c-0.2-0.3-0.2-0.6,0-0.9c0.7-1.1,0.7-2,0-2.9
					c-0.2-0.3-0.2-0.7,0.1-1c0.3-0.4,0.8-0.5,1.1-0.2c0.7,0.4,1.4,0.9,2,1.4c0.2,0.1,0.4,0.3,0.5,0.5c0.1,0.1,0.2,0.2,0.3,0.3
					l0.1,0.1l0.6-0.5l-0.1-0.1c-0.2-0.2-0.4-0.5-0.6-0.7c-0.5-0.6-0.9-1.1-1.4-1.7c-0.2-0.2-0.3-0.5-0.3-0.8
					c-0.1-0.3,0.1-0.6,0.3-0.8c0.2-0.2,0.5-0.3,0.9-0.2c0.2,0,0.4,0.1,0.6,0.3c0.7,0.5,1.3,0.5,2,0c0.5-0.4,0.9-0.4,1.3-0.2
					c0.5,0.3,0.6,0.8,0.3,1.4c-0.4,0.6-0.8,1.2-1.3,1.9c-0.2,0.2-0.3,0.3-0.6,0.5c-0.1,0.1-0.2,0.2-0.3,0.2l-0.1,0.1l0.6,0.7
					l0.1-0.1c0.1-0.1,0.3-0.3,0.5-0.4c0.3-0.3,0.7-0.6,1-0.9c0.4-0.3,0.9-0.6,1.4-0.8c0.4-0.2,0.8-0.1,1.2,0.3
					c0.3,0.3,0.3,0.7,0,1.1c-0.7,0.9-0.7,1.7,0,2.6c0.3,0.3,0.2,0.8,0,1.1c-0.3,0.4-0.8,0.5-1.2,0.2c-0.7-0.4-1.4-0.9-2-1.4
					c-0.2-0.1-0.3-0.3-0.5-0.5c-0.1-0.1-0.2-0.2-0.3-0.3l-0.1-0.1l-0.6,0.6l0.1,0.1c0.2,0.2,0.3,0.4,0.5,0.6l0.1,0.1
					c0.5,0.6,0.9,1.1,1.3,1.7c0.1,0.2,0.2,0.4,0.3,0.6l0,0.1c0.2,0.4,0.1,0.8-0.3,1.1c-0.3,0.3-0.7,0.3-1,0.1
					c-0.5-0.4-0.9-0.6-1.4-0.6c-0.5,0-0.9,0.2-1.4,0.6c-0.3,0.2-0.7,0.2-1-0.1C304.7,242.2,304.3,241.7,304.6,241.3z M284.6,234.6
					c0.1,0,0.2,0,0.3,0c0.7-0.1,1-0.1,1.2,0.1c0.2,0.1,0.2,0.5,0.3,1.1c0,0.8,0.1,1.7,0.3,2.6c0.1,0.6,0.3,1.1,0.5,1.7l0,0
					c0,0.1,0.1,0.2,0.1,0.4C286.4,239.7,285.8,238.3,284.6,234.6L284.6,234.6z M291.2,241.4c0,0.2,0,0.5,0,0.7
					c-1.5,0.1-2.8-0.9-3.3-2.4c-0.2-0.7-0.3-1.3-0.4-2c0-0.3-0.1-0.5-0.1-0.8c0-0.2-0.1-0.4-0.1-0.7c0-0.8-0.1-1.6-0.1-2.4l0-0.8
					c1.9,0.4,3.2,1.5,3.7,3.3c0.3,0.9,0.3,1.9,0.4,2.9l0,0c0,0.1,0,0.3,0,0.4C291.2,240.2,291.2,240.8,291.2,241.4z M290,233.2
					l1.7-1.5l1.7,1.5l-1.7,2.7L290,233.2z M292.1,240.7c0-1.5-0.1-3.1,0.5-4.6c0.7-1.8,1.9-2.8,3.7-3.1c-0.1,0.7-0.1,1.5-0.2,2.2
					c-0.1,1.5-0.2,3-0.7,4.5c-0.5,1.5-1.8,2.4-3.3,2.5C292.1,241.6,292.1,241.1,292.1,240.7z M297.4,234.7c0.2,0,0.4,0,0.6,0l0.8,0
					c-0.2,0.6-0.4,1.1-0.6,1.7c-0.5,1.5-1,2.9-2,4c0.7-1.7,0.8-3.5,0.9-5.2C297,234.8,297.1,234.7,297.4,234.7z M279.7,238.8
					L279.7,238.8L279,238l-0.8,1c-0.4-1.4,0.1-2.4,1.5-3.5l0.1-0.1l-0.8-0.8l-0.8,1.2l-0.1,0l0-0.3c0-0.3,0-0.6,0-0.8
					c0-0.3,0-0.5-0.1-0.6c-0.1-0.1-0.3-0.1-0.7,0l-0.1,0v1.7l-0.9-1.1l-0.8,0.8l0.1,0.1c1.3,1,2,2,1.5,3.5l-0.8-1l-0.9,0.7l0.1,0.1
					c1.5,1.2,2,2.3,1.6,3.6c-3.4-1.4-4.7-3.8-3.8-6.9c0.6-2.2,1.9-3.9,3.8-5c0.3-0.2,0.6-0.2,1,0c2.4,1.3,4.3,4.7,4.1,7.4
					c-0.1,0.9-0.4,1.8-1.1,2.5c-0.7,0.9-1.7,1.6-3,2.1C277.8,241.1,278.2,239.9,279.7,238.8z M264.3,241.5c-0.5,0.3-1.2,0.4-1.9,0.3
					c-1.1-0.3-2.1-1.1-2.8-2.2C262,239.1,263.6,239.7,264.3,241.5z M264.2,231.2c-0.7,0.3-1.4,0-2.1-0.9
					C263.1,230.2,263.8,230.5,264.2,231.2z M265.6,241.5c0.7-1.7,2.3-2.4,4.6-2c-0.5,1.1-1.4,1.9-2.4,2.2
					C267,241.9,266.2,241.8,265.6,241.5z M265.6,236.1c0.1-0.4,0.3-0.8,0.7-1.1c0.7-0.5,1.8-0.7,2.8-0.5
					C268.2,236.1,267,236.6,265.6,236.1z M265.6,231.3c0.4-0.7,1.2-1.1,2-0.9C267.1,231.2,266.4,231.5,265.6,231.3z M264.3,236.1
					c-0.6,0.3-1.3,0.3-1.9,0c-0.6-0.3-1.2-0.8-1.7-1.5c1.1-0.2,2.1,0,2.8,0.4C263.9,235.3,264.2,235.7,264.3,236.1z M246.5,238
					L246.5,238l1.8,1.4c-0.4,0.4-0.7,0.4-1.1,0.2c-0.3-0.2-0.6-0.5-0.9-0.7l-0.2-0.1c-0.6-0.5-1.2-1-1.8-1.6l-0.6-0.5
					c0.9-0.7,2.8-0.7,3.9-0.1c0.9,0.5,1.4,1.3,1.3,2.1l-1.9-1.4l0,0L246.5,238z M252.5,236.5L252.5,236.5l-1.5,2l-0.1,0
					c0-0.1,0-0.3-0.1-0.4c-0.1-0.3-0.1-0.6-0.1-0.9c0.3-1.6,1.9-3,3.8-3.2c0.6,0,1.1,0,1.8,0.1c0.2,0,0.5,0,0.7,0.1
					c-0.2,0.2-0.3,0.3-0.5,0.5l0,0c-0.4,0.5-0.8,0.9-1.1,1.3c-0.3,0.4-0.6,0.8-0.9,1.2c-0.3,0.4-0.6,0.9-1,1.3
					c-0.6,0.8-1.1,0.9-1.9,0.5l1.3-2l0,0L252.5,236.5z"/>
			</g>
		</g>
		<g>
			<path class="st1" d="M198.1,245.9v-3c0.8,0.4,1.6,0.8,2.5,0.1c0.6-0.6,0.8-1.3,0.4-2.3l0.1,0c0.1,0,0.3,0.1,0.4,0.1
				c0.7,0.2,1.4,0,1.9-0.6c0.5-0.6,0.6-1.3,0.2-1.9c-0.5-0.8-0.4-1.4,0-2.2c0.3-0.5,0.3-1.1,0-1.6c-0.3-0.5-0.9-0.8-1.5-0.8
				c0,0,0,0,0,0c-0.2,0-0.5,0.1-0.7,0.1c-0.1,0-0.1,0-0.2,0l0,0c0-0.1,0.1-0.2,0.1-0.4c0.2-0.8-0.1-1.4-0.6-1.9
				c-0.6-0.5-1.3-0.6-1.8-0.2c-0.7,0.5-1.3,0.5-2.1,0c-0.6-0.3-1.2-0.3-1.7,0c-0.5,0.4-0.8,1-0.8,1.8c0,0.2,0.1,0.4,0.1,0.6l0,0
				c0,0,0,0.1,0,0.1l-0.1,0c-0.1,0-0.3-0.1-0.4-0.1c-0.8-0.2-1.4,0.1-1.9,0.7c-0.5,0.6-0.5,1.3-0.1,1.9c0.5,0.7,0.5,1.2,0,1.9
				c-0.4,0.6-0.4,1.4,0.2,2c0.5,0.6,1.2,0.8,2,0.6c0.1,0,0.2-0.1,0.3-0.1l0,0c-0.2,0.6-0.4,1.4,0.3,2.2c0.9,1,1.9,0.5,2.7,0.1v3
				h-14.7v-2.8c0.1,0,0.1,0,0.2,0l0,0c0.2,0,0.3,0,0.4-0.1c2.2-0.2,3.8-1.3,4.9-3.2c0.4-0.6,0.6-1.3,0.9-2c0.1-0.2,0.2-0.4,0.2-0.6
				c0.3-0.7,0.5-1.4,0.8-2.1c0.1-0.3,0.3-0.7,0.4-1l0-0.1l-3-0.2l0.4-1.8l-0.2,0c-0.3,0-0.5,0.1-0.8,0.1c-0.6,0.1-1.1,0.1-1.5,0.3
				c-0.6,0.3-1.1,0.2-1.6-0.3c-0.4-0.4-0.9-0.9-1.2-1.2l0,0c-0.1-0.1-0.2-0.3-0.3-0.4l-0.1-0.1l-0.1,0.1c-0.2,0.2-0.4,0.3-0.6,0.5
				c-0.5,0.4-1,0.8-1.5,1.3c-0.4,0.3-0.7,0.4-1.3,0.2c-0.5-0.2-1.1-0.3-1.7-0.4c-0.2,0-0.5-0.1-0.8-0.1l-0.2,0l0.4,1.8l-3.1,0.2l0,0
				l0.1,0.1c0.1,0.3,0.2,0.5,0.3,0.7c0.2,0.5,0.4,0.9,0.6,1.3c0.1,0.4,0.3,0.7,0.4,1.1l0,0c0.1,0.4,0.3,0.8,0.5,1.3
				c1,2.5,2.6,3.9,4.9,4.4c0.3,0.1,0.6,0.1,0.9,0.2c0.1,0,0.3,0,0.4,0.1v2.8h-13.1c0-0.1,0-0.1,0-0.2l0,0c0-0.6,0-1.1,0-1.6
				c0-0.4,0.1-0.5,0.4-0.7c0.6-0.3,1.3-0.7,2-1.2c1.4-1,2.2-2.2,2.5-3.8c0.7-3.5-2.2-7.8-5.1-8.9c-0.2-0.1-0.6-0.1-0.8,0.1
				c-2.7,1.4-4.4,3.7-5,6.8c-0.3,1.8,0.1,3.4,1.3,4.7c0.8,0.8,1.7,1.6,2.7,2.1c0.9,0.5,1.2,0.9,1,1.8c-0.1,0.4,0,0.7,0,1.1l0,0
				c0,0,0,0,0,0h-11.7v-3.4c3.3,0.8,5-1.3,6.4-3.6l0.1-0.1l-0.1,0c-2.5-0.5-4.5-0.7-6.2,1.1v-2.8c2.2,0.5,3.8-0.5,5.2-3.2l0.1-0.1
				l-0.1,0c-1.7-0.4-3.6-0.6-5.1,0.8v-2.3c1.9,0,3.1-0.8,3.8-2.6l0.1-0.1l-0.1,0c-0.2,0-0.5,0-0.7-0.1c-0.5-0.1-1.1-0.1-1.6,0
				c-0.5,0.1-1,0.3-1.5,0.6c-0.2,0.1-0.4,0.2-0.6,0.3c-1-1-2.7-1.3-4.1-0.7l-0.1,0l0.1,0.1c0.9,1.5,1.9,2.7,3.8,2.4v2.3
				c-1.6-1.4-3.4-1.2-5.2-0.8l-0.1,0l0.1,0.1c1.4,2.6,2.9,3.5,5.2,3.2v2.8c-1.9-1.9-4.2-1.5-6.2-1.1l-0.1,0l0.1,0.1
				c1.3,2.9,3.1,3.9,6.3,3.7v3.4h-14.1c0-0.6,0-1.1,0-1.7c0-1.5-0.1-2.9,0.9-4.3c1.2,0.6,2.3,0.2,3.2-1c0.4-0.5,0.7-1,1.1-1.5
				c1-1.5,2-2.4,3.1-3c0.1,0,0.1-0.1,0.1-0.2c0,0,0-0.1,0-0.1l0-0.1l-0.1,0c-0.2-0.1-0.4-0.1-0.6-0.2l0,0c-0.4-0.2-0.9-0.3-1.3-0.4
				c-2.6-0.7-5.3,0.3-6.5,2.5c-0.6,1.2-0.7,2.1-0.2,2.9c0.4,0.6,0.2,1-0.2,1.6c0-0.1-0.1-0.2-0.1-0.3c-0.1-0.3-0.2-0.6-0.2-0.8
				c0.2-0.9,0.1-1.8-0.6-2.5c-0.8-0.9-2-1.5-3.3-1.5c-0.1,0-0.1,0-0.2,0c-1.4,0-2.8,0.6-3.7,1.5l-0.1,0.1l0.1,0.1
				c0.2,0.1,0.5,0.3,0.7,0.4l0,0c0.6,0.4,1.2,0.7,1.7,1.1c0.3,0.2,0.6,0.5,0.9,0.8c0.1,0.1,0.3,0.3,0.4,0.4c0.8,0.8,1.9,1.4,3.2,0.5
				c0.7,1.2,0.6,2.6,0.6,3.8c0,0.6,0,1.2,0,1.9H130v0.9h76v-0.9H198.1z M195,241.3c0.4-0.8,1-1.5,1.4-2.1c0.1-0.2,0.3-0.3,0.5-0.5
				c0.1-0.1,0.2-0.2,0.3-0.3l0.1-0.1l-0.6-0.7l-0.1,0.1c-0.2,0.1-0.3,0.3-0.5,0.4l0,0c-0.3,0.3-0.7,0.7-1,0.9
				c-0.4,0.3-1,0.7-1.6,0.9c-0.4,0.1-0.8,0-1-0.3c-0.2-0.3-0.2-0.6,0-0.9c0.7-1.1,0.7-2,0-2.9c-0.2-0.3-0.2-0.7,0.1-1
				c0.3-0.4,0.8-0.5,1.1-0.2c0.7,0.4,1.4,0.9,2,1.4c0.2,0.1,0.4,0.3,0.5,0.5c0.1,0.1,0.2,0.2,0.3,0.3l0.1,0.1l0.6-0.5l-0.1-0.1
				c-0.2-0.2-0.4-0.5-0.6-0.7c-0.5-0.6-0.9-1.1-1.4-1.7c-0.2-0.2-0.3-0.5-0.3-0.8c-0.1-0.3,0.1-0.6,0.3-0.8c0.2-0.2,0.5-0.3,0.9-0.2
				c0.2,0,0.4,0.1,0.6,0.3c0.7,0.5,1.3,0.5,2,0c0.5-0.4,0.9-0.4,1.3-0.2c0.5,0.3,0.6,0.8,0.3,1.4c-0.4,0.6-0.8,1.2-1.3,1.9
				c-0.2,0.2-0.3,0.3-0.6,0.5c-0.1,0.1-0.2,0.2-0.3,0.2l-0.1,0.1l0.6,0.7l0.1-0.1c0.1-0.1,0.3-0.3,0.5-0.4c0.3-0.3,0.7-0.6,1-0.9
				c0.4-0.3,0.9-0.6,1.4-0.8c0.4-0.2,0.8-0.1,1.2,0.3c0.3,0.3,0.3,0.7,0,1.1c-0.7,0.9-0.7,1.7,0,2.6c0.3,0.3,0.2,0.8,0,1.1
				c-0.3,0.4-0.8,0.5-1.2,0.2c-0.7-0.4-1.4-0.9-2-1.4c-0.2-0.1-0.3-0.3-0.5-0.5c-0.1-0.1-0.2-0.2-0.3-0.3l-0.1-0.1l-0.6,0.6l0.1,0.1
				c0.2,0.2,0.3,0.4,0.5,0.6l0.1,0.1c0.5,0.6,0.9,1.1,1.3,1.7c0.1,0.2,0.2,0.4,0.3,0.6l0,0.1c0.2,0.4,0.1,0.8-0.3,1.1
				c-0.3,0.3-0.7,0.3-1,0.1c-0.5-0.4-0.9-0.6-1.4-0.6c-0.5,0-0.9,0.2-1.4,0.6c-0.3,0.2-0.7,0.2-1-0.1
				C195.1,242.2,194.7,241.7,195,241.3z M175,234.6c0.1,0,0.2,0,0.3,0c0.7-0.1,1-0.1,1.2,0.1c0.2,0.1,0.2,0.5,0.3,1.1
				c0,0.8,0.1,1.7,0.3,2.6c0.1,0.6,0.3,1.1,0.5,1.7l0,0c0,0.1,0.1,0.2,0.1,0.4C176.8,239.7,176.2,238.3,175,234.6L175,234.6z
				 M181.6,241.4c0,0.2,0,0.5,0,0.7c-1.5,0.1-2.8-0.9-3.3-2.4c-0.2-0.7-0.3-1.3-0.4-2c0-0.3-0.1-0.5-0.1-0.8c0-0.2-0.1-0.4-0.1-0.7
				c0-0.8-0.1-1.6-0.1-2.4l0-0.8c1.9,0.4,3.2,1.5,3.7,3.3c0.3,0.9,0.3,1.9,0.4,2.9l0,0c0,0.1,0,0.3,0,0.4
				C181.7,240.2,181.6,240.8,181.6,241.4z M180.4,233.2l1.7-1.5l1.7,1.5l-1.7,2.7L180.4,233.2z M182.5,240.7c0-1.5-0.1-3.1,0.5-4.6
				c0.7-1.8,1.9-2.8,3.7-3.1c-0.1,0.7-0.1,1.5-0.2,2.2c-0.1,1.5-0.2,3-0.7,4.5c-0.5,1.5-1.8,2.4-3.3,2.5
				C182.5,241.6,182.5,241.1,182.5,240.7z M187.8,234.7c0.2,0,0.4,0,0.6,0l0.8,0c-0.2,0.6-0.4,1.1-0.6,1.7c-0.5,1.5-1,2.9-2,4
				c0.7-1.7,0.8-3.5,0.9-5.2C187.4,234.8,187.5,234.7,187.8,234.7z M170.1,238.8L170.1,238.8l-0.7-0.8l-0.8,1
				c-0.4-1.4,0.1-2.4,1.5-3.5l0.1-0.1l-0.8-0.8l-0.8,1.2l-0.1,0l0-0.3c0-0.3,0-0.6,0-0.8c0-0.3,0-0.5-0.1-0.6
				c-0.1-0.1-0.3-0.1-0.7,0l-0.1,0v1.7l-0.9-1.1l-0.8,0.8l0.1,0.1c1.3,1,2,2,1.5,3.5l-0.8-1l-0.9,0.7l0.1,0.1c1.5,1.2,2,2.3,1.6,3.6
				c-3.4-1.4-4.7-3.8-3.8-6.9c0.6-2.2,1.9-3.9,3.8-5c0.3-0.2,0.6-0.2,1,0c2.4,1.3,4.3,4.7,4.1,7.4c-0.1,0.9-0.4,1.8-1.1,2.5
				c-0.7,0.9-1.7,1.6-3,2.1C168.2,241.1,168.6,239.9,170.1,238.8z M154.7,241.5c-0.5,0.3-1.2,0.4-1.9,0.3c-1.1-0.3-2.1-1.1-2.8-2.2
				C152.4,239.1,154,239.7,154.7,241.5z M154.6,231.2c-0.7,0.3-1.4,0-2.1-0.9C153.6,230.2,154.2,230.5,154.6,231.2z M156,241.5
				c0.7-1.7,2.3-2.4,4.6-2c-0.5,1.1-1.4,1.9-2.4,2.2C157.4,241.9,156.6,241.8,156,241.5z M156,236.1c0.1-0.4,0.3-0.8,0.7-1.1
				c0.7-0.5,1.8-0.7,2.8-0.5C158.6,236.1,157.4,236.6,156,236.1z M156.1,231.3c0.4-0.7,1.2-1.1,2-0.9
				C157.6,231.2,156.8,231.5,156.1,231.3z M154.7,236.1c-0.6,0.3-1.3,0.3-1.9,0c-0.6-0.3-1.2-0.8-1.7-1.5c1.1-0.2,2.1,0,2.8,0.4
				C154.3,235.3,154.6,235.7,154.7,236.1z M136.9,238L136.9,238l1.8,1.4c-0.4,0.4-0.7,0.4-1.1,0.2c-0.3-0.2-0.6-0.5-0.9-0.7
				l-0.2-0.1c-0.6-0.5-1.2-1-1.8-1.6l-0.6-0.5c0.9-0.7,2.8-0.7,3.9-0.1c0.9,0.5,1.4,1.3,1.3,2.1l-1.9-1.4l0,0L136.9,238z
				 M142.9,236.5L142.9,236.5l-1.5,2l-0.1,0c0-0.1,0-0.3-0.1-0.4c-0.1-0.3-0.1-0.6-0.1-0.9c0.3-1.6,1.9-3,3.8-3.2
				c0.6,0,1.1,0,1.8,0.1c0.2,0,0.5,0,0.7,0.1c-0.2,0.2-0.3,0.3-0.5,0.5l0,0c-0.4,0.5-0.8,0.9-1.1,1.3c-0.3,0.4-0.6,0.8-0.9,1.2
				c-0.3,0.4-0.6,0.9-1,1.3c-0.6,0.8-1.1,0.9-1.9,0.5l1.3-2l0,0L142.9,236.5z"/>
		</g>
		<g>
			<path class="st1" d="M34.4,245.8C34.4,245.8,34.4,245.8,34.4,245.8l-5.2,0v-3.4c3.3,0.8,5-1.3,6.4-3.6l0.1-0.1l-0.1,0
				c-2.5-0.5-4.5-0.7-6.2,1.1V237c2.2,0.5,3.8-0.5,5.2-3.2l0.1-0.1l-0.1,0c-1.7-0.4-3.6-0.6-5.1,0.8v-2.3c1.9,0,3.1-0.8,3.8-2.6
				l0.1-0.1l-0.1,0c-0.2,0-0.5,0-0.7-0.1c-0.5-0.1-1.1-0.1-1.6,0c-0.5,0.1-1,0.3-1.5,0.6c-0.2,0.1-0.4,0.2-0.6,0.3
				c-1-1-2.7-1.3-4.1-0.7l-0.1,0l0.1,0.1c0.9,1.5,1.9,2.7,3.8,2.4v2.3c-1.6-1.4-3.4-1.2-5.2-0.8l-0.1,0l0.1,0.1
				c1.4,2.6,2.9,3.5,5.2,3.2v2.8c-1.9-1.9-4.2-1.5-6.2-1.1l-0.1,0l0.1,0.1c1.3,2.9,3.1,3.9,6.3,3.7v3.4H14.2c0-0.6,0-1.1,0-1.7
				c0-1.5-0.1-2.9,0.9-4.3c1.2,0.6,2.3,0.2,3.2-1c0.4-0.5,0.7-1,1.1-1.5c1-1.5,2-2.4,3.1-3c0.1,0,0.1-0.1,0.1-0.2c0,0,0-0.1,0-0.1
				l0-0.1l-0.1,0c-0.2-0.1-0.4-0.1-0.6-0.2l0,0c-0.4-0.2-0.9-0.3-1.3-0.4c-2.6-0.7-5.3,0.3-6.5,2.5c-0.6,1.2-0.7,2.1-0.2,2.9
				c0.4,0.6,0.2,1-0.2,1.6c0-0.1-0.1-0.2-0.1-0.3c-0.1-0.3-0.2-0.6-0.2-0.8c0.2-0.9,0.1-1.8-0.6-2.5c-0.8-0.9-2-1.5-3.3-1.5
				c-0.1,0-0.1,0-0.2,0c-1.4,0-2.8,0.6-3.7,1.5l-0.1,0.1l0.1,0.1c0.2,0.1,0.5,0.3,0.7,0.4l0,0c0.6,0.4,1.2,0.7,1.7,1.1
				c0.3,0.2,0.6,0.5,0.9,0.8c0.1,0.1,0.3,0.3,0.4,0.4c0.8,0.8,1.9,1.4,3.2,0.5c0.7,1.2,0.6,2.6,0.6,3.8c0,0.6,0,1.2,0,1.9H8.9v0.9
				h25.6 M28.1,241.3c-0.5,0.3-1.2,0.4-1.9,0.3c-1.1-0.3-2.1-1.1-2.8-2.2C25.8,238.9,27.4,239.6,28.1,241.3z M28.1,231.1
				c-0.7,0.3-1.4,0-2.1-0.9C27,230.1,27.6,230.4,28.1,231.1z M29.4,241.4c0.7-1.7,2.3-2.4,4.6-2c-0.5,1.1-1.4,1.9-2.4,2.2
				C30.8,241.8,30.1,241.7,29.4,241.4z M29.5,236c0.1-0.4,0.3-0.8,0.7-1.1c0.7-0.5,1.8-0.7,2.8-0.5C32,235.9,30.8,236.5,29.5,236z
				 M29.5,231.2c0.4-0.7,1.2-1.1,2-0.9C31,231.1,30.2,231.4,29.5,231.2z M28.1,236c-0.6,0.3-1.3,0.3-1.9,0c-0.6-0.3-1.2-0.8-1.7-1.5
				c1.1-0.2,2.1,0,2.8,0.4C27.7,235.1,28,235.5,28.1,236z M10.3,237.9L10.3,237.9l1.8,1.4c-0.4,0.4-0.7,0.4-1.1,0.2
				c-0.3-0.2-0.6-0.5-0.9-0.7l-0.2-0.1c-0.6-0.5-1.2-1-1.8-1.6l-0.6-0.5c0.9-0.7,2.8-0.7,3.9-0.1c0.9,0.5,1.4,1.3,1.3,2.1l-1.9-1.4
				l0,0L10.3,237.9z M16.3,236.4L16.3,236.4l-1.5,2l-0.1,0c0-0.1,0-0.3-0.1-0.4c-0.1-0.3-0.1-0.6-0.1-0.9c0.3-1.6,1.9-3,3.8-3.2
				c0.6,0,1.1,0,1.8,0.1c0.2,0,0.5,0,0.7,0.1c-0.2,0.2-0.3,0.3-0.5,0.5l0,0c-0.4,0.5-0.8,0.9-1.1,1.3c-0.3,0.4-0.6,0.8-0.9,1.2
				c-0.3,0.4-0.6,0.9-1,1.3c-0.6,0.8-1.1,0.9-1.9,0.5l1.3-2l0,0L16.3,236.4z"/>
		</g>
		<g>
			<circle class="st1" cx="27.6" cy="156.7" r="2.9"/>
		</g>
		<g>
			<circle class="st1" cx="46.6" cy="156.7" r="2.9"/>
		</g>
		<g>
			<rect x="210.4" y="161" class="st1" width="1.6" height="12.2"/>
		</g>
		<g>
			<rect x="210.7" y="234.6" class="st1" width="1.6" height="21.3"/>
		</g>
		<g>
			<path class="st1" d="M353.8,204.4h-3.5l1.1-1.1c0.3-0.3,0.5-0.6,0.7-0.8c0.2-0.2,0.3-0.4,0.4-0.5c0.1-0.1,0.1-0.3,0.1-0.3
				c0-0.1,0-0.2,0-0.2c0-0.1,0-0.1,0-0.2c0-0.1-0.1-0.1-0.1-0.2c0,0-0.1-0.1-0.2-0.1c-0.1,0-0.1,0-0.2,0c-0.2,0-0.3,0.1-0.4,0.2
				c-0.1,0.1-0.1,0.2-0.1,0.4c0,0,0,0.1,0,0.2h-1.2c0-0.3,0-0.5,0.1-0.7s0.2-0.4,0.4-0.5c0.2-0.2,0.3-0.3,0.5-0.3
				c0.2-0.1,0.4-0.1,0.7-0.1c0.2,0,0.5,0,0.7,0.1c0.2,0.1,0.4,0.2,0.5,0.3c0.2,0.1,0.3,0.3,0.4,0.5c0.1,0.2,0.1,0.4,0.1,0.6
				c0,0.2-0.1,0.5-0.2,0.7c-0.1,0.2-0.3,0.4-0.5,0.6l-0.7,0.7h1.4V204.4z"/>
			<path class="st1" d="M354.6,204.4l1.2-1.4h0c-0.1,0.1-0.2,0.1-0.3,0.1c-0.1,0-0.1,0-0.2,0c-0.2,0-0.4,0-0.6-0.1
				c-0.2-0.1-0.3-0.2-0.5-0.3c-0.1-0.1-0.2-0.3-0.3-0.5s-0.1-0.4-0.1-0.6c0-0.2,0-0.4,0.1-0.6c0.1-0.2,0.2-0.4,0.4-0.5
				c0.2-0.1,0.4-0.3,0.6-0.4c0.2-0.1,0.5-0.1,0.8-0.1c0.3,0,0.5,0,0.8,0.1c0.2,0.1,0.4,0.2,0.6,0.3c0.2,0.1,0.3,0.3,0.4,0.5
				c0.1,0.2,0.1,0.4,0.1,0.6c0,0.2-0.1,0.5-0.2,0.8c-0.1,0.3-0.3,0.6-0.5,0.9l-1,1.2H354.6z M356.5,201.5c0-0.1,0-0.2-0.1-0.3
				c0-0.1-0.1-0.2-0.2-0.2c-0.1-0.1-0.1-0.1-0.2-0.2c-0.1,0-0.2-0.1-0.3-0.1c-0.1,0-0.2,0-0.3,0.1c-0.1,0-0.2,0.1-0.2,0.2
				c-0.1,0.1-0.1,0.1-0.2,0.2c0,0.1-0.1,0.2-0.1,0.3c0,0.1,0,0.2,0.1,0.3s0.1,0.2,0.2,0.2c0.1,0.1,0.1,0.1,0.2,0.2
				c0.1,0,0.2,0.1,0.3,0.1c0.1,0,0.2,0,0.3-0.1c0.1,0,0.2-0.1,0.2-0.2c0.1-0.1,0.1-0.1,0.2-0.2S356.5,201.6,356.5,201.5z"/>
			<path class="st1" d="M357.8,203.8c0-0.1,0-0.2,0.1-0.3c0-0.1,0.1-0.2,0.1-0.2c0.1-0.1,0.1-0.1,0.2-0.1c0.1,0,0.2-0.1,0.3-0.1
				c0.1,0,0.2,0,0.3,0.1c0.1,0,0.2,0.1,0.2,0.1c0.1,0.1,0.1,0.1,0.1,0.2c0,0.1,0.1,0.2,0.1,0.3c0,0.1,0,0.2-0.1,0.3
				c0,0.1-0.1,0.2-0.1,0.2c-0.1,0.1-0.1,0.1-0.2,0.1c-0.1,0-0.2,0.1-0.3,0.1c-0.1,0-0.2,0-0.3-0.1c-0.1,0-0.2-0.1-0.2-0.1
				c-0.1-0.1-0.1-0.1-0.1-0.2C357.8,204,357.8,203.9,357.8,203.8z"/>
			<path class="st1" d="M359.4,202.2c0-0.3,0-0.7,0.1-0.9c0.1-0.3,0.2-0.5,0.4-0.7c0.2-0.2,0.4-0.4,0.6-0.5c0.2-0.1,0.5-0.2,0.8-0.2
				c0.3,0,0.5,0.1,0.7,0.2c0.2,0.1,0.4,0.3,0.6,0.5c0.2,0.2,0.3,0.4,0.4,0.7c0.1,0.3,0.1,0.6,0.1,0.9c0,0.3,0,0.7-0.1,0.9
				c-0.1,0.3-0.2,0.5-0.4,0.7c-0.2,0.2-0.4,0.4-0.6,0.5c-0.2,0.1-0.5,0.2-0.7,0.2c-0.3,0-0.5-0.1-0.8-0.2c-0.2-0.1-0.4-0.3-0.6-0.5
				c-0.2-0.2-0.3-0.4-0.4-0.7C359.4,202.8,359.4,202.5,359.4,202.2z M360.5,202.2c0,0.2,0,0.4,0.1,0.5c0,0.2,0.1,0.3,0.1,0.4
				c0.1,0.1,0.1,0.2,0.2,0.3c0.1,0.1,0.2,0.1,0.3,0.1c0.1,0,0.2,0,0.3-0.1s0.2-0.2,0.2-0.3c0.1-0.1,0.1-0.3,0.1-0.4
				c0-0.2,0.1-0.3,0.1-0.5c0-0.2,0-0.4-0.1-0.5c0-0.2-0.1-0.3-0.1-0.4c-0.1-0.1-0.1-0.2-0.2-0.3s-0.2-0.1-0.3-0.1
				c-0.1,0-0.2,0-0.3,0.1c-0.1,0.1-0.2,0.2-0.2,0.3c-0.1,0.1-0.1,0.3-0.1,0.4C360.5,201.8,360.5,202,360.5,202.2z"/>
			<path class="st1" d="M363.3,201.4h1.1v0.4c0.3-0.3,0.6-0.4,1-0.4c0.4,0,0.8,0.2,1,0.6c0.2-0.4,0.6-0.6,1-0.6c0.1,0,0.3,0,0.4,0.1
				c0.1,0,0.2,0.1,0.3,0.2c0.1,0.1,0.2,0.2,0.2,0.3c0.1,0.1,0.1,0.3,0.1,0.5v1.9h-1v-1.5c0-0.2,0-0.3,0-0.4c0-0.1-0.1-0.2-0.1-0.2
				c0-0.1-0.1-0.1-0.1-0.1c-0.1,0-0.1,0-0.2,0c-0.3,0-0.5,0.2-0.5,0.7v1.5h-1.1v-1.5c0-0.2,0-0.3,0-0.4c0-0.1,0-0.2-0.1-0.2
				c0-0.1-0.1-0.1-0.1-0.1c-0.1,0-0.1,0-0.2,0c-0.1,0-0.1,0-0.2,0c-0.1,0-0.1,0.1-0.2,0.1c0,0.1-0.1,0.1-0.1,0.2c0,0.1,0,0.2,0,0.4
				v1.5h-1.1V201.4z"/>
		</g>
		<g>
			<path class="st1" d="M108.1,226.1h-0.6v-1h1.8v4.4h-1.1V226.1z"/>
			<path class="st1" d="M110.4,229c0-0.1,0-0.2,0.1-0.3c0-0.1,0.1-0.2,0.1-0.2c0.1-0.1,0.1-0.1,0.2-0.1c0.1,0,0.2-0.1,0.3-0.1
				c0.1,0,0.2,0,0.3,0.1c0.1,0,0.2,0.1,0.2,0.1c0.1,0.1,0.1,0.1,0.1,0.2c0,0.1,0.1,0.2,0.1,0.3s0,0.2-0.1,0.3c0,0.1-0.1,0.2-0.1,0.2
				c-0.1,0.1-0.1,0.1-0.2,0.1c-0.1,0-0.2,0.1-0.3,0.1c-0.1,0-0.2,0-0.3-0.1c-0.1,0-0.2-0.1-0.2-0.1c-0.1-0.1-0.1-0.1-0.1-0.2
				C110.4,229.2,110.4,229.1,110.4,229z"/>
			<path class="st1" d="M114.1,226.1h-1.8v-1h3.6l-2.5,4.4h-1.3L114.1,226.1z"/>
			<path class="st1" d="M115.9,226.6h1.1v0.4c0.3-0.3,0.6-0.4,1-0.4c0.4,0,0.8,0.2,1,0.6c0.2-0.4,0.6-0.6,1-0.6c0.1,0,0.3,0,0.4,0.1
				c0.1,0,0.2,0.1,0.3,0.2c0.1,0.1,0.2,0.2,0.2,0.3c0.1,0.1,0.1,0.3,0.1,0.5v1.9h-1v-1.5c0-0.2,0-0.3,0-0.4c0-0.1-0.1-0.2-0.1-0.2
				c0-0.1-0.1-0.1-0.1-0.1c-0.1,0-0.1,0-0.2,0c-0.3,0-0.5,0.2-0.5,0.7v1.5h-1.1v-1.5c0-0.2,0-0.3,0-0.4c0-0.1,0-0.2-0.1-0.2
				c0-0.1-0.1-0.1-0.1-0.1c-0.1,0-0.1,0-0.2,0c-0.1,0-0.1,0-0.2,0c-0.1,0-0.1,0.1-0.2,0.1c0,0.1-0.1,0.1-0.1,0.2c0,0.1,0,0.2,0,0.4
				v1.5h-1.1V226.6z"/>
		</g>
		<g>
			<g>
				<rect x="6" y="197.1" class="st1" width="0.5" height="0.5"/>
			</g>
			<g>
				<path class="st1" d="M492.8,197.7h-1v-0.5h1V197.7z M490.7,197.7h-1v-0.5h1V197.7z M488.7,197.7h-1v-0.5h1V197.7z M486.6,197.7
					h-1v-0.5h1V197.7z M484.5,197.7h-1v-0.5h1V197.7z M482.4,197.7h-1v-0.5h1V197.7z M480.3,197.7h-1v-0.5h1V197.7z M478.3,197.7h-1
					v-0.5h1V197.7z M476.2,197.7h-1v-0.5h1V197.7z M474.1,197.7h-1v-0.5h1V197.7z M472,197.7h-1v-0.5h1V197.7z M470,197.7h-1v-0.5h1
					V197.7z M467.9,197.7h-1v-0.5h1V197.7z M465.8,197.7h-1v-0.5h1V197.7z M463.7,197.7h-1v-0.5h1V197.7z M461.6,197.7h-1v-0.5h1
					V197.7z M459.6,197.7h-1v-0.5h1V197.7z M457.5,197.7h-1v-0.5h1V197.7z M455.4,197.7h-1v-0.5h1V197.7z M453.3,197.7h-1v-0.5h1
					V197.7z M451.3,197.7h-1v-0.5h1V197.7z M449.2,197.7h-1v-0.5h1V197.7z M447.1,197.7h-1v-0.5h1V197.7z M445,197.7h-1v-0.5h1
					V197.7z M442.9,197.7h-1v-0.5h1V197.7z M440.9,197.7h-1v-0.5h1V197.7z M438.8,197.7h-1v-0.5h1V197.7z M436.7,197.7h-1v-0.5h1
					V197.7z M434.6,197.7h-1v-0.5h1V197.7z M432.5,197.7h-1v-0.5h1V197.7z M430.5,197.7h-1v-0.5h1V197.7z M428.4,197.7h-1v-0.5h1
					V197.7z M426.3,197.7h-1v-0.5h1V197.7z M424.2,197.7h-1v-0.5h1V197.7z M422.2,197.7h-1v-0.5h1V197.7z M420.1,197.7h-1v-0.5h1
					V197.7z M418,197.7h-1v-0.5h1V197.7z M415.9,197.7h-1v-0.5h1V197.7z M413.8,197.7h-1v-0.5h1V197.7z M411.8,197.7h-1v-0.5h1
					V197.7z M409.7,197.7h-1v-0.5h1V197.7z M407.6,197.7h-1v-0.5h1V197.7z M405.5,197.7h-1v-0.5h1V197.7z M403.5,197.7h-1v-0.5h1
					V197.7z M401.4,197.7h-1v-0.5h1V197.7z M399.3,197.7h-1v-0.5h1V197.7z M397.2,197.7h-1v-0.5h1V197.7z M395.1,197.7h-1v-0.5h1
					V197.7z M393.1,197.7h-1v-0.5h1V197.7z M391,197.7h-1v-0.5h1V197.7z M388.9,197.7h-1v-0.5h1V197.7z M386.8,197.7h-1v-0.5h1
					V197.7z M384.8,197.7h-1v-0.5h1V197.7z M382.7,197.7h-1v-0.5h1V197.7z M380.6,197.7h-1v-0.5h1V197.7z M378.5,197.7h-1v-0.5h1
					V197.7z M376.4,197.7h-1v-0.5h1V197.7z M374.4,197.7h-1v-0.5h1V197.7z M372.3,197.7h-1v-0.5h1V197.7z M370.2,197.7h-1v-0.5h1
					V197.7z M368.1,197.7h-1v-0.5h1V197.7z M366,197.7h-1v-0.5h1V197.7z M364,197.7h-1v-0.5h1V197.7z M361.9,197.7h-1v-0.5h1V197.7z
					 M359.8,197.7h-1v-0.5h1V197.7z M357.7,197.7h-1v-0.5h1V197.7z M355.7,197.7h-1v-0.5h1V197.7z M353.6,197.7h-1v-0.5h1V197.7z
					 M351.5,197.7h-1v-0.5h1V197.7z M349.4,197.7h-1v-0.5h1V197.7z M347.3,197.7h-1v-0.5h1V197.7z M345.3,197.7h-1v-0.5h1V197.7z
					 M343.2,197.7h-1v-0.5h1V197.7z M341.1,197.7h-1v-0.5h1V197.7z M339,197.7h-1v-0.5h1V197.7z M337,197.7h-1v-0.5h1V197.7z
					 M334.9,197.7h-1v-0.5h1V197.7z M332.8,197.7h-1v-0.5h1V197.7z M330.7,197.7h-1v-0.5h1V197.7z M328.6,197.7h-1v-0.5h1V197.7z
					 M326.6,197.7h-1v-0.5h1V197.7z M324.5,197.7h-1v-0.5h1V197.7z M322.4,197.7h-1v-0.5h1V197.7z M320.3,197.7h-1v-0.5h1V197.7z
					 M318.2,197.7h-1v-0.5h1V197.7z M316.2,197.7h-1v-0.5h1V197.7z M314.1,197.7h-1v-0.5h1V197.7z M312,197.7h-1v-0.5h1V197.7z
					 M309.9,197.7h-1v-0.5h1V197.7z M307.9,197.7h-1v-0.5h1V197.7z M305.8,197.7h-1v-0.5h1V197.7z M303.7,197.7h-1v-0.5h1V197.7z
					 M301.6,197.7h-1v-0.5h1V197.7z M299.5,197.7h-1v-0.5h1V197.7z M297.5,197.7h-1v-0.5h1V197.7z M295.4,197.7h-1v-0.5h1V197.7z
					 M293.3,197.7h-1v-0.5h1V197.7z M291.2,197.7h-1v-0.5h1V197.7z M289.2,197.7h-1v-0.5h1V197.7z M287.1,197.7h-1v-0.5h1V197.7z
					 M285,197.7h-1v-0.5h1V197.7z M282.9,197.7h-1v-0.5h1V197.7z M280.8,197.7h-1v-0.5h1V197.7z M278.8,197.7h-1v-0.5h1V197.7z
					 M276.7,197.7h-1v-0.5h1V197.7z M274.6,197.7h-1v-0.5h1V197.7z M272.5,197.7h-1v-0.5h1V197.7z M270.4,197.7h-1v-0.5h1V197.7z
					 M268.4,197.7h-1v-0.5h1V197.7z M266.3,197.7h-1v-0.5h1V197.7z M264.2,197.7h-1v-0.5h1V197.7z M262.1,197.7h-1v-0.5h1V197.7z
					 M260.1,197.7h-1v-0.5h1V197.7z M258,197.7h-1v-0.5h1V197.7z M255.9,197.7h-1v-0.5h1V197.7z M253.8,197.7h-1v-0.5h1V197.7z
					 M251.7,197.7h-1v-0.5h1V197.7z M249.7,197.7h-1v-0.5h1V197.7z M247.6,197.7h-1v-0.5h1V197.7z M245.5,197.7h-1v-0.5h1V197.7z
					 M243.4,197.7h-1v-0.5h1V197.7z M241.4,197.7h-1v-0.5h1V197.7z M239.3,197.7h-1v-0.5h1V197.7z M237.2,197.7h-1v-0.5h1V197.7z
					 M235.1,197.7h-1v-0.5h1V197.7z M233,197.7h-1v-0.5h1V197.7z M231,197.7h-1v-0.5h1V197.7z M228.9,197.7h-1v-0.5h1V197.7z
					 M226.8,197.7h-1v-0.5h1V197.7z M224.7,197.7h-1v-0.5h1V197.7z M222.7,197.7h-1v-0.5h1V197.7z M220.6,197.7h-1v-0.5h1V197.7z
					 M218.5,197.7h-1v-0.5h1V197.7z M216.4,197.7h-1v-0.5h1V197.7z M214.3,197.7h-1v-0.5h1V197.7z M212.3,197.7h-1v-0.5h1V197.7z
					 M210.2,197.7h-1v-0.5h1V197.7z M208.1,197.7h-1v-0.5h1V197.7z M206,197.7h-1v-0.5h1V197.7z M203.9,197.7h-1v-0.5h1V197.7z
					 M201.9,197.7h-1v-0.5h1V197.7z M199.8,197.7h-1v-0.5h1V197.7z M197.7,197.7h-1v-0.5h1V197.7z M195.6,197.7h-1v-0.5h1V197.7z
					 M193.6,197.7h-1v-0.5h1V197.7z M191.5,197.7h-1v-0.5h1V197.7z M189.4,197.7h-1v-0.5h1V197.7z M187.3,197.7h-1v-0.5h1V197.7z
					 M185.2,197.7h-1v-0.5h1V197.7z M183.2,197.7h-1v-0.5h1V197.7z M181.1,197.7h-1v-0.5h1V197.7z M179,197.7h-1v-0.5h1V197.7z
					 M176.9,197.7h-1v-0.5h1V197.7z M174.9,197.7h-1v-0.5h1V197.7z M172.8,197.7h-1v-0.5h1V197.7z M170.7,197.7h-1v-0.5h1V197.7z
					 M168.6,197.7h-1v-0.5h1V197.7z M166.5,197.7h-1v-0.5h1V197.7z M164.5,197.7h-1v-0.5h1V197.7z M162.4,197.7h-1v-0.5h1V197.7z
					 M160.3,197.7h-1v-0.5h1V197.7z M158.2,197.7h-1v-0.5h1V197.7z M156.1,197.7h-1v-0.5h1V197.7z M154.1,197.7h-1v-0.5h1V197.7z
					 M152,197.7h-1v-0.5h1V197.7z M149.9,197.7h-1v-0.5h1V197.7z M147.8,197.7h-1v-0.5h1V197.7z M145.8,197.7h-1v-0.5h1V197.7z
					 M143.7,197.7h-1v-0.5h1V197.7z M141.6,197.7h-1v-0.5h1V197.7z M139.5,197.7h-1v-0.5h1V197.7z M137.4,197.7h-1v-0.5h1V197.7z
					 M135.4,197.7h-1v-0.5h1V197.7z M133.3,197.7h-1v-0.5h1V197.7z M131.2,197.7h-1v-0.5h1V197.7z M129.1,197.7h-1v-0.5h1V197.7z
					 M127.1,197.7h-1v-0.5h1V197.7z M125,197.7h-1v-0.5h1V197.7z M122.9,197.7h-1v-0.5h1V197.7z M120.8,197.7h-1v-0.5h1V197.7z
					 M118.7,197.7h-1v-0.5h1V197.7z M116.7,197.7h-1v-0.5h1V197.7z M114.6,197.7h-1v-0.5h1V197.7z M112.5,197.7h-1v-0.5h1V197.7z
					 M110.4,197.7h-1v-0.5h1V197.7z M108.3,197.7h-1v-0.5h1V197.7z M106.3,197.7h-1v-0.5h1V197.7z M104.2,197.7h-1v-0.5h1V197.7z
					 M102.1,197.7h-1v-0.5h1V197.7z M100,197.7h-1v-0.5h1V197.7z M98,197.7h-1v-0.5h1V197.7z M95.9,197.7h-1v-0.5h1V197.7z
					 M93.8,197.7h-1v-0.5h1V197.7z M91.7,197.7h-1v-0.5h1V197.7z M89.6,197.7h-1v-0.5h1V197.7z M87.6,197.7h-1v-0.5h1V197.7z
					 M85.5,197.7h-1v-0.5h1V197.7z M83.4,197.7h-1v-0.5h1V197.7z M81.3,197.7h-1v-0.5h1V197.7z M79.3,197.7h-1v-0.5h1V197.7z
					 M77.2,197.7h-1v-0.5h1V197.7z M75.1,197.7h-1v-0.5h1V197.7z M73,197.7h-1v-0.5h1V197.7z M70.9,197.7h-1v-0.5h1V197.7z
					 M68.9,197.7h-1v-0.5h1V197.7z M66.8,197.7h-1v-0.5h1V197.7z M64.7,197.7h-1v-0.5h1V197.7z M62.6,197.7h-1v-0.5h1V197.7z
					 M60.6,197.7h-1v-0.5h1V197.7z M58.5,197.7h-1v-0.5h1V197.7z M56.4,197.7h-1v-0.5h1V197.7z M54.3,197.7h-1v-0.5h1V197.7z
					 M52.2,197.7h-1v-0.5h1V197.7z M50.2,197.7h-1v-0.5h1V197.7z M48.1,197.7h-1v-0.5h1V197.7z M46,197.7h-1v-0.5h1V197.7z
					 M43.9,197.7h-1v-0.5h1V197.7z M41.8,197.7h-1v-0.5h1V197.7z M39.8,197.7h-1v-0.5h1V197.7z M37.7,197.7h-1v-0.5h1V197.7z
					 M35.6,197.7h-1v-0.5h1V197.7z M33.5,197.7h-1v-0.5h1V197.7z M31.5,197.7h-1v-0.5h1V197.7z M29.4,197.7h-1v-0.5h1V197.7z
					 M27.3,197.7h-1v-0.5h1V197.7z M25.2,197.7h-1v-0.5h1V197.7z M23.1,197.7h-1v-0.5h1V197.7z M21.1,197.7h-1v-0.5h1V197.7z
					 M19,197.7h-1v-0.5h1V197.7z M16.9,197.7h-1v-0.5h1V197.7z M14.8,197.7h-1v-0.5h1V197.7z M12.8,197.7h-1v-0.5h1V197.7z
					 M10.7,197.7h-1v-0.5h1V197.7z M8.6,197.7h-1v-0.5h1V197.7z"/>
			</g>
			<g>
				<rect x="493.9" y="197.1" class="st1" width="0.5" height="0.5"/>
			</g>
			<g>
				<g>
					<polygon class="st1" points="6.4,198.7 4.1,197.4 6.4,196.1 					"/>
				</g>
			</g>
			<g>
				<g>
					<polygon class="st1" points="494,198.7 496.2,197.4 494,196.1 					"/>
				</g>
			</g>
		</g>
		<g>
			<path class="st1" d="M476.3,128h-0.6v-1h1.8v4.4h-1.1V128z"/>
			<path class="st1" d="M478.4,129.2c0-0.3,0-0.7,0.1-0.9c0.1-0.3,0.2-0.5,0.4-0.7c0.2-0.2,0.4-0.4,0.6-0.5c0.2-0.1,0.5-0.2,0.8-0.2
				c0.3,0,0.5,0.1,0.7,0.2c0.2,0.1,0.4,0.3,0.6,0.5c0.2,0.2,0.3,0.4,0.4,0.7c0.1,0.3,0.1,0.6,0.1,0.9c0,0.3,0,0.7-0.1,0.9
				c-0.1,0.3-0.2,0.5-0.4,0.7c-0.2,0.2-0.4,0.4-0.6,0.5c-0.2,0.1-0.5,0.2-0.7,0.2c-0.3,0-0.5-0.1-0.8-0.2c-0.2-0.1-0.4-0.3-0.6-0.5
				c-0.2-0.2-0.3-0.4-0.4-0.7C478.4,129.8,478.4,129.5,478.4,129.2z M479.5,129.2c0,0.2,0,0.4,0.1,0.5c0,0.2,0.1,0.3,0.1,0.4
				s0.1,0.2,0.2,0.3c0.1,0.1,0.2,0.1,0.3,0.1c0.1,0,0.2,0,0.3-0.1s0.2-0.2,0.2-0.3c0.1-0.1,0.1-0.3,0.1-0.4c0-0.2,0.1-0.3,0.1-0.5
				c0-0.2,0-0.4-0.1-0.5c0-0.2-0.1-0.3-0.1-0.4c-0.1-0.1-0.1-0.2-0.2-0.3c-0.1-0.1-0.2-0.1-0.3-0.1c-0.1,0-0.2,0-0.3,0.1
				c-0.1,0.1-0.2,0.2-0.2,0.3s-0.1,0.3-0.1,0.4C479.5,128.8,479.5,129,479.5,129.2z"/>
			<path class="st1" d="M482.3,130.8c0-0.1,0-0.2,0.1-0.3c0-0.1,0.1-0.2,0.1-0.2c0.1-0.1,0.1-0.1,0.2-0.1c0.1,0,0.2-0.1,0.3-0.1
				c0.1,0,0.2,0,0.3,0.1c0.1,0,0.2,0.1,0.2,0.1c0.1,0.1,0.1,0.1,0.1,0.2c0,0.1,0.1,0.2,0.1,0.3c0,0.1,0,0.2-0.1,0.3
				c0,0.1-0.1,0.2-0.1,0.2c-0.1,0.1-0.1,0.1-0.2,0.1c-0.1,0-0.2,0.1-0.3,0.1c-0.1,0-0.2,0-0.3-0.1c-0.1,0-0.2-0.1-0.2-0.1
				c-0.1-0.1-0.1-0.1-0.1-0.2C482.3,131,482.3,130.9,482.3,130.8z"/>
			<path class="st1" d="M487,129.6h0.5v0.9H487v0.9h-1.1v-0.9h-2.1v-0.7l1.7-2.7h1.5V129.6z M485.9,129.6v-1.7l-1,1.7H485.9z"/>
			<path class="st1" d="M487.8,128.4h1.1v0.4c0.3-0.3,0.6-0.4,1-0.4c0.4,0,0.8,0.2,1,0.6c0.2-0.4,0.6-0.6,1-0.6c0.1,0,0.3,0,0.4,0.1
				c0.1,0,0.2,0.1,0.3,0.2c0.1,0.1,0.2,0.2,0.2,0.3c0.1,0.1,0.1,0.3,0.1,0.5v1.9h-1v-1.5c0-0.2,0-0.3,0-0.4c0-0.1-0.1-0.2-0.1-0.2
				c0-0.1-0.1-0.1-0.1-0.1c-0.1,0-0.1,0-0.2,0c-0.3,0-0.5,0.2-0.5,0.7v1.5h-1.1v-1.5c0-0.2,0-0.3,0-0.4c0-0.1,0-0.2-0.1-0.2
				c0-0.1-0.1-0.1-0.1-0.1s-0.1,0-0.2,0c-0.1,0-0.1,0-0.2,0c-0.1,0-0.1,0.1-0.2,0.1c0,0.1-0.1,0.1-0.1,0.2c0,0.1,0,0.2,0,0.4v1.5
				h-1.1V128.4z"/>
		</g>
		<g>
			<g>
				<rect x="472.5" y="9.7" class="st1" width="0.5" height="0.5"/>
			</g>
			<g>
				<path class="st1" d="M473,248.8h-0.5v-1h0.5V248.8z M473,246.7h-0.5v-1h0.5V246.7z M473,244.6h-0.5v-1h0.5V244.6z M473,242.5
					h-0.5v-1h0.5V242.5z M473,240.5h-0.5v-1h0.5V240.5z M473,238.4h-0.5v-1h0.5V238.4z M473,236.3h-0.5v-1h0.5V236.3z M473,234.2
					h-0.5v-1h0.5V234.2z M473,232.2h-0.5v-1h0.5V232.2z M473,230.1h-0.5v-1h0.5V230.1z M473,228h-0.5v-1h0.5V228z M473,225.9h-0.5
					v-1h0.5V225.9z M473,223.9h-0.5v-1h0.5V223.9z M473,221.8h-0.5v-1h0.5V221.8z M473,219.7h-0.5v-1h0.5V219.7z M473,217.7h-0.5v-1
					h0.5V217.7z M473,215.6h-0.5v-1h0.5V215.6z M473,213.5h-0.5v-1h0.5V213.5z M473,211.4h-0.5v-1h0.5V211.4z M473,209.4h-0.5v-1
					h0.5V209.4z M473,207.3h-0.5v-1h0.5V207.3z M473,205.2h-0.5v-1h0.5V205.2z M473,203.1h-0.5v-1h0.5V203.1z M473,201.1h-0.5v-1
					h0.5V201.1z M473,199h-0.5v-1h0.5V199z M473,196.9h-0.5v-1h0.5V196.9z M473,194.8h-0.5v-1h0.5V194.8z M473,192.8h-0.5v-1h0.5
					V192.8z M473,190.7h-0.5v-1h0.5V190.7z M473,188.6h-0.5v-1h0.5V188.6z M473,186.5h-0.5v-1h0.5V186.5z M473,184.5h-0.5v-1h0.5
					V184.5z M473,182.4h-0.5v-1h0.5V182.4z M473,180.3h-0.5v-1h0.5V180.3z M473,178.2h-0.5v-1h0.5V178.2z M473,176.2h-0.5v-1h0.5
					V176.2z M473,174.1h-0.5v-1h0.5V174.1z M473,172h-0.5v-1h0.5V172z M473,169.9h-0.5v-1h0.5V169.9z M473,167.9h-0.5v-1h0.5V167.9z
					 M473,165.8h-0.5v-1h0.5V165.8z M473,163.7h-0.5v-1h0.5V163.7z M473,161.7h-0.5v-1h0.5V161.7z M473,159.6h-0.5v-1h0.5V159.6z
					 M473,157.5h-0.5v-1h0.5V157.5z M473,155.4h-0.5v-1h0.5V155.4z M473,153.4h-0.5v-1h0.5V153.4z M473,151.3h-0.5v-1h0.5V151.3z
					 M473,149.2h-0.5v-1h0.5V149.2z M473,147.1h-0.5v-1h0.5V147.1z M473,145.1h-0.5v-1h0.5V145.1z M473,143h-0.5v-1h0.5V143z
					 M473,140.9h-0.5v-1h0.5V140.9z M473,138.8h-0.5v-1h0.5V138.8z M473,136.8h-0.5v-1h0.5V136.8z M473,134.7h-0.5v-1h0.5V134.7z
					 M473,132.6h-0.5v-1h0.5V132.6z M473,130.5h-0.5v-1h0.5V130.5z M473,128.5h-0.5v-1h0.5V128.5z M473,126.4h-0.5v-1h0.5V126.4z
					 M473,124.3h-0.5v-1h0.5V124.3z M473,122.2h-0.5v-1h0.5V122.2z M473,120.2h-0.5v-1h0.5V120.2z M473,118.1h-0.5v-1h0.5V118.1z
					 M473,116h-0.5v-1h0.5V116z M473,113.9h-0.5v-1h0.5V113.9z M473,111.9h-0.5v-1h0.5V111.9z M473,109.8h-0.5v-1h0.5V109.8z
					 M473,107.7h-0.5v-1h0.5V107.7z M473,105.6h-0.5v-1h0.5V105.6z M473,103.6h-0.5v-1h0.5V103.6z M473,101.5h-0.5v-1h0.5V101.5z
					 M473,99.4h-0.5v-1h0.5V99.4z M473,97.4h-0.5v-1h0.5V97.4z M473,95.3h-0.5v-1h0.5V95.3z M473,93.2h-0.5v-1h0.5V93.2z M473,91.1
					h-0.5v-1h0.5V91.1z M473,89.1h-0.5v-1h0.5V89.1z M473,87h-0.5v-1h0.5V87z M473,84.9h-0.5v-1h0.5V84.9z M473,82.8h-0.5v-1h0.5
					V82.8z M473,80.8h-0.5v-1h0.5V80.8z M473,78.7h-0.5v-1h0.5V78.7z M473,76.6h-0.5v-1h0.5V76.6z M473,74.5h-0.5v-1h0.5V74.5z
					 M473,72.5h-0.5v-1h0.5V72.5z M473,70.4h-0.5v-1h0.5V70.4z M473,68.3h-0.5v-1h0.5V68.3z M473,66.2h-0.5v-1h0.5V66.2z M473,64.2
					h-0.5v-1h0.5V64.2z M473,62.1h-0.5v-1h0.5V62.1z M473,60h-0.5v-1h0.5V60z M473,57.9h-0.5v-1h0.5V57.9z M473,55.9h-0.5v-1h0.5
					V55.9z M473,53.8h-0.5v-1h0.5V53.8z M473,51.7h-0.5v-1h0.5V51.7z M473,49.6h-0.5v-1h0.5V49.6z M473,47.6h-0.5v-1h0.5V47.6z
					 M473,45.5h-0.5v-1h0.5V45.5z M473,43.4h-0.5v-1h0.5V43.4z M473,41.3h-0.5v-1h0.5V41.3z M473,39.3h-0.5v-1h0.5V39.3z M473,37.2
					h-0.5v-1h0.5V37.2z M473,35.1h-0.5v-1h0.5V35.1z M473,33.1h-0.5v-1h0.5V33.1z M473,31h-0.5v-1h0.5V31z M473,28.9h-0.5v-1h0.5
					V28.9z M473,26.8h-0.5v-1h0.5V26.8z M473,24.8h-0.5v-1h0.5V24.8z M473,22.7h-0.5v-1h0.5V22.7z M473,20.6h-0.5v-1h0.5V20.6z
					 M473,18.5h-0.5v-1h0.5V18.5z M473,16.5h-0.5v-1h0.5V16.5z M473,14.4h-0.5v-1h0.5V14.4z M473,12.3h-0.5v-1h0.5V12.3z"/>
			</g>
			<g>
				<rect x="472.5" y="249.8" class="st1" width="0.5" height="0.5"/>
			</g>
			<g>
				<g>
					<polygon class="st1" points="471.5,10.1 472.8,7.9 474,10.1 					"/>
				</g>
			</g>
			<g>
				<g>
					<polygon class="st1" points="471.5,249.9 472.8,252.2 474,249.9 					"/>
				</g>
			</g>
		</g>
		<g>
			<g>
				<rect x="124.3" y="218.6" class="st1" width="0.5" height="0.5"/>
			</g>
			<g>
				<path class="st1" d="M124.8,248.7h-0.5v-1.1h0.5V248.7z M124.8,246.6h-0.5v-1.1h0.5V246.6z M124.8,244.5h-0.5v-1.1h0.5V244.5z
					 M124.8,242.4h-0.5v-1.1h0.5V242.4z M124.8,240.3h-0.5v-1.1h0.5V240.3z M124.8,238.2h-0.5v-1.1h0.5V238.2z M124.8,236.1h-0.5
					V235h0.5V236.1z M124.8,233.9h-0.5v-1.1h0.5V233.9z M124.8,231.8h-0.5v-1.1h0.5V231.8z M124.8,229.7h-0.5v-1.1h0.5V229.7z
					 M124.8,227.6h-0.5v-1.1h0.5V227.6z M124.8,225.5h-0.5v-1.1h0.5V225.5z M124.8,223.4h-0.5v-1.1h0.5V223.4z M124.8,221.3h-0.5
					v-1.1h0.5V221.3z"/>
			</g>
			<g>
				<rect x="124.3" y="249.8" class="st1" width="0.5" height="0.5"/>
			</g>
			<g>
				<g>
					<polygon class="st1" points="123.3,219 124.6,216.8 125.9,219 					"/>
				</g>
			</g>
			<g>
				<g>
					<polygon class="st1" points="123.3,249.9 124.6,252.2 125.9,249.9 					"/>
				</g>
			</g>
		</g>
	</g>
</g>
</svg>
