<?xml version="1.0" encoding="utf-8"?>
<!-- Generator: Adobe Illustrator 22.1.0, SVG Export Plug-In . SVG Version: 6.00 Build 0)  -->
<svg version="1.1" id="Layer_1" xmlns="http://www.w3.org/2000/svg" xmlns:xlink="http://www.w3.org/1999/xlink" x="0px" y="0px"
	 viewBox="0 0 500 260" style="enable-background:new 0 0 500 260;" xml:space="preserve">
<style type="text/css">
	.st0{fill:#DE699D;}
	.st1{fill:#DE699D;stroke:#050000;stroke-width:3;stroke-linecap:square;stroke-miterlimit:10;}
</style>
<g>
	<g>
		<polygon class="st0" points="499.8,256.6 210.4,256.6 210.4,184.5 194.1,184.5 194.1,182.9 212,182.9 212,255 498.2,255 
			498.2,5.5 210.1,5.5 210.1,75 208.6,75 208.6,3.9 499.8,3.9 		"/>
	</g>
	<g>
		<rect x="40.8" y="3.9" class="st0" width="171.2" height="1.6"/>
	</g>
	<g>
		<polygon class="st0" points="150.6,257.5 0.8,257.5 0.8,255.9 149.1,255.9 149.1,182.9 168.7,182.9 168.7,184.5 150.6,184.5 		"/>
	</g>
	<g>
		<rect x="0.8" y="229.8" class="st0" width="80.4" height="1.6"/>
	</g>
	<g>
		<polygon class="st0" points="2.4,172 0.8,172 0.8,114.8 40.8,114.8 40.8,5.9 42.4,5.9 42.4,116.4 2.4,116.4 		"/>
	</g>
	<g>
		<polygon class="st0" points="104.3,182.6 94.1,182.6 94.1,181 102.8,181 102.8,104.8 40.8,104.8 40.8,103.3 104.3,103.3 		"/>
	</g>
	<g>
		<polygon class="st0" points="41.5,144.9 1,144.9 1,143.3 40,143.3 40,136 41.5,136 		"/>
	</g>
	<g>
		<path class="st1" d="M7.4,181.8"/>
	</g>
	<g>
		<rect x="64.9" y="103.4" class="st0" width="1.6" height="23.2"/>
	</g>
	<g>
		<polygon class="st0" points="75,182.6 64.9,182.6 64.9,143.3 104.3,143.3 104.3,144.9 66.5,144.9 66.5,181 75,181 		"/>
	</g>
	<g>
		<rect x="102.1" y="229.8" class="st0" width="1.6" height="26.8"/>
	</g>
	<g>
		<rect x="149.1" y="239.5" class="st0" width="63" height="1.6"/>
	</g>
	<g>
		<rect x="149.1" y="163.6" class="st0" width="1.6" height="20.8"/>
	</g>
	<g>
		<rect x="149.1" y="55.7" class="st0" width="1.6" height="44.3"/>
	</g>
	<g>
		<rect x="129.1" y="55.7" class="st0" width="81.1" height="1.6"/>
	</g>
	<g>
		<rect x="80" y="55.7" class="st0" width="31.8" height="1.6"/>
	</g>
	<g>
		<rect x="102.8" y="3.9" class="st0" width="1.6" height="53.3"/>
	</g>
	<g>
		<path class="st1" d="M1.6,171.1"/>
	</g>
	<g>
		<rect x="136.7" y="30.4" class="st0" width="48.2" height="1.6"/>
	</g>
	<g>
		<rect x="174.2" y="5.8" class="st0" width="0.5" height="25.7"/>
	</g>
	<g>
		<rect x="183.9" y="4.4" class="st0" width="0.5" height="25.7"/>
	</g>
	<g>
		<rect x="179.3" y="5.8" class="st0" width="0.5" height="25.7"/>
	</g>
	<g>
		<rect x="174.2" y="31.7" class="st0" width="0.5" height="25.7"/>
	</g>
	<g>
		<rect x="183.9" y="30.3" class="st0" width="0.5" height="25.7"/>
	</g>
	<g>
		<rect x="179.3" y="31.7" class="st0" width="0.5" height="25.7"/>
	</g>
	<g>
		<rect x="159.7" y="31.7" class="st0" width="0.5" height="25.7"/>
	</g>
	<g>
		<rect x="169.4" y="30.3" class="st0" width="0.5" height="25.7"/>
	</g>
	<g>
		<rect x="164.7" y="31.7" class="st0" width="0.5" height="25.7"/>
	</g>
	<g>
		<rect x="50.7" y="231.7" class="st0" width="0.5" height="25.7"/>
	</g>
	<g>
		<rect x="60.4" y="230.3" class="st0" width="0.5" height="25.7"/>
	</g>
	<g>
		<rect x="55.8" y="231.7" class="st0" width="0.5" height="25.7"/>
	</g>
	<g>
		<rect x="35.8" y="231" class="st0" width="0.5" height="25.7"/>
	</g>
	<g>
		<rect x="45.4" y="229.7" class="st0" width="0.5" height="25.7"/>
	</g>
	<g>
		<rect x="40.8" y="231" class="st0" width="0.5" height="25.7"/>
	</g>
	<g>
		<rect x="21.2" y="231" class="st0" width="0.5" height="25.7"/>
	</g>
	<g>
		<rect x="30.9" y="229.7" class="st0" width="0.5" height="25.7"/>
	</g>
	<g>
		<rect x="26.2" y="231" class="st0" width="0.5" height="25.7"/>
	</g>
	<g>
		<polygon class="st0" points="2.4,257.2 0.8,257.2 0.8,170.9 40,170.9 40,162.9 41.5,162.9 41.5,172.4 2.4,172.4 		"/>
	</g>
	<g>
		<polygon class="st0" points="188.7,79.4 178,71.3 167.8,78.7 157.5,71.2 149.6,71 149.6,70.5 157.6,70.7 157.7,70.8 167.8,78.1 
			178,70.7 188.7,78.8 199.6,70.6 199.9,71 		"/>
	</g>
	<g>
		<path class="st0" d="M133.6,41.9c-0.2-0.1-0.3-0.2-0.5-0.3c-0.2-0.1-0.3-0.1-0.5-0.1c-0.2,0-0.4,0-0.5,0.1
			c-0.1,0.1-0.2,0.2-0.2,0.4c0,0.1,0,0.2,0.1,0.3c0.1,0.1,0.1,0.1,0.2,0.2c0.1,0,0.2,0.1,0.3,0.1c0.1,0,0.2,0.1,0.4,0.1
			c0.5,0.2,0.8,0.4,1.1,0.7c0.2,0.3,0.3,0.6,0.3,1.1c0,0.3,0,0.6-0.1,0.8c-0.1,0.2-0.2,0.4-0.4,0.6c-0.2,0.2-0.4,0.3-0.7,0.4
			c-0.3,0.1-0.6,0.1-0.9,0.1c-0.7,0-1.4-0.2-2-0.6l0.6-1.2c0.2,0.2,0.4,0.3,0.7,0.4c0.2,0.1,0.4,0.1,0.6,0.1c0.2,0,0.4-0.1,0.5-0.2
			c0.1-0.1,0.2-0.2,0.2-0.4c0-0.1,0-0.2,0-0.2c0-0.1-0.1-0.1-0.2-0.2c-0.1-0.1-0.2-0.1-0.3-0.1c-0.1,0-0.3-0.1-0.4-0.2
			c-0.2-0.1-0.4-0.1-0.6-0.2c-0.2-0.1-0.4-0.2-0.5-0.3c-0.1-0.1-0.3-0.3-0.4-0.5c-0.1-0.2-0.1-0.4-0.1-0.7c0-0.3,0-0.5,0.1-0.8
			c0.1-0.2,0.2-0.4,0.4-0.6c0.2-0.2,0.4-0.3,0.6-0.4c0.2-0.1,0.5-0.1,0.8-0.1c0.3,0,0.6,0,0.9,0.1s0.6,0.2,0.9,0.3L133.6,41.9z"/>
		<path class="st0" d="M137.3,41.7v4.5h-1.5v-4.5h-1.2v-1.3h4v1.3H137.3z"/>
		<path class="st0" d="M142.2,45.2H140l-0.3,1h-1.6l2.2-5.8h1.6l2.2,5.8h-1.6L142.2,45.2z M141.8,44l-0.7-1.9l-0.7,1.9H141.8z"/>
		<path class="st0" d="M146,40.4v5.8h-1.5v-5.8H146z"/>
		<path class="st0" d="M151.7,46.2h-1.9l-1.4-2.2v2.2h-1.5v-5.8h2.3c0.3,0,0.6,0,0.8,0.1c0.2,0.1,0.4,0.2,0.6,0.4s0.3,0.4,0.4,0.6
			c0.1,0.2,0.1,0.4,0.1,0.7c0,0.4-0.1,0.8-0.3,1.1c-0.2,0.3-0.5,0.5-0.9,0.6L151.7,46.2z M148.4,43h0.3c0.3,0,0.5-0.1,0.7-0.2
			s0.2-0.3,0.2-0.5c0-0.2-0.1-0.4-0.2-0.5c-0.2-0.1-0.4-0.2-0.7-0.2h-0.3V43z"/>
		<path class="st0" d="M155.1,41.9c-0.2-0.1-0.3-0.2-0.5-0.3c-0.2-0.1-0.3-0.1-0.5-0.1c-0.2,0-0.4,0-0.5,0.1
			c-0.1,0.1-0.2,0.2-0.2,0.4c0,0.1,0,0.2,0.1,0.3c0.1,0.1,0.1,0.1,0.2,0.2c0.1,0,0.2,0.1,0.3,0.1c0.1,0,0.2,0.1,0.4,0.1
			c0.5,0.2,0.8,0.4,1.1,0.7c0.2,0.3,0.3,0.6,0.3,1.1c0,0.3,0,0.6-0.1,0.8c-0.1,0.2-0.2,0.4-0.4,0.6c-0.2,0.2-0.4,0.3-0.7,0.4
			c-0.3,0.1-0.6,0.1-0.9,0.1c-0.7,0-1.4-0.2-2-0.6l0.6-1.2c0.2,0.2,0.4,0.3,0.7,0.4c0.2,0.1,0.4,0.1,0.6,0.1c0.2,0,0.4-0.1,0.5-0.2
			c0.1-0.1,0.2-0.2,0.2-0.4c0-0.1,0-0.2,0-0.2c0-0.1-0.1-0.1-0.2-0.2c-0.1-0.1-0.2-0.1-0.3-0.1c-0.1,0-0.3-0.1-0.4-0.2
			c-0.2-0.1-0.4-0.1-0.6-0.2c-0.2-0.1-0.4-0.2-0.5-0.3c-0.1-0.1-0.3-0.3-0.4-0.5c-0.1-0.2-0.1-0.4-0.1-0.7c0-0.3,0-0.5,0.1-0.8
			c0.1-0.2,0.2-0.4,0.4-0.6c0.2-0.2,0.4-0.3,0.6-0.4c0.2-0.1,0.5-0.1,0.8-0.1c0.3,0,0.6,0,0.9,0.1c0.3,0.1,0.6,0.2,0.9,0.3
			L155.1,41.9z"/>
	</g>
	<g>
		<path class="st0" d="M331.7,124.2v6.7h2.7v1.9h-4.9v-8.6H331.7z"/>
		<path class="st0" d="M335.3,131.7c0-0.2,0-0.4,0.1-0.5c0.1-0.2,0.2-0.3,0.3-0.4c0.1-0.1,0.3-0.2,0.4-0.3c0.2-0.1,0.3-0.1,0.5-0.1
			c0.2,0,0.4,0,0.5,0.1c0.2,0.1,0.3,0.2,0.4,0.3c0.1,0.1,0.2,0.3,0.3,0.4c0.1,0.2,0.1,0.3,0.1,0.5c0,0.2,0,0.4-0.1,0.5
			c-0.1,0.2-0.2,0.3-0.3,0.4c-0.1,0.1-0.3,0.2-0.4,0.3c-0.2,0.1-0.3,0.1-0.5,0.1c-0.2,0-0.4,0-0.5-0.1c-0.2-0.1-0.3-0.2-0.4-0.3
			c-0.1-0.1-0.2-0.3-0.3-0.4C335.3,132.1,335.3,131.9,335.3,131.7z"/>
		<path class="st0" d="M344,126.4c-0.2-0.2-0.5-0.3-0.7-0.4c-0.2-0.1-0.5-0.1-0.7-0.1c-0.3,0-0.5,0.1-0.7,0.2
			c-0.2,0.1-0.3,0.3-0.3,0.5c0,0.2,0,0.3,0.1,0.4c0.1,0.1,0.2,0.2,0.4,0.3c0.1,0.1,0.3,0.1,0.5,0.2c0.2,0.1,0.4,0.1,0.6,0.2
			c0.7,0.2,1.3,0.6,1.6,1c0.3,0.4,0.5,0.9,0.5,1.6c0,0.4-0.1,0.8-0.2,1.2c-0.1,0.4-0.4,0.7-0.7,0.9c-0.3,0.3-0.6,0.5-1.1,0.6
			c-0.4,0.1-0.9,0.2-1.4,0.2c-1.1,0-2.1-0.3-3-1l1-1.8c0.3,0.3,0.7,0.5,1,0.7c0.3,0.1,0.7,0.2,1,0.2c0.4,0,0.6-0.1,0.8-0.3
			c0.2-0.2,0.3-0.4,0.3-0.6c0-0.1,0-0.2-0.1-0.3c0-0.1-0.1-0.2-0.2-0.3c-0.1-0.1-0.2-0.2-0.4-0.2c-0.2-0.1-0.4-0.1-0.6-0.2
			c-0.3-0.1-0.6-0.2-0.9-0.3c-0.3-0.1-0.5-0.3-0.7-0.4c-0.2-0.2-0.4-0.4-0.5-0.7c-0.1-0.3-0.2-0.6-0.2-1.1c0-0.4,0.1-0.8,0.2-1.2
			c0.1-0.3,0.3-0.6,0.6-0.9c0.3-0.2,0.6-0.4,0.9-0.6c0.4-0.1,0.8-0.2,1.2-0.2c0.4,0,0.9,0.1,1.3,0.2c0.5,0.1,0.9,0.3,1.3,0.5
			L344,126.4z"/>
		<path class="st0" d="M349.5,126.1v6.7h-2.2v-6.7h-1.8v-1.9h5.9v1.9H349.5z"/>
		<path class="st0" d="M354.1,124.2v4.7c0,0.3,0,0.5,0,0.8c0,0.3,0.1,0.5,0.2,0.7c0.1,0.2,0.2,0.4,0.5,0.5c0.2,0.1,0.5,0.2,0.9,0.2
			c0.4,0,0.7-0.1,0.9-0.2c0.2-0.1,0.4-0.3,0.5-0.5c0.1-0.2,0.2-0.5,0.2-0.7c0-0.3,0-0.5,0-0.8v-4.7h2.2v5c0,1.3-0.3,2.3-0.9,2.9
			c-0.6,0.6-1.6,0.9-2.8,0.9c-1.3,0-2.2-0.3-2.8-0.9c-0.6-0.6-0.9-1.6-0.9-2.9v-5H354.1z"/>
		<path class="st0" d="M360.8,124.2h3.3c0.6,0,1.1,0.1,1.7,0.4c0.5,0.2,1,0.6,1.4,0.9c0.4,0.4,0.7,0.9,0.9,1.4
			c0.2,0.5,0.3,1.1,0.3,1.6c0,0.6-0.1,1.1-0.3,1.6c-0.2,0.5-0.5,1-0.9,1.4s-0.8,0.7-1.4,1c-0.5,0.2-1.1,0.4-1.7,0.4h-3.3V124.2z
			 M363,130.9h0.5c0.4,0,0.7-0.1,1-0.2c0.3-0.1,0.6-0.3,0.8-0.5c0.2-0.2,0.4-0.5,0.5-0.8c0.1-0.3,0.2-0.6,0.2-1c0-0.3-0.1-0.7-0.2-1
			c-0.1-0.3-0.3-0.6-0.5-0.8c-0.2-0.2-0.5-0.4-0.8-0.5c-0.3-0.1-0.6-0.2-1-0.2H363V130.9z"/>
		<path class="st0" d="M371.6,124.2v8.6h-2.2v-8.6H371.6z"/>
		<path class="st0" d="M372.5,128.5c0-0.6,0.1-1.2,0.4-1.8c0.2-0.6,0.6-1,1-1.5c0.4-0.4,0.9-0.7,1.5-1c0.6-0.2,1.2-0.3,1.9-0.3
			c0.7,0,1.3,0.1,1.9,0.3c0.6,0.2,1.1,0.6,1.5,1c0.4,0.4,0.8,0.9,1,1.5c0.2,0.6,0.4,1.2,0.4,1.8c0,0.6-0.1,1.2-0.4,1.8
			c-0.2,0.6-0.6,1-1,1.5c-0.4,0.4-0.9,0.7-1.5,1c-0.6,0.2-1.2,0.3-1.9,0.3c-0.7,0-1.3-0.1-1.9-0.3c-0.6-0.2-1.1-0.6-1.5-1
			c-0.4-0.4-0.7-0.9-1-1.5C372.7,129.8,372.5,129.2,372.5,128.5z M374.9,128.5c0,0.3,0.1,0.7,0.2,1c0.1,0.3,0.3,0.5,0.5,0.8
			c0.2,0.2,0.5,0.4,0.8,0.5c0.3,0.1,0.6,0.2,0.9,0.2s0.6-0.1,0.9-0.2c0.3-0.1,0.6-0.3,0.8-0.5c0.2-0.2,0.4-0.5,0.5-0.8
			c0.1-0.3,0.2-0.6,0.2-1s-0.1-0.7-0.2-1c-0.1-0.3-0.3-0.5-0.5-0.8c-0.2-0.2-0.5-0.4-0.8-0.5c-0.3-0.1-0.6-0.2-0.9-0.2
			s-0.6,0.1-0.9,0.2c-0.3,0.1-0.6,0.3-0.8,0.5s-0.4,0.5-0.5,0.8C375,127.8,374.9,128.2,374.9,128.5z"/>
	</g>
	<g>
		<path class="st0" d="M348.3,203.7h-0.6v-0.8h1.6v3.8h-1V203.7z"/>
		<path class="st0" d="M352.7,203.7h-1.3l-0.1,0.4c0.1,0,0.1,0,0.2,0c0.1,0,0.1,0,0.2,0c0.2,0,0.4,0,0.5,0.1s0.3,0.2,0.4,0.3
			c0.1,0.1,0.2,0.3,0.3,0.4c0.1,0.2,0.1,0.3,0.1,0.5c0,0.2,0,0.4-0.1,0.6c-0.1,0.2-0.2,0.3-0.3,0.4c-0.1,0.1-0.3,0.2-0.5,0.3
			c-0.2,0.1-0.4,0.1-0.7,0.1c-0.2,0-0.5,0-0.7-0.1c-0.2-0.1-0.4-0.1-0.6-0.3l0.1-0.9c0.2,0.1,0.3,0.3,0.5,0.3
			c0.2,0.1,0.3,0.1,0.5,0.1c0.2,0,0.4-0.1,0.5-0.2c0.1-0.1,0.2-0.2,0.2-0.4c0-0.2-0.1-0.3-0.2-0.5c-0.2-0.1-0.4-0.2-0.6-0.2
			c-0.1,0-0.2,0-0.4,0c-0.1,0-0.2,0.1-0.4,0.1l0.3-2.1h2V203.7z"/>
		<path class="st0" d="M353.4,206.2c0-0.1,0-0.2,0-0.2c0-0.1,0.1-0.1,0.1-0.2c0.1-0.1,0.1-0.1,0.2-0.1c0.1,0,0.2,0,0.2,0
			c0.1,0,0.2,0,0.2,0c0.1,0,0.1,0.1,0.2,0.1c0.1,0.1,0.1,0.1,0.1,0.2c0,0.1,0,0.2,0,0.2s0,0.2,0,0.2c0,0.1-0.1,0.1-0.1,0.2
			c-0.1,0.1-0.1,0.1-0.2,0.1c-0.1,0-0.2,0-0.2,0c-0.1,0-0.2,0-0.2,0c-0.1,0-0.1-0.1-0.2-0.1c-0.1-0.1-0.1-0.1-0.1-0.2
			C353.4,206.4,353.4,206.3,353.4,206.2z"/>
		<path class="st0" d="M355.7,204.7c-0.4-0.2-0.6-0.4-0.6-0.8c0-0.2,0-0.3,0.1-0.4c0.1-0.1,0.2-0.2,0.3-0.3s0.3-0.2,0.4-0.2
			c0.2-0.1,0.3-0.1,0.5-0.1s0.4,0,0.5,0.1c0.2,0.1,0.3,0.1,0.4,0.2s0.2,0.2,0.3,0.3c0.1,0.1,0.1,0.3,0.1,0.4c0,0.1,0,0.2,0,0.3
			c0,0.1-0.1,0.2-0.1,0.2c0,0.1-0.1,0.1-0.2,0.2c-0.1,0.1-0.2,0.1-0.3,0.2c0.5,0.2,0.8,0.5,0.8,1c0,0.2,0,0.3-0.1,0.5
			c-0.1,0.1-0.2,0.3-0.3,0.4c-0.1,0.1-0.3,0.2-0.5,0.2c-0.2,0.1-0.4,0.1-0.6,0.1c-0.2,0-0.4,0-0.6-0.1c-0.2-0.1-0.3-0.1-0.5-0.2
			c-0.1-0.1-0.2-0.2-0.3-0.4c-0.1-0.1-0.1-0.3-0.1-0.5C354.9,205.2,355.2,204.9,355.7,204.7z M355.9,205.5c0,0.1,0,0.1,0,0.2
			s0.1,0.1,0.1,0.2c0,0,0.1,0.1,0.1,0.1c0.1,0,0.1,0,0.2,0c0.1,0,0.1,0,0.2,0c0.1,0,0.1-0.1,0.1-0.1c0,0,0.1-0.1,0.1-0.1
			s0-0.1,0-0.2c0-0.1,0-0.2-0.1-0.3c-0.1-0.1-0.2-0.1-0.3-0.1c-0.1,0-0.2,0-0.3,0.1S355.9,205.4,355.9,205.5z M356,203.8
			c0,0.1,0,0.2,0.1,0.3c0.1,0.1,0.2,0.1,0.3,0.1c0.1,0,0.1,0,0.2,0c0.1,0,0.1-0.1,0.1-0.1c0,0,0.1-0.1,0.1-0.1c0-0.1,0-0.1,0-0.2
			c0-0.1,0-0.2-0.1-0.3c-0.1-0.1-0.2-0.1-0.3-0.1s-0.2,0-0.3,0.1C356,203.6,356,203.7,356,203.8z"/>
		<path class="st0" d="M358.2,204.1h0.9v0.3c0.3-0.2,0.5-0.4,0.8-0.4c0.4,0,0.7,0.2,0.9,0.5c0.2-0.3,0.5-0.5,0.9-0.5
			c0.1,0,0.2,0,0.3,0.1c0.1,0,0.2,0.1,0.3,0.2c0.1,0.1,0.1,0.2,0.2,0.3c0,0.1,0.1,0.3,0.1,0.4v1.7h-0.9v-1.3c0-0.1,0-0.2,0-0.3
			c0-0.1,0-0.2-0.1-0.2c0,0-0.1-0.1-0.1-0.1c0,0-0.1,0-0.2,0c-0.3,0-0.4,0.2-0.4,0.6v1.3H360v-1.3c0-0.1,0-0.2,0-0.3
			c0-0.1,0-0.2-0.1-0.2c0-0.1-0.1-0.1-0.1-0.1c-0.1,0-0.1,0-0.2,0c-0.1,0-0.1,0-0.2,0c-0.1,0-0.1,0.1-0.1,0.1c0,0-0.1,0.1-0.1,0.2
			c0,0.1,0,0.2,0,0.3v1.3h-0.9V204.1z"/>
	</g>
	<g>
		<path class="st0" d="M348.3,175.8h-0.6V175h1.6v3.8h-1V175.8z"/>
		<path class="st0" d="M350.6,178.8l1.1-1.3h0c-0.1,0.1-0.2,0.1-0.2,0.1c-0.1,0-0.1,0-0.2,0c-0.2,0-0.4,0-0.5-0.1
			c-0.2-0.1-0.3-0.2-0.4-0.3c-0.1-0.1-0.2-0.3-0.3-0.4c-0.1-0.2-0.1-0.3-0.1-0.5c0-0.2,0-0.4,0.1-0.6c0.1-0.2,0.2-0.3,0.3-0.5
			c0.1-0.1,0.3-0.2,0.5-0.3c0.2-0.1,0.4-0.1,0.7-0.1c0.3,0,0.5,0,0.7,0.1c0.2,0.1,0.4,0.2,0.5,0.3c0.1,0.1,0.2,0.3,0.3,0.5
			c0.1,0.2,0.1,0.4,0.1,0.5c0,0.2,0,0.5-0.1,0.7c-0.1,0.3-0.2,0.5-0.4,0.7l-0.9,1.1H350.6z M352.3,176.3c0-0.1,0-0.2-0.1-0.2
			c0-0.1-0.1-0.1-0.1-0.2s-0.1-0.1-0.2-0.1c-0.1,0-0.2-0.1-0.2-0.1c-0.1,0-0.2,0-0.2,0.1c-0.1,0-0.1,0.1-0.2,0.1
			c-0.1,0.1-0.1,0.1-0.1,0.2c0,0.1-0.1,0.2-0.1,0.2c0,0.1,0,0.2,0.1,0.2c0,0.1,0.1,0.1,0.1,0.2c0.1,0.1,0.1,0.1,0.2,0.1
			c0.1,0,0.2,0.1,0.2,0.1c0.1,0,0.2,0,0.2-0.1c0.1,0,0.1-0.1,0.2-0.1c0.1-0.1,0.1-0.1,0.1-0.2S352.3,176.4,352.3,176.3z"/>
		<path class="st0" d="M353.4,178.3c0-0.1,0-0.2,0-0.2c0-0.1,0.1-0.1,0.1-0.2c0.1-0.1,0.1-0.1,0.2-0.1c0.1,0,0.2,0,0.2,0
			c0.1,0,0.2,0,0.2,0c0.1,0,0.1,0.1,0.2,0.1c0.1,0.1,0.1,0.1,0.1,0.2c0,0.1,0,0.2,0,0.2c0,0.1,0,0.2,0,0.2c0,0.1-0.1,0.1-0.1,0.2
			c-0.1,0.1-0.1,0.1-0.2,0.1c-0.1,0-0.2,0-0.2,0c-0.1,0-0.2,0-0.2,0c-0.1,0-0.1-0.1-0.2-0.1c-0.1-0.1-0.1-0.1-0.1-0.2
			C353.5,178.5,353.4,178.4,353.4,178.3z"/>
		<path class="st0" d="M355.7,175.8h-0.6V175h1.6v3.8h-1V175.8z"/>
		<path class="st0" d="M357.9,176.2h0.9v0.3c0.3-0.2,0.5-0.4,0.8-0.4c0.4,0,0.7,0.2,0.9,0.5c0.2-0.3,0.5-0.5,0.9-0.5
			c0.1,0,0.2,0,0.3,0.1c0.1,0,0.2,0.1,0.3,0.2c0.1,0.1,0.1,0.2,0.2,0.3c0,0.1,0.1,0.3,0.1,0.4v1.7h-0.9v-1.3c0-0.1,0-0.2,0-0.3
			c0-0.1,0-0.2-0.1-0.2c0,0-0.1-0.1-0.1-0.1c0,0-0.1,0-0.2,0c-0.3,0-0.4,0.2-0.4,0.6v1.3h-0.9v-1.3c0-0.1,0-0.2,0-0.3
			c0-0.1,0-0.2-0.1-0.2c0-0.1-0.1-0.1-0.1-0.1c-0.1,0-0.1,0-0.2,0c-0.1,0-0.1,0-0.2,0c-0.1,0-0.1,0.1-0.1,0.1c0,0-0.1,0.1-0.1,0.2
			c0,0.1,0,0.2,0,0.3v1.3h-0.9V176.2z"/>
	</g>
	<g>
		<path class="st0" d="M350.2,150.9h-3.1l1-1c0.3-0.3,0.4-0.5,0.6-0.7c0.1-0.2,0.2-0.3,0.3-0.5c0.1-0.1,0.1-0.2,0.1-0.3
			c0-0.1,0-0.1,0-0.2c0-0.1,0-0.1,0-0.2c0-0.1,0-0.1-0.1-0.1c0,0-0.1-0.1-0.1-0.1c-0.1,0-0.1,0-0.2,0c-0.1,0-0.2,0-0.3,0.1
			c-0.1,0.1-0.1,0.2-0.1,0.3c0,0,0,0.1,0,0.2h-1.1c0-0.2,0-0.4,0.1-0.6c0.1-0.2,0.2-0.3,0.3-0.5c0.1-0.1,0.3-0.2,0.5-0.3
			c0.2-0.1,0.4-0.1,0.6-0.1c0.2,0,0.4,0,0.6,0.1c0.2,0.1,0.3,0.2,0.5,0.3c0.1,0.1,0.2,0.3,0.3,0.4c0.1,0.2,0.1,0.4,0.1,0.5
			c0,0.2,0,0.4-0.1,0.6c-0.1,0.2-0.2,0.4-0.4,0.5l-0.6,0.6h1.2V150.9z"/>
		<path class="st0" d="M351.2,147.9h-0.6v-0.8h1.6v3.8h-1V147.9z"/>
		<path class="st0" d="M353.2,150.5c0-0.1,0-0.2,0-0.2c0-0.1,0.1-0.1,0.1-0.2c0.1-0.1,0.1-0.1,0.2-0.1c0.1,0,0.2,0,0.2,0
			c0.1,0,0.2,0,0.2,0c0.1,0,0.1,0.1,0.2,0.1c0.1,0.1,0.1,0.1,0.1,0.2c0,0.1,0,0.2,0,0.2c0,0.1,0,0.2,0,0.2c0,0.1-0.1,0.1-0.1,0.2
			c-0.1,0.1-0.1,0.1-0.2,0.1c-0.1,0-0.2,0-0.2,0c-0.1,0-0.2,0-0.2,0c-0.1,0-0.1-0.1-0.2-0.1c-0.1-0.1-0.1-0.1-0.1-0.2
			C353.2,150.6,353.2,150.5,353.2,150.5z"/>
		<path class="st0" d="M357.2,147.1l-1.1,1.3h0c0.1-0.1,0.2-0.1,0.2-0.1c0.1,0,0.1,0,0.2,0c0.2,0,0.4,0,0.5,0.1s0.3,0.2,0.4,0.3
			c0.1,0.1,0.2,0.3,0.3,0.4c0.1,0.2,0.1,0.3,0.1,0.5c0,0.2,0,0.4-0.1,0.6c-0.1,0.2-0.2,0.3-0.3,0.5c-0.1,0.1-0.3,0.2-0.5,0.3
			c-0.2,0.1-0.4,0.1-0.7,0.1c-0.3,0-0.5,0-0.7-0.1c-0.2-0.1-0.4-0.2-0.5-0.3c-0.1-0.1-0.2-0.3-0.3-0.5c-0.1-0.2-0.1-0.4-0.1-0.5
			c0-0.2,0-0.5,0.1-0.7c0.1-0.3,0.2-0.5,0.4-0.7l0.9-1.1H357.2z M355.6,149.6c0,0.1,0,0.2,0.1,0.2c0,0.1,0.1,0.1,0.1,0.2
			c0.1,0.1,0.1,0.1,0.2,0.1c0.1,0,0.2,0.1,0.2,0.1c0.1,0,0.2,0,0.2-0.1c0.1,0,0.1-0.1,0.2-0.1s0.1-0.1,0.1-0.2s0.1-0.2,0.1-0.2
			c0-0.1,0-0.2-0.1-0.2s-0.1-0.1-0.1-0.2c-0.1-0.1-0.1-0.1-0.2-0.1c-0.1,0-0.2-0.1-0.2-0.1c-0.1,0-0.2,0-0.2,0.1s-0.1,0.1-0.2,0.1
			c-0.1,0.1-0.1,0.1-0.1,0.2C355.6,149.5,355.6,149.5,355.6,149.6z"/>
		<path class="st0" d="M358,148.3h0.9v0.3c0.3-0.2,0.5-0.4,0.8-0.4c0.4,0,0.7,0.2,0.9,0.5c0.2-0.3,0.5-0.5,0.9-0.5
			c0.1,0,0.2,0,0.3,0.1c0.1,0,0.2,0.1,0.3,0.2c0.1,0.1,0.1,0.2,0.2,0.3c0,0.1,0.1,0.3,0.1,0.4v1.7h-0.9v-1.3c0-0.1,0-0.2,0-0.3
			s0-0.2-0.1-0.2c0,0-0.1-0.1-0.1-0.1c0,0-0.1,0-0.2,0c-0.3,0-0.4,0.2-0.4,0.6v1.3h-0.9v-1.3c0-0.1,0-0.2,0-0.3c0-0.1,0-0.2-0.1-0.2
			c0-0.1-0.1-0.1-0.1-0.1c-0.1,0-0.1,0-0.2,0c-0.1,0-0.1,0-0.2,0c-0.1,0-0.1,0.1-0.1,0.1c0,0-0.1,0.1-0.1,0.2c0,0.1,0,0.2,0,0.3v1.3
			H358V148.3z"/>
	</g>
	<g>
		<path class="st0" d="M473.5,69.9H473v-0.8h1.6v3.8h-1V69.9z"/>
		<path class="st0" d="M476.7,70.6C476.7,70.6,476.7,70.6,476.7,70.6c0.1,0,0.1,0,0.1,0c0.1,0,0.2,0,0.3-0.1
			c0.1-0.1,0.1-0.2,0.1-0.3c0-0.1,0-0.2-0.1-0.3c-0.1-0.1-0.2-0.1-0.3-0.1c-0.1,0-0.2,0-0.3,0.1c-0.1,0.1-0.1,0.2-0.1,0.3h-0.9
			c0-0.2,0.1-0.4,0.2-0.5c0.1-0.2,0.2-0.3,0.3-0.4c0.1-0.1,0.3-0.2,0.4-0.2c0.2-0.1,0.3-0.1,0.5-0.1c0.2,0,0.4,0,0.5,0.1
			c0.2,0.1,0.3,0.1,0.4,0.2s0.2,0.2,0.3,0.4c0.1,0.1,0.1,0.3,0.1,0.5c0,0.2,0,0.3-0.1,0.5c-0.1,0.1-0.2,0.2-0.3,0.3
			c0.2,0.1,0.4,0.2,0.5,0.3c0.1,0.2,0.2,0.4,0.2,0.6c0,0.2,0,0.4-0.1,0.5c-0.1,0.2-0.2,0.3-0.3,0.4s-0.3,0.2-0.5,0.3
			c-0.2,0.1-0.4,0.1-0.6,0.1c-0.3,0-0.6-0.1-0.8-0.2c-0.2-0.1-0.4-0.3-0.6-0.6c-0.1-0.1-0.1-0.2-0.1-0.3c0-0.1,0-0.2,0-0.3h1
			c0,0.2,0.1,0.3,0.2,0.4c0.1,0.1,0.2,0.1,0.4,0.1c0.2,0,0.3,0,0.4-0.1s0.1-0.2,0.1-0.4c0-0.2,0-0.3-0.1-0.4
			c-0.1-0.1-0.2-0.1-0.4-0.1c0,0-0.1,0-0.1,0c0,0-0.1,0-0.1,0V70.6z"/>
		<path class="st0" d="M478.7,72.4c0-0.1,0-0.2,0-0.2c0-0.1,0.1-0.1,0.1-0.2c0.1-0.1,0.1-0.1,0.2-0.1c0.1,0,0.2,0,0.2,0
			c0.1,0,0.2,0,0.2,0c0.1,0,0.1,0.1,0.2,0.1c0.1,0.1,0.1,0.1,0.1,0.2c0,0.1,0,0.2,0,0.2c0,0.1,0,0.2,0,0.2c0,0.1-0.1,0.1-0.1,0.2
			c-0.1,0.1-0.1,0.1-0.2,0.1c-0.1,0-0.2,0-0.2,0c-0.1,0-0.2,0-0.2,0c-0.1,0-0.1-0.1-0.2-0.1c-0.1-0.1-0.1-0.1-0.1-0.2
			C478.7,72.6,478.7,72.5,478.7,72.4z"/>
		<path class="st0" d="M481,70.9c-0.4-0.2-0.6-0.4-0.6-0.8c0-0.2,0-0.3,0.1-0.4c0.1-0.1,0.2-0.2,0.3-0.3c0.1-0.1,0.3-0.2,0.4-0.2
			s0.3-0.1,0.5-0.1c0.2,0,0.4,0,0.5,0.1s0.3,0.1,0.4,0.2c0.1,0.1,0.2,0.2,0.3,0.3c0.1,0.1,0.1,0.3,0.1,0.4c0,0.1,0,0.2,0,0.3
			c0,0.1-0.1,0.2-0.1,0.2c0,0.1-0.1,0.1-0.2,0.2c-0.1,0.1-0.2,0.1-0.3,0.2c0.5,0.2,0.8,0.5,0.8,1c0,0.2,0,0.3-0.1,0.5
			c-0.1,0.1-0.2,0.3-0.3,0.4c-0.1,0.1-0.3,0.2-0.5,0.2c-0.2,0.1-0.4,0.1-0.6,0.1c-0.2,0-0.4,0-0.6-0.1c-0.2-0.1-0.3-0.1-0.5-0.2
			c-0.1-0.1-0.2-0.2-0.3-0.4c-0.1-0.1-0.1-0.3-0.1-0.5C480.2,71.4,480.5,71.1,481,70.9z M481.2,71.8c0,0.1,0,0.1,0,0.2
			s0.1,0.1,0.1,0.2c0,0,0.1,0.1,0.1,0.1c0.1,0,0.1,0,0.2,0c0.1,0,0.1,0,0.2,0c0.1,0,0.1-0.1,0.1-0.1c0,0,0.1-0.1,0.1-0.1
			c0-0.1,0-0.1,0-0.2c0-0.1,0-0.2-0.1-0.3c-0.1-0.1-0.2-0.1-0.3-0.1c-0.1,0-0.2,0-0.3,0.1C481.3,71.5,481.2,71.6,481.2,71.8z
			 M481.3,70.1c0,0.1,0,0.2,0.1,0.3c0.1,0.1,0.2,0.1,0.3,0.1c0.1,0,0.1,0,0.2,0c0.1,0,0.1-0.1,0.1-0.1c0,0,0.1-0.1,0.1-0.1
			c0-0.1,0-0.1,0-0.2c0-0.1,0-0.2-0.1-0.3c-0.1-0.1-0.2-0.1-0.3-0.1s-0.2,0-0.3,0.1C481.3,69.8,481.3,69.9,481.3,70.1z"/>
		<path class="st0" d="M483.5,70.3h0.9v0.3c0.3-0.2,0.5-0.4,0.8-0.4c0.4,0,0.7,0.2,0.9,0.5c0.2-0.3,0.5-0.5,0.9-0.5
			c0.1,0,0.2,0,0.3,0.1c0.1,0,0.2,0.1,0.3,0.2c0.1,0.1,0.1,0.2,0.2,0.3s0.1,0.3,0.1,0.4v1.7H487v-1.3c0-0.1,0-0.2,0-0.3
			c0-0.1,0-0.2-0.1-0.2c0,0-0.1-0.1-0.1-0.1c0,0-0.1,0-0.2,0c-0.3,0-0.4,0.2-0.4,0.6v1.3h-0.9v-1.3c0-0.1,0-0.2,0-0.3
			c0-0.1,0-0.2-0.1-0.2c0-0.1-0.1-0.1-0.1-0.1c-0.1,0-0.1,0-0.2,0c-0.1,0-0.1,0-0.2,0c-0.1,0-0.1,0.1-0.1,0.1c0,0-0.1,0.1-0.1,0.2
			c0,0.1,0,0.2,0,0.3v1.3h-0.9V70.3z"/>
	</g>
	<g>
		<path class="st0" d="M71.7,242.7c-0.2-0.1-0.3-0.2-0.5-0.3c-0.2-0.1-0.3-0.1-0.5-0.1c-0.2,0-0.4,0-0.5,0.1
			c-0.1,0.1-0.2,0.2-0.2,0.4c0,0.1,0,0.2,0.1,0.3c0.1,0.1,0.1,0.1,0.2,0.2c0.1,0,0.2,0.1,0.3,0.1c0.1,0,0.2,0.1,0.4,0.1
			c0.5,0.2,0.8,0.4,1.1,0.7s0.3,0.6,0.3,1.1c0,0.3,0,0.6-0.1,0.8c-0.1,0.2-0.2,0.4-0.4,0.6c-0.2,0.2-0.4,0.3-0.7,0.4
			c-0.3,0.1-0.6,0.1-0.9,0.1c-0.7,0-1.4-0.2-2-0.6l0.6-1.2c0.2,0.2,0.4,0.3,0.7,0.4c0.2,0.1,0.4,0.1,0.6,0.1c0.2,0,0.4-0.1,0.5-0.2
			c0.1-0.1,0.2-0.2,0.2-0.4c0-0.1,0-0.2,0-0.2c0-0.1-0.1-0.1-0.2-0.2c-0.1-0.1-0.2-0.1-0.3-0.1c-0.1,0-0.3-0.1-0.4-0.2
			c-0.2-0.1-0.4-0.1-0.6-0.2c-0.2-0.1-0.4-0.2-0.5-0.3c-0.1-0.1-0.3-0.3-0.4-0.5c-0.1-0.2-0.1-0.4-0.1-0.7c0-0.3,0-0.5,0.1-0.8
			c0.1-0.2,0.2-0.4,0.4-0.6c0.2-0.2,0.4-0.3,0.6-0.4c0.2-0.1,0.5-0.1,0.8-0.1c0.3,0,0.6,0,0.9,0.1c0.3,0.1,0.6,0.2,0.9,0.3
			L71.7,242.7z"/>
		<path class="st0" d="M75.4,242.5v4.5h-1.5v-4.5h-1.2v-1.3h4v1.3H75.4z"/>
		<path class="st0" d="M80.2,246h-2.1l-0.3,1h-1.6l2.2-5.8H80l2.2,5.8h-1.6L80.2,246z M79.8,244.8l-0.7-1.9l-0.7,1.9H79.8z"/>
		<path class="st0" d="M84,241.2v5.8h-1.5v-5.8H84z"/>
		<path class="st0" d="M89.7,247h-1.9l-1.4-2.2v2.2h-1.5v-5.8h2.3c0.3,0,0.6,0,0.8,0.1c0.2,0.1,0.4,0.2,0.6,0.4s0.3,0.4,0.4,0.6
			c0.1,0.2,0.1,0.4,0.1,0.7c0,0.4-0.1,0.8-0.3,1.1c-0.2,0.3-0.5,0.5-0.9,0.6L89.7,247z M86.4,243.8h0.3c0.3,0,0.5-0.1,0.7-0.2
			c0.2-0.1,0.2-0.3,0.2-0.5c0-0.2-0.1-0.4-0.2-0.5c-0.2-0.1-0.4-0.2-0.7-0.2h-0.3V243.8z"/>
		<path class="st0" d="M93.2,242.7c-0.2-0.1-0.3-0.2-0.5-0.3c-0.2-0.1-0.3-0.1-0.5-0.1c-0.2,0-0.4,0-0.5,0.1
			c-0.1,0.1-0.2,0.2-0.2,0.4c0,0.1,0,0.2,0.1,0.3c0.1,0.1,0.1,0.1,0.2,0.2c0.1,0,0.2,0.1,0.3,0.1c0.1,0,0.2,0.1,0.4,0.1
			c0.5,0.2,0.8,0.4,1.1,0.7c0.2,0.3,0.3,0.6,0.3,1.1c0,0.3,0,0.6-0.1,0.8c-0.1,0.2-0.2,0.4-0.4,0.6c-0.2,0.2-0.4,0.3-0.7,0.4
			c-0.3,0.1-0.6,0.1-0.9,0.1c-0.7,0-1.4-0.2-2-0.6l0.6-1.2c0.2,0.2,0.4,0.3,0.7,0.4c0.2,0.1,0.4,0.1,0.6,0.1c0.2,0,0.4-0.1,0.5-0.2
			c0.1-0.1,0.2-0.2,0.2-0.4c0-0.1,0-0.2,0-0.2c0-0.1-0.1-0.1-0.2-0.2c-0.1-0.1-0.2-0.1-0.3-0.1c-0.1,0-0.3-0.1-0.4-0.2
			c-0.2-0.1-0.4-0.1-0.6-0.2c-0.2-0.1-0.4-0.2-0.5-0.3c-0.1-0.1-0.3-0.3-0.4-0.5c-0.1-0.2-0.1-0.4-0.1-0.7c0-0.3,0-0.5,0.1-0.8
			c0.1-0.2,0.2-0.4,0.4-0.6c0.2-0.2,0.4-0.3,0.6-0.4c0.2-0.1,0.5-0.1,0.8-0.1c0.3,0,0.6,0,0.9,0.1s0.6,0.2,0.9,0.3L93.2,242.7z"/>
	</g>
	<g>
		<path class="st0" d="M225.5,35.3h-1.6l-0.3,0.8h-1.2l1.7-4.4h1.3l1.7,4.4h-1.2L225.5,35.3z M225.2,34.4l-0.5-1.5l-0.5,1.5H225.2z"
			/>
		<path class="st0" d="M229.7,31.2h0.8l-2.4,5.9h-0.8L229.7,31.2z"/>
		<path class="st0" d="M233.9,33.1c-0.3-0.3-0.6-0.5-1-0.5c-0.2,0-0.3,0-0.5,0.1c-0.1,0.1-0.3,0.1-0.4,0.3c-0.1,0.1-0.2,0.2-0.2,0.4
			c-0.1,0.1-0.1,0.3-0.1,0.5c0,0.2,0,0.3,0.1,0.5c0.1,0.1,0.1,0.3,0.3,0.4c0.1,0.1,0.2,0.2,0.4,0.3c0.1,0.1,0.3,0.1,0.5,0.1
			c0.4,0,0.7-0.2,1-0.5v1.4l-0.1,0c-0.2,0.1-0.3,0.1-0.5,0.1c-0.2,0-0.3,0-0.5,0c-0.3,0-0.6-0.1-0.9-0.2c-0.3-0.1-0.5-0.3-0.7-0.5
			c-0.2-0.2-0.4-0.5-0.5-0.7c-0.1-0.3-0.2-0.6-0.2-0.9c0-0.3,0.1-0.6,0.2-0.9c0.1-0.3,0.3-0.5,0.5-0.7c0.2-0.2,0.5-0.4,0.7-0.5
			c0.3-0.1,0.6-0.2,0.9-0.2c0.2,0,0.3,0,0.5,0.1s0.3,0.1,0.5,0.2V33.1z"/>
	</g>
	<g>
		<path class="st0" d="M64,33.2h1.5c0.3,0,0.5,0.1,0.8,0.2c0.2,0.1,0.4,0.3,0.6,0.4c0.2,0.2,0.3,0.4,0.4,0.6
			c0.1,0.2,0.2,0.5,0.2,0.8c0,0.3,0,0.5-0.1,0.7c-0.1,0.2-0.2,0.4-0.4,0.6c-0.2,0.2-0.4,0.3-0.6,0.4c-0.2,0.1-0.5,0.2-0.8,0.2H64
			V33.2z M65.1,36.3h0.2c0.2,0,0.3,0,0.5-0.1c0.1-0.1,0.3-0.1,0.4-0.2c0.1-0.1,0.2-0.2,0.2-0.3c0.1-0.1,0.1-0.3,0.1-0.4
			c0-0.2,0-0.3-0.1-0.4c-0.1-0.1-0.1-0.3-0.2-0.4c-0.1-0.1-0.2-0.2-0.4-0.2c-0.1-0.1-0.3-0.1-0.5-0.1h-0.2V36.3z"/>
		<path class="st0" d="M69.1,33.2v3.9h-1v-3.9H69.1z"/>
		<path class="st0" d="M69.8,37.1v-3.9h1l1.9,2.4v-2.4h1v3.9h-1l-1.9-2.4v2.4H69.8z"/>
		<path class="st0" d="M75.5,33.2v3.9h-1v-3.9H75.5z"/>
		<path class="st0" d="M76.2,37.1v-3.9h1l1.9,2.4v-2.4h1v3.9h-1l-1.9-2.4v2.4H76.2z"/>
		<path class="st0" d="M82.9,34.9h2c0,0.2,0,0.4,0,0.6c0,0.2-0.1,0.3-0.1,0.5c-0.1,0.2-0.2,0.4-0.3,0.5c-0.1,0.2-0.3,0.3-0.4,0.4
			s-0.4,0.2-0.6,0.2s-0.4,0.1-0.6,0.1c-0.3,0-0.6-0.1-0.8-0.2c-0.3-0.1-0.5-0.2-0.7-0.4S81,36.3,80.9,36c-0.1-0.3-0.2-0.5-0.2-0.8
			c0-0.3,0-0.6,0.1-0.8c0.1-0.3,0.2-0.5,0.4-0.7c0.2-0.2,0.4-0.3,0.7-0.4c0.3-0.1,0.5-0.2,0.9-0.2c0.4,0,0.8,0.1,1.1,0.3
			c0.3,0.2,0.6,0.5,0.7,0.8l-1,0.4c-0.1-0.2-0.2-0.4-0.4-0.5C83.2,34,83,34,82.9,34c-0.2,0-0.3,0-0.4,0.1s-0.2,0.1-0.3,0.2
			c-0.1,0.1-0.2,0.2-0.2,0.4c-0.1,0.1-0.1,0.3-0.1,0.5c0,0.2,0,0.3,0.1,0.5c0,0.1,0.1,0.3,0.2,0.4s0.2,0.2,0.3,0.2
			c0.1,0.1,0.3,0.1,0.4,0.1c0.1,0,0.2,0,0.3,0c0.1,0,0.2-0.1,0.3-0.1c0.1-0.1,0.1-0.1,0.2-0.2c0-0.1,0.1-0.2,0.1-0.3h-0.8V34.9z"/>
		<path class="st0" d="M69.8,41.4h-1.5l-0.2,0.7H67l1.5-3.9h1.1l1.5,3.9h-1.1L69.8,41.4z M69.6,40.6l-0.5-1.3l-0.5,1.3H69.6z"/>
		<path class="st0" d="M74.8,42.1h-1.3l-1-1.5v1.5h-1v-3.9h1.6c0.2,0,0.4,0,0.6,0.1c0.2,0.1,0.3,0.2,0.4,0.3
			c0.1,0.1,0.2,0.2,0.2,0.4c0.1,0.1,0.1,0.3,0.1,0.5c0,0.3-0.1,0.5-0.2,0.7c-0.1,0.2-0.4,0.3-0.6,0.4L74.8,42.1z M72.5,39.9h0.2
			c0.2,0,0.4,0,0.5-0.1c0.1-0.1,0.2-0.2,0.2-0.4s-0.1-0.3-0.2-0.4S72.9,39,72.7,39h-0.2V39.9z"/>
		<path class="st0" d="M77.3,39h-1.2v0.7h1.2v0.9h-1.2v0.7h1.2v0.9h-2.2v-3.9h2.2V39z"/>
		<path class="st0" d="M80.4,41.4h-1.5l-0.2,0.7h-1.1l1.5-3.9h1.1l1.5,3.9h-1.1L80.4,41.4z M80.1,40.6l-0.5-1.3l-0.5,1.3H80.1z"/>
	</g>
	<g>
		<path class="st0" d="M80,113.3l0.8,2.8l0.9-2.8h0.9l0.9,2.8l0.8-2.8h1.2l-1.3,4.4H83l-0.9-2.6l-0.9,2.6h-1.2l-1.3-4.4H80z"/>
		<path class="st0" d="M88.9,114.8c-0.3-0.3-0.6-0.5-1-0.5c-0.2,0-0.3,0-0.5,0.1c-0.1,0.1-0.3,0.1-0.4,0.3c-0.1,0.1-0.2,0.2-0.2,0.4
			c-0.1,0.1-0.1,0.3-0.1,0.5c0,0.2,0,0.3,0.1,0.5c0.1,0.1,0.1,0.3,0.3,0.4c0.1,0.1,0.2,0.2,0.4,0.3c0.1,0.1,0.3,0.1,0.5,0.1
			c0.4,0,0.7-0.2,1-0.5v1.4l-0.1,0c-0.2,0.1-0.3,0.1-0.5,0.1c-0.2,0-0.3,0-0.5,0c-0.3,0-0.6-0.1-0.9-0.2c-0.3-0.1-0.5-0.3-0.7-0.5
			c-0.2-0.2-0.4-0.5-0.5-0.7c-0.1-0.3-0.2-0.6-0.2-0.9c0-0.3,0.1-0.6,0.2-0.9c0.1-0.3,0.3-0.5,0.5-0.7c0.2-0.2,0.5-0.4,0.7-0.5
			c0.3-0.1,0.6-0.2,0.9-0.2c0.2,0,0.3,0,0.5,0.1c0.2,0,0.3,0.1,0.5,0.2V114.8z"/>
		<path class="st0" d="M82.9,122.6h1.2v-1.2h0.7v1.2h1.2v0.7h-1.2v1.2h-0.7v-1.2h-1.2V122.6z"/>
	</g>
	<g>
		<g>
			<path class="st0" d="M177.5,65.1c-0.1,0-0.1,0-0.2,0c-0.5,0-1.1,0-1.6,0c-0.3,0-0.5-0.3-0.4-0.6c0.7-1.3,1.4-2.6,2.1-3.8
				c0.1-0.1,0.1-0.2,0.3-0.2c0.2,0,0.4,0.1,0.4,0.4c0,0.7,0,1.3,0,2c0,0,0,0.1,0,0.1c0.1,0,0.1,0,0.1,0c0.5,0,1,0,1.6,0
				c0.1,0,0.1,0,0.2,0c0.2,0.1,0.3,0.3,0.2,0.5c-0.1,0.2-0.2,0.4-0.3,0.6c-0.6,1.1-1.2,2.2-1.8,3.2c-0.1,0.1-0.1,0.2-0.3,0.3
				c-0.2,0-0.4-0.1-0.4-0.4c0-0.7,0-1.3,0-2C177.5,65.2,177.5,65.1,177.5,65.1z M177.5,62.2C177.5,62.2,177.5,62.2,177.5,62.2
				c-0.4,0.7-0.8,1.4-1.2,2.1c0.1,0,0.1,0,0.2,0c0.4,0,0.9,0,1.3,0c0.3,0,0.4,0.1,0.4,0.4c0,0.3,0,0.6,0,0.9c0,0,0,0.1,0,0.1
				c0.4-0.7,0.8-1.4,1.2-2.2c-0.1,0-0.1,0-0.2,0c-0.5,0-0.9,0-1.4,0c-0.3,0-0.4-0.1-0.4-0.4C177.5,62.9,177.5,62.5,177.5,62.2z"/>
		</g>
	</g>
	<g>
		<g>
			<path class="st0" d="M73.6,23.7c0,0-0.1-0.1-0.1-0.1l-0.1-0.1c-0.2-0.2-0.2-0.3-0.2-0.6l0-0.1c0-0.1,0-0.2,0-0.4
				c0-0.4-0.2-0.7-0.5-1c-0.3-0.2-0.5-0.4-0.8-0.7c-0.1-0.1-0.2-0.2-0.4-0.3l-0.1-0.1c-0.1-0.1-0.3-0.2-0.4-0.3
				c-0.1-0.1-0.3-0.1-0.4,0c-0.1,0.1-0.2,0.2-0.2,0.4c0,0.1,0.1,0.2,0.1,0.2c0.3,0.3,0.7,0.7,1,1l0.3,0.3c0,0,0,0.1,0,0.1
				c0,0.1-0.1,0.1-0.1,0.2c0,0-0.1-0.1-0.1-0.1c-0.2-0.2-0.5-0.5-0.7-0.7c-0.2-0.2-0.4-0.4-0.7-0.6c0,0-0.2-0.2-0.3,0
				c0,0-0.1,0.1-0.1,0.1c0,0.1,0,0.1,0.1,0.2l1.4,1.4c0,0,0,0,0,0c-0.1,0-0.1,0.1-0.1,0.1c0,0-0.1,0.1-0.2,0l-1.3-1.3l0,0
				c0,0,0,0-0.1-0.1c-0.1-0.1-0.3-0.1-0.5,0c-0.2,0.1-0.2,0.4,0,0.5l0.5,0.6c0.3,0.4,0.6,0.7,0.9,1.1c0.2,0.2,0.5,0.4,0.8,0.4
				c0.2,0,0.4,0,0.5,0l0.1,0c0.2,0,0.4,0.1,0.6,0.3c0.1,0.1,0.1,0.1,0.2,0.2c0,0,0.1,0.1,0.2,0.1c0,0,0.1,0,0.1,0
				c0,0,0.1-0.1,0.1-0.1c0-0.1,0-0.1-0.1-0.2c-0.1-0.1-0.2-0.2-0.3-0.3c-0.2-0.2-0.4-0.3-0.6-0.3c-0.2,0-0.3,0-0.5,0
				c0,0-0.1,0-0.1,0c-0.3,0-0.5-0.1-0.7-0.3c-0.4-0.5-0.8-1-1.2-1.5l-0.2-0.3c0,0,0,0,0,0c0,0,0,0,0,0c0,0,0,0,0,0c0,0,0,0,0,0
				l1.3,1.3c0.2,0.2,0.4,0.2,0.6,0c0.1-0.1,0.3-0.3,0.4-0.4l0.1-0.1c0.2-0.2,0.2-0.4,0-0.7l-1.3-1.3c0,0,0,0,0,0c0,0,0,0,0,0
				c0,0,0,0,0,0c0,0,0,0,0,0c0,0,0,0,0,0c0,0,0,0,0,0l0.5,0.4c0.4,0.3,0.8,0.7,1.2,1c0.2,0.2,0.3,0.4,0.3,0.6c0,0.2,0,0.4,0,0.5l0,0
				c0,0.3,0.1,0.5,0.2,0.6c0.1,0.1,0.2,0.2,0.3,0.3c0,0,0.1,0,0.1,0.1c0,0,0.1,0.1,0.2,0.1c0,0,0.1,0,0.1-0.1
				C73.7,23.9,73.7,23.8,73.6,23.7z"/>
		</g>
		<g>
			<g>
				<path class="st0" d="M77.9,20.8c0,0,0-0.1,0-0.1l0,0c0-0.2-0.1-0.2-0.3-0.2c0,0-0.1,0-0.1,0c-0.4,0-0.8,0.1-1.1,0.3
					c-0.3,0.2-0.6,0.5-0.9,0.8c-0.2,0.1-0.2,0.4-0.2,0.6c0,0.2,0,0.4,0,0.5c0,0.3-0.1,0.6-0.3,0.9c-0.6,0.6-1.2,1.2-1.8,1.8
					c-0.8,0.8-1.6,1.7-2.5,2.5c-0.1,0.1-0.1,0.2-0.1,0.3c0,0.1,0.1,0.2,0.1,0.3c0.1,0.1,0.2,0.1,0.3,0.1c0.1,0,0.2-0.1,0.3-0.1
					l2.2-2.8c0.5-0.7,1.1-1.3,1.6-2c0.2-0.3,0.5-0.4,0.8-0.4c0.2,0,0.3,0,0.5,0c0.3,0,0.5-0.1,0.6-0.4c0.2-0.3,0.4-0.6,0.5-0.8
					c0.2-0.3,0.3-0.6,0.3-1l0,0C77.9,20.9,77.9,20.9,77.9,20.8z"/>
			</g>
			<g>
				<path class="st0" d="M78.3,20.8L78.3,20.8c0-0.1,0-0.1,0-0.2c0-0.3-0.3-0.5-0.6-0.5c-0.6,0-1,0.1-1.4,0.4
					c-0.3,0.2-0.5,0.4-0.8,0.7l-0.1,0.1c-0.2,0.2-0.4,0.5-0.4,0.8c0,0.2,0,0.4,0,0.6c0,0.3-0.1,0.5-0.3,0.7c-1.3,1.3-2.6,2.7-3.9,4
					l-0.3,0.3c-0.1,0.1-0.1,0.1-0.2,0.2c-0.1,0.2-0.1,0.5,0,0.7c0.1,0.2,0.4,0.4,0.6,0.4c0,0,0,0,0.1,0c0.2,0,0.4-0.1,0.6-0.3
					c0.9-1.1,1.8-2.2,2.7-3.3l1.1-1.4c0.1-0.2,0.3-0.3,0.5-0.3c0.1,0,0.3,0,0.4,0l0.1,0c0.4,0,0.8-0.2,1-0.5
					c0.1-0.2,0.3-0.4,0.4-0.6l0-0.1c0.2-0.3,0.3-0.5,0.3-0.7c0-0.1,0-0.2,0.1-0.3c0-0.1,0-0.1,0-0.1l0,0L78.3,20.8z M77.6,22.1
					c-0.1,0.2-0.3,0.5-0.5,0.8c-0.2,0.2-0.4,0.3-0.6,0.4c-0.2,0-0.3,0-0.5,0c-0.3,0-0.6,0.2-0.8,0.4c-0.5,0.7-1.1,1.3-1.6,2
					l-2.2,2.8c-0.1,0.1-0.2,0.1-0.3,0.1c-0.1,0-0.2,0-0.3-0.1c-0.1-0.1-0.1-0.2-0.1-0.3c0-0.1,0-0.2,0.1-0.3
					c0.8-0.8,1.7-1.7,2.5-2.5c0.6-0.6,1.2-1.2,1.8-1.8c0.3-0.3,0.4-0.5,0.3-0.9c0-0.2,0-0.4,0-0.5c0-0.2,0.1-0.4,0.2-0.6
					c0.3-0.3,0.6-0.5,0.9-0.8c0.3-0.2,0.7-0.3,1.1-0.3c0,0,0.1,0,0.1,0c0.1,0,0.2,0.1,0.3,0.2l0,0c0,0,0,0.1,0,0.1c0,0,0,0.1,0,0.1
					l0,0C77.9,21.4,77.8,21.8,77.6,22.1z"/>
			</g>
			<g>
				<path class="st0" d="M78,27.6c-0.7-0.6-1.3-1.2-2-1.8l-0.9-0.8c0,0,0,0-0.1-0.1c-0.1,0-0.2,0-0.2,0c-0.1,0.1-0.1,0.2,0,0.2
					c0,0,0.1,0.1,0.1,0.1l0.7,0.6c0.7,0.6,1.4,1.3,2.1,1.9c0.1,0.1,0.1,0.1,0.1,0.2c0.1,0.2,0,0.4-0.2,0.5c-0.2,0.1-0.4,0.1-0.5-0.1
					l-2.3-2.6l-0.1-0.1c-0.1-0.1-0.1-0.1-0.2-0.2c0,0-0.1-0.1-0.2-0.1c-0.1,0-0.1,0.1-0.1,0.1c0,0.1,0,0.2,0.1,0.2l0.9,1
					c0.5,0.6,1.1,1.2,1.7,1.8c0.1,0.1,0.1,0.1,0.2,0.1c0.1,0.1,0.2,0.1,0.4,0.1c0.1,0,0.2,0,0.4-0.1c0.3-0.1,0.4-0.4,0.4-0.7v0
					C78.2,28,78.1,27.8,78,27.6z"/>
			</g>
		</g>
	</g>
	<g>
		<g>
			<path class="st0" d="M28.8,153.2c0.8,0,1.4-0.6,1.4-1.4c0-0.8-0.6-1.4-1.4-1.4c-0.8,0-1.4,0.6-1.4,1.4
				C27.4,152.5,28,153.2,28.8,153.2z"/>
		</g>
		<g>
			<path class="st0" d="M32.6,158.5c-0.7-1.4-1.3-2.9-2-4.3c0,0,0,0,0,0h0c-0.3-0.3-0.9-0.6-1.8-0.6c-0.9,0-1.5,0.3-1.8,0.6
				c0,0-1.4,2.9-2,4.4c0,0.1-0.1,0.2-0.1,0.4c0,0.3,0.2,0.5,0.5,0.5c0.3,0,0.5-0.1,0.6-0.3c0.1-0.2,0.2-0.5,0.3-0.7
				c0.2-0.5,0.4-0.9,0.6-1.4c0,0,0,0,0,0c0,0.1,0,0.1,0,0.2c0,2.4,0,4.7,0,7.1c0,0.1,0,0.2,0,0.2c0,0.4,0.5,0.7,0.9,0.6
				c0.4-0.1,0.6-0.4,0.6-0.8c0-1.3,0-2.7,0-4c0-0.1,0-0.1,0-0.2c0.2,0,0.4,0,0.5,0c0,0.1,0,0.1,0,0.2c0,1.3,0,2.6,0,4
				c0,0.1,0,0.1,0,0.2c0,0.4,0.3,0.6,0.7,0.7c0.3,0,0.7-0.2,0.7-0.5c0-0.1,0-0.2,0-0.3c0-2.4,0-4.7,0-7.1c0-0.1,0-0.1,0-0.2
				c0.1,0,0.1,0.1,0.1,0.2c0.3,0.6,0.6,1.2,0.9,1.9c0.2,0.3,0.5,0.5,0.8,0.3C32.6,159.2,32.7,158.8,32.6,158.5z"/>
		</g>
	</g>
	<g>
		<g>
			<path class="st0" d="M91.7,155.6c0.8,0,1.4-0.6,1.4-1.4c0-0.8-0.6-1.4-1.4-1.4c-0.8,0-1.4,0.6-1.4,1.4
				C90.2,155,90.9,155.6,91.7,155.6z"/>
		</g>
		<g>
			<path class="st0" d="M95.4,160.9c-0.7-1.4-1.3-2.9-2-4.3c0,0,0,0,0,0h0c-0.3-0.3-0.9-0.6-1.8-0.6c-0.9,0-1.5,0.3-1.8,0.6
				c0,0-1.4,2.9-2,4.4c0,0.1-0.1,0.2-0.1,0.4c0,0.3,0.2,0.5,0.5,0.5c0.3,0,0.5-0.1,0.6-0.3c0.1-0.2,0.2-0.5,0.3-0.7
				c0.2-0.5,0.4-0.9,0.6-1.4c0,0,0,0,0,0c0,0.1,0,0.1,0,0.2c0,2.4,0,4.7,0,7.1c0,0.1,0,0.2,0,0.2c0,0.4,0.5,0.7,0.9,0.6
				c0.4-0.1,0.6-0.4,0.6-0.8c0-1.3,0-2.7,0-4c0-0.1,0-0.1,0-0.2c0.2,0,0.4,0,0.5,0c0,0.1,0,0.1,0,0.2c0,1.3,0,2.6,0,4
				c0,0.1,0,0.1,0,0.2c0,0.4,0.3,0.6,0.7,0.7c0.3,0,0.7-0.2,0.7-0.5c0-0.1,0-0.2,0-0.3c0-2.4,0-4.7,0-7.1c0-0.1,0-0.1,0-0.2
				c0.1,0,0.1,0.1,0.1,0.2c0.3,0.6,0.6,1.2,0.9,1.9c0.2,0.3,0.5,0.5,0.8,0.3C95.5,161.6,95.6,161.3,95.4,160.9z"/>
		</g>
	</g>
	<g>
		<g>
			<path class="st0" d="M28.8,125.7c0.8,0,1.4-0.6,1.4-1.4c0-0.8-0.6-1.4-1.4-1.4c-0.8,0-1.4,0.7-1.4,1.4
				C27.4,125,28,125.7,28.8,125.7z"/>
		</g>
		<g>
			<path class="st0" d="M32.3,130.9c-0.6-1.4-1.2-2.8-1.8-4.2c0,0,0,0,0,0c0,0,0-0.1-0.1-0.1c-0.2-0.3-0.8-0.6-1.7-0.6
				c-0.8,0-1.4,0.3-1.7,0.6c0,0-0.1,0.1-0.1,0.1c0,0,0,0,0,0c-0.6,1.5-1.3,2.9-1.9,4.4c0,0.1,0,0.2,0,0.3c0,0,0,0.1,0,0.1
				c0.1,0.3,0.4,0.4,0.7,0.4c0.2,0,0.3-0.2,0.4-0.4c0.2-0.4,0.3-0.8,0.5-1.1c0,0.1,0,0.1,0,0.1c-0.1,0.7-0.3,1.5-0.4,2.2
				c-0.1,0.3,0.1,0.4,0.3,0.4c0.2,0,0.3,0,0.5,0c0,0.1,0,0.2,0,0.2c0,1.2,0,2.3,0,3.5c0,0.1,0,0.2,0,0.3c0,0.4,0.4,0.7,0.8,0.6
				c0.3-0.1,0.5-0.4,0.5-0.8c0-1.2,0-2.4,0-3.6c0-0.1,0-0.1,0-0.2c0.2,0,0.3,0,0.5,0c0,0.1,0,0.1,0,0.2c0,1.2,0,2.3,0,3.5
				c0,0.1,0,0.1,0,0.2c0,0.4,0.4,0.8,0.8,0.6c0.3-0.1,0.5-0.4,0.5-0.8c0-1.2,0-2.4,0-3.6c0-0.1,0-0.1,0-0.2c0.2,0,0.3,0,0.5,0
				c0.3,0,0.4-0.1,0.3-0.4c0-0.1,0-0.2,0-0.2c-0.1-0.7-0.3-1.4-0.4-2.1c0.1,0.1,0.1,0.1,0.1,0.2c0.2,0.4,0.3,0.7,0.5,1.1
				c0.1,0.2,0.3,0.3,0.6,0.3c0.2,0,0.4-0.2,0.4-0.5C32.4,131.2,32.4,131.1,32.3,130.9z"/>
		</g>
	</g>
	<g>
		<g>
			<path class="st0" d="M77.4,155.6c0.8,0,1.4-0.6,1.4-1.4c0-0.8-0.6-1.4-1.4-1.4c-0.8,0-1.4,0.7-1.4,1.4
				C75.9,155,76.6,155.6,77.4,155.6z"/>
		</g>
		<g>
			<path class="st0" d="M80.9,160.9c-0.6-1.4-1.2-2.8-1.8-4.2c0,0,0,0,0,0c0,0,0-0.1-0.1-0.1c-0.2-0.3-0.8-0.6-1.7-0.6
				c-0.8,0-1.4,0.3-1.7,0.6c0,0-0.1,0.1-0.1,0.1c0,0,0,0,0,0c-0.6,1.5-1.3,2.9-1.9,4.4c0,0.1,0,0.2,0,0.3c0,0,0,0.1,0,0.1
				c0.1,0.3,0.4,0.4,0.7,0.4c0.2,0,0.3-0.2,0.4-0.4c0.2-0.4,0.3-0.8,0.5-1.1c0,0.1,0,0.1,0,0.1c-0.1,0.7-0.3,1.5-0.4,2.2
				c-0.1,0.3,0.1,0.4,0.3,0.4c0.2,0,0.3,0,0.5,0c0,0.1,0,0.2,0,0.2c0,1.2,0,2.3,0,3.5c0,0.1,0,0.2,0,0.3c0,0.4,0.4,0.7,0.8,0.6
				c0.3-0.1,0.5-0.4,0.5-0.8c0-1.2,0-2.4,0-3.6c0-0.1,0-0.1,0-0.2c0.2,0,0.3,0,0.5,0c0,0.1,0,0.1,0,0.2c0,1.2,0,2.3,0,3.5
				c0,0.1,0,0.1,0,0.2c0,0.4,0.4,0.8,0.8,0.6c0.3-0.1,0.5-0.4,0.5-0.8c0-1.2,0-2.4,0-3.6c0-0.1,0-0.1,0-0.2c0.2,0,0.3,0,0.5,0
				c0.3,0,0.4-0.1,0.3-0.4c0-0.1,0-0.2,0-0.2c-0.1-0.7-0.3-1.4-0.4-2.1c0.1,0.1,0.1,0.1,0.1,0.2c0.2,0.4,0.3,0.7,0.5,1.1
				c0.1,0.2,0.3,0.3,0.6,0.3c0.2,0,0.4-0.2,0.4-0.5C81,161.2,80.9,161,80.9,160.9z"/>
		</g>
	</g>
	<g>
		<g id="_x35_fz77e_6_">
			<g>
				<g>
					<path class="st0" d="M85.4,128.5c-0.6,0.8-1.3,1.4-2.1,2.1c-0.2-0.2-0.3-0.5-0.5-0.7c-0.8,0.5-1.4,1.1-1.8,1.8
						c-0.4,0.7-0.7,1.5-0.8,2.4c0,0.1-0.1,0.2-0.2,0.2c-0.3,0-0.6,0-0.8,0c-0.1-1.8,0.2-3.5,1.5-4.9c1-1.1,2.3-1.5,3.7-1.7
						c0.1,0,0.3,0.1,0.4,0.2c0.1,0.1,0.3,0.3,0.4,0.4C85.4,128.5,85.4,128.5,85.4,128.5z"/>
				</g>
				<g>
					<path class="st0" d="M79.3,134.8c0.3,0,0.6,0,1,0c0,1,0,1.9,0,2.9c-0.3,0-0.6,0-1,0C79.3,136.8,79.3,135.8,79.3,134.8z"/>
				</g>
				<g>
					<path class="st0" d="M86,129.3c-0.2,0.1-0.3,0.2-0.3,0.2c-0.1,0-0.2-0.1-0.2-0.2c0-0.1,0.1-0.2,0.2-0.2
						C85.7,129.1,85.8,129.2,86,129.3z"/>
				</g>
				<g>
					<path class="st0" d="M85.7,129.8c-0.2,0.1-0.3,0.2-0.3,0.2c-0.1,0-0.2-0.2-0.2-0.2c0-0.1,0.2-0.2,0.2-0.2
						C85.4,129.6,85.5,129.7,85.7,129.8z"/>
				</g>
				<g>
					<path class="st0" d="M88.2,130.9c-0.2,0.1-0.3,0.2-0.4,0.2c-0.1,0-0.2-0.1-0.2-0.2c0-0.1,0.1-0.2,0.2-0.2
						C88,130.7,88.1,130.8,88.2,130.9z"/>
				</g>
				<g>
					<path class="st0" d="M88.2,133.2c0.1,0.2,0.2,0.3,0.2,0.3c0,0.1-0.1,0.2-0.2,0.2c0,0-0.2-0.1-0.2-0.2
						C88,133.4,88.1,133.3,88.2,133.2z"/>
				</g>
				<g>
					<path class="st0" d="M89,135.5c-0.2,0.1-0.2,0.2-0.3,0.2c-0.1,0-0.2-0.1-0.2-0.2c0-0.1,0.1-0.2,0.2-0.2
						C88.8,135.3,88.8,135.4,89,135.5z"/>
				</g>
				<g>
					<path class="st0" d="M86.4,130.4c-0.2,0.1-0.3,0.2-0.3,0.2c-0.1,0-0.2-0.1-0.2-0.2c0.1-0.1,0.2-0.2,0.3-0.2
						C86.1,130.2,86.2,130.3,86.4,130.4z"/>
				</g>
				<g>
					<path class="st0" d="M87.5,135.4c-0.1,0.1-0.2,0.2-0.3,0.2c-0.1,0-0.2-0.1-0.2-0.2c0-0.1,0.1-0.2,0.2-0.2
						C87.3,135.2,87.4,135.3,87.5,135.4z"/>
				</g>
				<g>
					<path class="st0" d="M85.9,130.9c-0.1,0.1-0.2,0.2-0.3,0.2c-0.1,0-0.2-0.1-0.2-0.2c0-0.1,0.1-0.2,0.2-0.2
						C85.7,130.6,85.8,130.8,85.9,130.9z"/>
				</g>
				<g>
					<path class="st0" d="M87.1,131c-0.2,0.1-0.3,0.3-0.3,0.2c-0.1,0-0.2-0.2-0.2-0.2c0.1-0.1,0.1-0.2,0.2-0.2
						C86.8,130.8,86.9,130.9,87.1,131z"/>
				</g>
				<g>
					<path class="st0" d="M85.1,130.9c0.1,0.2,0.2,0.2,0.2,0.3c0,0.1-0.1,0.2-0.2,0.2c-0.1-0.1-0.2-0.1-0.2-0.2
						C84.9,131.2,85,131.1,85.1,130.9z"/>
				</g>
				<g>
					<path class="st0" d="M88.9,134.5c-0.1-0.1-0.2-0.2-0.2-0.3c0-0.1,0.2-0.2,0.2-0.2c0.1,0.1,0.2,0.2,0.2,0.2
						C89.1,134.2,89,134.3,88.9,134.5z"/>
				</g>
				<g>
					<path class="st0" d="M89.7,132c-0.1,0.1-0.2,0.2-0.3,0.2c-0.1,0-0.2-0.1-0.2-0.2c0.1-0.1,0.2-0.2,0.3-0.2
						C89.5,131.8,89.6,131.9,89.7,132z"/>
				</g>
				<g>
					<path class="st0" d="M87.2,133.4c-0.2,0.1-0.3,0.2-0.3,0.2c-0.1,0-0.2-0.1-0.2-0.2c0.1-0.1,0.1-0.2,0.2-0.2
						C87,133.2,87.1,133.3,87.2,133.4z"/>
				</g>
				<g>
					<path class="st0" d="M88.5,132.2c-0.2,0.1-0.3,0.2-0.3,0.2c-0.1,0-0.2-0.1-0.2-0.2c0-0.1,0.1-0.2,0.2-0.2
						C88.2,132,88.3,132.1,88.5,132.2z"/>
				</g>
				<g>
					<path class="st0" d="M89.2,132.8c-0.2,0.1-0.3,0.2-0.4,0.2c-0.1,0-0.1-0.2-0.2-0.2c0.1-0.1,0.2-0.2,0.3-0.2
						C88.9,132.6,89,132.7,89.2,132.8z"/>
				</g>
				<g>
					<path class="st0" d="M86.7,129.9c-0.2,0.1-0.3,0.2-0.3,0.2c-0.1,0-0.1-0.1-0.2-0.2c0.1-0.1,0.2-0.2,0.2-0.2
						C86.5,129.7,86.6,129.8,86.7,129.9z"/>
				</g>
				<g>
					<path class="st0" d="M84.6,130.2c0.1,0.2,0.2,0.2,0.2,0.3c0,0.1-0.1,0.2-0.2,0.2c-0.1-0.1-0.2-0.1-0.2-0.2
						C84.3,130.5,84.4,130.4,84.6,130.2z"/>
				</g>
				<g>
					<path class="st0" d="M84.4,130.9c-0.2,0.1-0.3,0.2-0.3,0.2c-0.1,0-0.1-0.1-0.2-0.2c0.1-0.1,0.2-0.2,0.2-0.2
						C84.2,130.7,84.3,130.8,84.4,130.9z"/>
				</g>
				<g>
					<path class="st0" d="M89.5,135.1c-0.1-0.1-0.2-0.2-0.2-0.3c0-0.1,0.1-0.2,0.2-0.2c0.1,0.1,0.2,0.1,0.2,0.2
						C89.7,134.9,89.6,135,89.5,135.1z"/>
				</g>
				<g>
					<path class="st0" d="M86.7,134.4c0.1,0.1,0.2,0.2,0.2,0.3c0,0.1-0.1,0.2-0.2,0.2c-0.1,0-0.2-0.1-0.2-0.2
						C86.5,134.6,86.6,134.5,86.7,134.4z"/>
				</g>
				<g>
					<path class="st0" d="M91.2,133.1c-0.2,0.1-0.2,0.2-0.3,0.2c-0.1,0-0.2-0.1-0.2-0.2c0.1-0.1,0.1-0.2,0.2-0.2
						C91,132.9,91.1,133,91.2,133.1z"/>
				</g>
				<g>
					<path class="st0" d="M87.5,132.5c0.1,0.1,0.2,0.2,0.2,0.3c0,0.1-0.1,0.2-0.2,0.2c-0.1-0.1-0.2-0.2-0.2-0.2
						C87.3,132.8,87.4,132.7,87.5,132.5z"/>
				</g>
				<g>
					<path class="st0" d="M85.4,132.4c-0.1,0.1-0.2,0.2-0.3,0.2c-0.1,0-0.2-0.1-0.2-0.2c0-0.1,0.1-0.2,0.2-0.2
						C85.2,132.2,85.3,132.3,85.4,132.4z"/>
				</g>
				<g>
					<path class="st0" d="M86,133.2c-0.1,0.1-0.2,0.2-0.3,0.2c-0.1,0-0.2-0.1-0.2-0.2c0-0.1,0.1-0.2,0.2-0.2
						C85.7,133,85.8,133.1,86,133.2z"/>
				</g>
				<g>
					<path class="st0" d="M89.9,133.4c-0.2,0.1-0.3,0.2-0.3,0.2c-0.1,0-0.1-0.1-0.2-0.2c0.1-0.1,0.2-0.2,0.2-0.2
						C89.6,133.2,89.7,133.3,89.9,133.4z"/>
				</g>
				<g>
					<path class="st0" d="M85.7,131.7c0.1,0.2,0.2,0.2,0.2,0.3c0,0.1-0.1,0.2-0.2,0.2c-0.1-0.1-0.2-0.1-0.2-0.2
						C85.5,131.9,85.6,131.8,85.7,131.7z"/>
				</g>
				<g>
					<path class="st0" d="M90.2,133.7c0.1,0.1,0.2,0.2,0.2,0.3c0,0.1-0.1,0.2-0.2,0.3c-0.1-0.1-0.2-0.1-0.2-0.2
						C90,133.9,90.1,133.8,90.2,133.7z"/>
				</g>
				<g>
					<path class="st0" d="M87.4,131.3c0.1,0.2,0.2,0.2,0.2,0.3c0,0.1-0.1,0.2-0.2,0.2c-0.1-0.1-0.2-0.1-0.2-0.2
						C87.2,131.5,87.3,131.4,87.4,131.3z"/>
				</g>
				<g>
					<path class="st0" d="M84.6,131.3c0.1,0.2,0.2,0.2,0.2,0.3c0,0.1-0.1,0.2-0.2,0.2c-0.1,0-0.2-0.1-0.2-0.2
						C84.4,131.6,84.5,131.5,84.6,131.3z"/>
				</g>
				<g>
					<path class="st0" d="M86.2,131.9c-0.1-0.2-0.2-0.3-0.2-0.3c0-0.1,0.1-0.2,0.2-0.2c0.1,0,0.2,0.1,0.2,0.2
						C86.5,131.6,86.4,131.7,86.2,131.9z"/>
				</g>
				<g>
					<path class="st0" d="M88.6,131.2c0.1,0.2,0.2,0.2,0.2,0.3c0,0.1-0.1,0.2-0.2,0.2c-0.1-0.1-0.2-0.1-0.2-0.2
						C88.4,131.4,88.5,131.3,88.6,131.2z"/>
				</g>
				<g>
					<path class="st0" d="M87.5,130.4c-0.1,0.1-0.2,0.2-0.3,0.2c-0.1,0-0.2-0.1-0.2-0.2c0.1-0.1,0.1-0.2,0.2-0.2
						C87.2,130.2,87.3,130.3,87.5,130.4z"/>
				</g>
				<g>
					<path class="st0" d="M86.3,132.4c0.1,0.2,0.2,0.3,0.2,0.3c0,0.1-0.1,0.2-0.2,0.2c-0.1-0.1-0.2-0.2-0.2-0.2
						C86.1,132.6,86.2,132.5,86.3,132.4z"/>
				</g>
				<g>
					<path class="st0" d="M85.3,130.2c-0.2,0.1-0.3,0.2-0.3,0.2c-0.1,0-0.2-0.1-0.2-0.2c0-0.1,0.1-0.2,0.2-0.2
						C85.1,130,85.1,130.1,85.3,130.2z"/>
				</g>
				<g>
					<path class="st0" d="M86.9,131.9c0.1,0.2,0.2,0.2,0.2,0.3c0,0.1-0.1,0.2-0.2,0.2c-0.1,0-0.2-0.1-0.2-0.2
						C86.7,132.1,86.8,132,86.9,131.9z"/>
				</g>
				<g>
					<path class="st0" d="M88.1,136.2c-0.2,0.1-0.3,0.2-0.3,0.2c-0.1,0-0.2-0.1-0.2-0.2c0-0.1,0.1-0.2,0.2-0.2
						C87.8,136,87.9,136.1,88.1,136.2z"/>
				</g>
				<g>
					<path class="st0" d="M90.2,132.9c-0.1-0.2-0.2-0.2-0.2-0.3c0-0.1,0.1-0.1,0.2-0.2c0.1,0.1,0.2,0.1,0.3,0.2
						C90.4,132.6,90.3,132.7,90.2,132.9z"/>
				</g>
				<g>
					<path class="st0" d="M86.5,133.9c-0.2,0.1-0.3,0.2-0.3,0.2c-0.1,0-0.2-0.2-0.2-0.2c0.1-0.1,0.2-0.2,0.2-0.2
						C86.3,133.7,86.4,133.8,86.5,133.9z"/>
				</g>
				<g>
					<path class="st0" d="M87.2,134.1c0.1-0.1,0.2-0.2,0.3-0.2c0.1,0,0.2,0.1,0.2,0.2c-0.1,0.1-0.1,0.2-0.2,0.2
						C87.4,134.3,87.3,134.2,87.2,134.1z"/>
				</g>
				<g>
					<path class="st0" d="M88.1,134.5c0.1,0.2,0.2,0.3,0.2,0.3c0,0.1-0.1,0.2-0.2,0.2c-0.1,0-0.2-0.1-0.2-0.2
						C87.9,134.8,88,134.7,88.1,134.5z"/>
				</g>
			</g>
		</g>
	</g>
	<g>
		<path class="st0" d="M13.7,132.8l0.6-2.2c0-0.1,0-0.1,0-0.2c0-0.1,0-0.1,0-0.2c0-0.1,0-0.1,0-0.2c0-0.1,0-0.1,0-0.2
			c0,0.1,0,0.1,0,0.2c0,0.1,0,0.1,0,0.2c0,0.1,0,0.1,0,0.2c0,0.1,0,0.1,0,0.2l0.6,2.2h1.3l1.5-5.1h-1.4l-0.6,2.4c0,0.1,0,0.1,0,0.2
			c0,0.1,0,0.1,0,0.2c0,0.1,0,0.1,0,0.2c0,0.1,0,0.1,0,0.2c0-0.1,0-0.2-0.1-0.4c0-0.1-0.1-0.3-0.1-0.4l-0.6-2.4h-1.1l-0.7,2.5
			c0,0,0,0.1,0,0.1c0,0.1,0,0.1,0,0.2c0,0,0,0,0,0c0,0,0,0,0,0c0,0.1,0,0.1,0,0.2c0,0.1,0,0.1,0,0.2c0-0.1,0-0.1,0-0.2
			c0-0.1,0-0.1,0-0.2c0-0.1,0-0.1,0-0.2c0-0.1,0-0.1,0-0.2l-0.6-2.5h-1.4l1.4,5.1H13.7z"/>
	</g>
	<g>
		<path class="st0" d="M20.3,132.9C20.4,132.9,20.4,132.9,20.3,132.9c0.1,0,0.2,0,0.2,0s0.1,0,0.1,0c0,0,0.1,0,0.1,0
			c0.2,0,0.3,0,0.4,0c0.1,0,0.3-0.1,0.4-0.1c0.1,0,0.1,0,0.2-0.1c0.1,0,0.1-0.1,0.2-0.1v-1.5c-0.2,0.2-0.4,0.3-0.6,0.4
			c-0.2,0.1-0.4,0.2-0.6,0.2c-0.1,0-0.1,0-0.2,0c-0.1,0-0.1,0-0.2,0c-0.3-0.1-0.5-0.3-0.7-0.5c-0.2-0.3-0.2-0.5-0.2-0.9c0,0,0,0,0,0
			c0,0,0,0,0,0c0-0.3,0.1-0.6,0.3-0.9c0.2-0.3,0.5-0.4,0.9-0.5h0.1c0.3,0,0.5,0.1,0.7,0.2c0.2,0.1,0.4,0.3,0.6,0.4v-1.5
			c-0.2-0.1-0.4-0.2-0.7-0.2c-0.2-0.1-0.5-0.1-0.7-0.1c0,0-0.1,0-0.1,0c0,0-0.1,0-0.1,0c0,0-0.1,0-0.1,0c0,0-0.1,0-0.1,0
			c-0.7,0.1-1.2,0.4-1.6,0.9c-0.4,0.5-0.6,1.1-0.6,1.8c0,0.7,0.2,1.3,0.6,1.8C19.1,132.6,19.7,132.8,20.3,132.9z"/>
	</g>
	<g>
		<path class="st0" d="M13.7,161l0.6-2.2c0-0.1,0-0.1,0-0.2c0-0.1,0-0.1,0-0.2c0-0.1,0-0.1,0-0.2c0-0.1,0-0.1,0-0.2
			c0,0.1,0,0.1,0,0.2c0,0.1,0,0.1,0,0.2c0,0.1,0,0.1,0,0.2c0,0.1,0,0.1,0,0.2l0.6,2.2h1.3l1.5-5.1h-1.4l-0.6,2.4c0,0.1,0,0.1,0,0.2
			c0,0.1,0,0.1,0,0.2c0,0.1,0,0.1,0,0.2c0,0.1,0,0.1,0,0.2c0-0.1,0-0.2-0.1-0.4c0-0.1-0.1-0.3-0.1-0.4l-0.6-2.4h-1.1l-0.7,2.5
			c0,0,0,0.1,0,0.1c0,0.1,0,0.1,0,0.2c0,0,0,0,0,0c0,0,0,0,0,0c0,0.1,0,0.1,0,0.2c0,0.1,0,0.1,0,0.2c0-0.1,0-0.1,0-0.2
			c0-0.1,0-0.1,0-0.2c0-0.1,0-0.1,0-0.2c0-0.1,0-0.1,0-0.2l-0.6-2.5h-1.4l1.4,5.1H13.7z"/>
	</g>
	<g>
		<path class="st0" d="M20.3,161C20.4,161,20.4,161.1,20.3,161c0.1,0,0.2,0,0.2,0s0.1,0,0.1,0c0,0,0.1,0,0.1,0c0.2,0,0.3,0,0.4,0
			c0.1,0,0.3-0.1,0.4-0.1c0.1,0,0.1,0,0.2-0.1c0.1,0,0.1-0.1,0.2-0.1v-1.5c-0.2,0.2-0.4,0.3-0.6,0.4c-0.2,0.1-0.4,0.2-0.6,0.2
			c-0.1,0-0.1,0-0.2,0c-0.1,0-0.1,0-0.2,0c-0.3-0.1-0.5-0.3-0.7-0.5c-0.2-0.3-0.2-0.5-0.2-0.9c0,0,0,0,0,0c0,0,0,0,0,0
			c0-0.3,0.1-0.6,0.3-0.9c0.2-0.3,0.5-0.4,0.9-0.5h0.1c0.3,0,0.5,0.1,0.7,0.2c0.2,0.1,0.4,0.3,0.6,0.4V156c-0.2-0.1-0.4-0.2-0.7-0.2
			c-0.2-0.1-0.5-0.1-0.7-0.1c0,0-0.1,0-0.1,0c0,0-0.1,0-0.1,0c0,0-0.1,0-0.1,0c0,0-0.1,0-0.1,0c-0.7,0.1-1.2,0.4-1.6,0.9
			c-0.4,0.5-0.6,1.1-0.6,1.8c0,0.7,0.2,1.3,0.6,1.8C19.1,160.7,19.7,161,20.3,161z"/>
	</g>
	<g>
		<g>
			<path class="st0" d="M173,222.8c-1.3,0-2.1-1-2.1-2.1c0-1.2,0.9-2.2,2.1-2.2c0.4,0,0.8,0.1,1.1,0.2v1c-0.3-0.2-0.7-0.4-1.1-0.4
				c-0.7,0-1.2,0.5-1.2,1.3c0,0.7,0.4,1.3,1.3,1.3c0.5,0,0.8-0.1,1.1-0.3v0.9C173.9,222.7,173.5,222.8,173,222.8z"/>
			<path class="st0" d="M173,222.9c-1.3,0-2.2-0.9-2.2-2.2c0-1.3,0.9-2.2,2.2-2.2c0.4,0,0.8,0.1,1.1,0.2l0,0v1.2l-0.1-0.1
				c-0.3-0.2-0.7-0.4-1-0.4c-0.7,0-1.2,0.5-1.2,1.3c0,0.6,0.4,1.3,1.2,1.3c0.4,0,0.7-0.1,1-0.3l0.1-0.1v1.1l0,0
				C173.9,222.8,173.5,222.9,173,222.9z M173.1,218.6c-1.2,0-2.1,0.9-2.1,2.1c0,1.2,0.9,2.1,2,2.1c0.4,0,0.8-0.1,1.1-0.2v-0.8
				c-0.3,0.2-0.6,0.3-1,0.3c-0.9,0-1.3-0.7-1.3-1.4c0-0.8,0.5-1.4,1.3-1.4c0.3,0,0.7,0.1,1,0.3v-0.8
				C173.8,218.7,173.5,218.6,173.1,218.6z"/>
		</g>
		<g>
			<path class="st0" d="M177.8,222.8l-0.3-0.8h-1.7l-0.3,0.8h-1l1.6-4.1h1l1.7,4.1H177.8z M176.9,220.2c-0.1-0.2-0.2-0.5-0.2-0.7
				c-0.1,0.3-0.2,0.5-0.2,0.7l-0.3,0.9h1.2L176.9,220.2z"/>
			<path class="st0" d="M178.9,222.8h-1.1l-0.3-0.8h-1.6l-0.3,0.8h-1.1l1.7-4.3h1l0,0L178.9,222.8z M177.9,222.7h0.9l-1.7-4h-0.9
				l-1.6,4h0.8l0.3-0.8h1.8L177.9,222.7z M177.3,221.2H176l0.4-1c0.1-0.3,0.2-0.5,0.2-0.7l0.1-0.2l0.1,0.2c0.1,0.2,0.1,0.4,0.2,0.7
				L177.3,221.2z M176.2,221.1h1l-0.3-0.9c-0.1-0.2-0.1-0.4-0.2-0.5c0,0.2-0.1,0.3-0.2,0.5L176.2,221.1z"/>
		</g>
		<g>
			<path class="st0" d="M181.3,222.8l-1.1-1.7v1.7h-0.9v-4.1h1.3c0.5,0,0.9,0.1,1.2,0.4c0.2,0.2,0.3,0.5,0.3,0.9
				c0,0.6-0.4,1.1-1,1.2l1.2,1.8H181.3z M181.1,219.5c-0.2-0.2-0.4-0.2-0.6-0.2h-0.3v1.1h0.3c0.3,0,0.4-0.1,0.5-0.2
				c0.1-0.1,0.2-0.2,0.2-0.4C181.3,219.8,181.3,219.7,181.1,219.5z"/>
			<path class="st0" d="M182.5,222.8h-1.2l-1-1.6v1.6h-1v-4.3h1.3c0.6,0,1,0.1,1.3,0.4c0.2,0.2,0.4,0.5,0.4,0.9
				c0,0.6-0.4,1.1-0.9,1.2L182.5,222.8z M181.4,222.7h0.9l-1.2-1.7l0.1,0c0.5-0.1,0.9-0.5,0.9-1.1c0-0.3-0.1-0.6-0.3-0.8
				c-0.2-0.2-0.6-0.4-1.2-0.4h-1.2v4h0.8v-1.9L181.4,222.7z M180.6,220.5h-0.4v-1.2h0.4c0.2,0,0.5,0,0.6,0.2l0,0
				c0.1,0.1,0.1,0.2,0.1,0.4c0,0.2-0.1,0.3-0.2,0.4C181,220.4,180.9,220.5,180.6,220.5z M180.3,220.4h0.3c0.3,0,0.4,0,0.5-0.1
				c0.1-0.1,0.1-0.2,0.1-0.3c0-0.1,0-0.2-0.1-0.3c-0.1-0.1-0.3-0.2-0.5-0.2h-0.2V220.4z"/>
		</g>
		<g>
			<path class="st0" d="M184.9,222.9c-1.3,0-2.1-0.9-2.1-2.2c0-1.2,0.8-2.2,2.1-2.2c0.7,0,1.4,0.3,1.8,0.9l-0.7,0.4
				c-0.3-0.4-0.6-0.6-1.1-0.6c-0.8,0-1.2,0.6-1.2,1.3c0,0.7,0.4,1.4,1.2,1.4c0.5,0,1-0.3,1.1-0.7h-1.1v-0.8h2.1v0.2
				C187,221.9,186.2,222.9,184.9,222.9z"/>
			<path class="st0" d="M184.9,222.9c-1.3,0-2.2-0.9-2.2-2.2c0-1.3,0.9-2.2,2.2-2.2c0.8,0,1.5,0.4,1.9,1l0,0.1L186,220l0,0
				c-0.3-0.3-0.6-0.5-1-0.5c-0.8,0-1.2,0.6-1.2,1.3c0,0.7,0.4,1.3,1.2,1.3c0.5,0,0.8-0.2,1-0.6h-1.1v-0.9h2.2v0.2
				C187.1,222,186.2,222.9,184.9,222.9z M184.9,218.6c-1.2,0-2.1,0.9-2.1,2.1c0,1.2,0.8,2.1,2,2.1c1.2,0,2.1-0.8,2.1-2.1v-0.1h-2
				v0.6h1.1l0,0.1c-0.2,0.5-0.6,0.8-1.2,0.8c-0.9,0-1.3-0.7-1.3-1.5c0-0.7,0.4-1.4,1.3-1.4c0.5,0,0.8,0.2,1.1,0.5l0.6-0.4
				C186.3,218.9,185.6,218.6,184.9,218.6z"/>
		</g>
		<g>
			<path class="st0" d="M189.6,222.9c-1.2,0-2.2-1-2.2-2.2c0-1.2,1-2.2,2.2-2.2c1.2,0,2.2,1,2.2,2.2
				C191.8,221.9,190.8,222.9,189.6,222.9z M189.6,219.4c-0.7,0-1.3,0.6-1.3,1.3c0,0.7,0.5,1.3,1.3,1.3c0.7,0,1.3-0.6,1.3-1.3
				C190.9,219.9,190.3,219.4,189.6,219.4z"/>
			<path class="st0" d="M189.6,222.9c-1.3,0-2.3-1-2.3-2.2c0-1.2,1-2.2,2.3-2.2c1.3,0,2.3,1,2.3,2.2
				C191.9,221.9,190.9,222.9,189.6,222.9z M189.6,218.6c-1.2,0-2.1,1-2.1,2.1c0,1.2,0.9,2.1,2.1,2.1c1.2,0,2.1-0.9,2.1-2.1
				C191.7,219.5,190.8,218.6,189.6,218.6z M189.6,222.1c-0.8,0-1.3-0.6-1.3-1.4c0-0.8,0.6-1.4,1.3-1.4c0.8,0,1.3,0.6,1.3,1.4
				C190.9,221.5,190.4,222.1,189.6,222.1z M189.6,219.4c-0.7,0-1.2,0.6-1.2,1.3c0,0.7,0.5,1.3,1.2,1.3c0.7,0,1.2-0.5,1.2-1.3
				C190.8,220,190.3,219.4,189.6,219.4z"/>
		</g>
		<g>
			<path class="st0" d="M167.4,228.6v-4.1h2.3v0.8h-1.4v0.8h1.4v0.8h-1.4v0.9h1.4v0.8H167.4z"/>
			<path class="st0" d="M169.8,228.7h-2.5v-4.3h2.5v0.9h-1.4v0.7h1.4v0.9h-1.4v0.8h1.4V228.7z M167.5,228.5h2.2v-0.7h-1.4v-1h1.4
				v-0.7h-1.4v-0.9h1.4v-0.7h-2.2V228.5z"/>
		</g>
		<g>
			<path class="st0" d="M170.8,228.6v-4.1h0.9v3.3h1.4v0.8H170.8z"/>
			<path class="st0" d="M173.2,228.7h-2.5v-4.3h1v3.3h1.4V228.7z M170.9,228.5h2.2v-0.7h-1.4v-3.3h-0.8V228.5z"/>
		</g>
		<g>
			<path class="st0" d="M173.7,228.6v-4.1h2.3v0.8h-1.4v0.8h1.4v0.8h-1.4v0.9h1.4v0.8H173.7z"/>
			<path class="st0" d="M176.1,228.7h-2.5v-4.3h2.5v0.9h-1.4v0.7h1.4v0.9h-1.4v0.8h1.4V228.7z M173.8,228.5h2.2v-0.7h-1.4v-1h1.4
				v-0.7h-1.4v-0.9h1.4v-0.7h-2.2V228.5z"/>
		</g>
		<g>
			<path class="st0" d="M179.1,228.6h-1l-1.5-4.1h1l0.8,2.3c0.1,0.3,0.2,0.6,0.2,0.8c0.1-0.3,0.1-0.5,0.2-0.8l0.8-2.4h1L179.1,228.6
				z"/>
			<path class="st0" d="M179.1,228.7h-1.1l-1.6-4.3h1.1l0.8,2.4c0.1,0.2,0.1,0.4,0.2,0.6c0.1-0.2,0.1-0.4,0.2-0.6l0.8-2.4h1.1l0,0.1
				L179.1,228.7z M178.2,228.5h0.9l1.5-4h-0.8l-0.8,2.3c-0.1,0.3-0.2,0.5-0.2,0.8l-0.1,0.3l-0.1-0.3c-0.1-0.3-0.2-0.6-0.2-0.8
				l-0.8-2.3h-0.9L178.2,228.5z"/>
		</g>
		<g>
			<path class="st0" d="M183.7,228.6l-0.3-0.8h-1.7l-0.3,0.8h-1l1.6-4.1h1l1.7,4.1H183.7z M182.7,226c-0.1-0.2-0.2-0.5-0.2-0.7
				c-0.1,0.3-0.2,0.5-0.2,0.7l-0.3,0.9h1.2L182.7,226z"/>
			<path class="st0" d="M184.8,228.7h-1.1l-0.3-0.8h-1.6l-0.3,0.8h-1.1l1.7-4.3h1l0,0L184.8,228.7z M183.7,228.5h0.9l-1.7-4h-0.9
				l-1.6,4h0.8l0.3-0.8h1.8L183.7,228.5z M183.2,227h-1.3l0.4-1c0.1-0.3,0.2-0.5,0.2-0.7l0.1-0.2l0.1,0.2c0.1,0.2,0.1,0.4,0.2,0.7
				L183.2,227z M182,226.9h1l-0.3-0.9c-0.1-0.2-0.1-0.4-0.2-0.5c0,0.2-0.1,0.3-0.2,0.5L182,226.9z"/>
		</g>
		<g>
			<path class="st0" d="M186.2,225.3v3.3h-0.9v-3.3h-0.9v-0.8h2.7v0.8H186.2z"/>
			<path class="st0" d="M186.3,228.7h-1v-3.3h-0.9v-0.9h2.8v0.9h-0.9V228.7z M185.4,228.5h0.8v-3.3h0.9v-0.7h-2.6v0.7h0.9V228.5z"/>
		</g>
		<g>
			<path class="st0" d="M189.6,228.7c-1.2,0-2.2-1-2.2-2.2c0-1.2,1-2.2,2.2-2.2c1.2,0,2.2,1,2.2,2.2
				C191.8,227.7,190.8,228.7,189.6,228.7z M189.6,225.2c-0.7,0-1.3,0.6-1.3,1.3c0,0.7,0.5,1.3,1.3,1.3c0.7,0,1.3-0.6,1.3-1.3
				C190.9,225.8,190.3,225.2,189.6,225.2z"/>
			<path class="st0" d="M189.6,228.8c-1.3,0-2.3-1-2.3-2.2c0-1.2,1-2.2,2.3-2.2c1.3,0,2.3,1,2.3,2.2
				C191.9,227.8,190.8,228.8,189.6,228.8z M189.6,224.4c-1.2,0-2.1,1-2.1,2.1c0,1.2,0.9,2.1,2.1,2.1c1.2,0,2.1-0.9,2.1-2.1
				C191.7,225.3,190.8,224.4,189.6,224.4z M189.6,227.9c-0.8,0-1.3-0.6-1.3-1.4c0-0.8,0.6-1.4,1.3-1.4c0.8,0,1.3,0.6,1.3,1.4
				C190.9,227.3,190.3,227.9,189.6,227.9z M189.6,225.3c-0.7,0-1.2,0.6-1.2,1.3c0,0.7,0.5,1.3,1.2,1.3c0.7,0,1.2-0.5,1.2-1.3
				C190.8,225.8,190.3,225.3,189.6,225.3z"/>
		</g>
		<g>
			<path class="st0" d="M194.5,228.6l-1.1-1.7v1.7h-0.9v-4.1h1.3c0.5,0,0.9,0.1,1.2,0.4c0.2,0.2,0.3,0.5,0.3,0.9
				c0,0.6-0.4,1.1-1,1.2l1.2,1.8H194.5z M194.3,225.4c-0.2-0.2-0.4-0.2-0.6-0.2h-0.3v1.1h0.3c0.3,0,0.4-0.1,0.5-0.2
				c0.1-0.1,0.2-0.2,0.2-0.4C194.4,225.7,194.4,225.5,194.3,225.4z"/>
			<path class="st0" d="M195.7,228.7h-1.2l-1-1.6v1.6h-1v-4.3h1.3c0.6,0,1,0.1,1.3,0.4c0.2,0.2,0.4,0.5,0.4,0.9
				c0,0.6-0.4,1.1-0.9,1.2L195.7,228.7z M194.5,228.5h0.9l-1.2-1.7l0.1,0c0.5-0.1,0.9-0.5,0.9-1.1c0-0.3-0.1-0.6-0.3-0.8
				c-0.2-0.2-0.6-0.4-1.2-0.4h-1.2v4h0.8v-1.9L194.5,228.5z M193.7,226.3h-0.4v-1.2h0.4c0.2,0,0.5,0,0.6,0.2l0,0
				c0.1,0.1,0.1,0.2,0.1,0.4c0,0.2-0.1,0.3-0.2,0.4C194.2,226.3,194,226.3,193.7,226.3z M193.5,226.2h0.3c0.3,0,0.4,0,0.5-0.1
				c0.1-0.1,0.1-0.2,0.1-0.3c0-0.1,0-0.2-0.1-0.3c-0.1-0.1-0.3-0.2-0.5-0.2h-0.2V226.2z"/>
		</g>
	</g>
	<g>
		<g>
			<path class="st0" d="M85.2,162.6c-0.1,0-0.2,0-0.3,0c-0.1,0-0.2,0-0.3,0c0,0,0,0-0.1,0v0h-0.2c-0.1,0-0.2,0-0.3,0
				c-0.1,0-0.2,0-0.3,0c-0.1,0-0.2,0-0.3,0c-0.2,0-0.4,0.1-0.5,0.3c-0.1,0.2-0.1,0.4,0,0.5c0.3,0.6,0.5,1.1,0.8,1.7
				c0.1,0.2,0.3,0.3,0.5,0.3c0.2,0,0.4-0.1,0.5-0.3c0.3-0.5,0.6-1.1,0.8-1.7c0.1-0.2,0.1-0.4,0-0.5
				C85.6,162.8,85.5,162.6,85.2,162.6z"/>
		</g>
		<g>
			<path class="st0" d="M83.6,160.6c0.1,0,0.2,0,0.3,0c0.1,0,0.2,0,0.2,0c0.1,0,0.2,0,0.3,0c0.1,0,0.2,0,0.3,0c0.1,0,0.2,0,0.3,0
				c0.1,0,0.2,0,0.3,0c0.3,0,0.5-0.1,0.6-0.3c0.1-0.2,0.1-0.4,0-0.6c-0.3-0.6-0.5-1.1-0.8-1.6c-0.1-0.2-0.3-0.4-0.6-0.4
				s-0.4,0.1-0.6,0.4c-0.3,0.5-0.5,1-0.8,1.6c-0.1,0.2-0.1,0.4,0,0.6C83.1,160.4,83.3,160.6,83.6,160.6z"/>
		</g>
	</g>
	<g>
		<path class="st0" d="M192.5,208.4c-0.1,0-0.2,0-0.3,0c-0.1,0-0.2,0-0.3,0c0,0,0,0-0.1,0v0h-0.2c-0.1,0-0.2,0-0.3,0
			c-0.1,0-0.2,0-0.3,0c-0.1,0-0.2,0-0.3,0c-0.2,0-0.4,0.1-0.5,0.3c-0.1,0.2-0.1,0.4,0,0.5c0.3,0.6,0.5,1.1,0.8,1.7
			c0.1,0.2,0.3,0.3,0.5,0.3c0.2,0,0.4-0.1,0.5-0.3c0.3-0.5,0.6-1.1,0.8-1.7c0.1-0.2,0.1-0.4,0-0.5
			C192.9,208.6,192.7,208.5,192.5,208.4z"/>
	</g>
	<g>
		<path class="st0" d="M190.8,206.4c0.1,0,0.2,0,0.3,0c0.1,0,0.2,0,0.2,0c0.1,0,0.2,0,0.3,0c0.1,0,0.2,0,0.3,0c0.1,0,0.2,0,0.3,0
			c0.1,0,0.2,0,0.3,0c0.3,0,0.5-0.1,0.6-0.3c0.1-0.2,0.1-0.4,0-0.6c-0.3-0.6-0.5-1.1-0.8-1.6c-0.1-0.2-0.3-0.4-0.6-0.4
			c-0.2,0-0.4,0.1-0.6,0.4c-0.3,0.5-0.5,1-0.8,1.6c-0.1,0.2-0.1,0.4,0,0.6C190.4,206.3,190.6,206.4,190.8,206.4z"/>
	</g>
	<g>
		<g>
			<path class="st0" d="M169.3,212.8c0.1-0.3,0.2-0.6,0.4-0.9c0.4-0.5,0.9-0.7,1.6-0.6c0.1,0,0.1,0,0.2,0c0-0.1,0-0.1,0-0.2
				c0-3.2,0-6.5,0-9.7c0-0.6-0.3-1-1-1c-0.2,0-0.3,0-0.5,0c-0.1,0-0.1,0-0.2,0c-0.2,0-0.3-0.2-0.3-0.3c0-0.2,0.1-0.4,0.2-0.4
				c0.6,0,1.3-0.1,1.9,0.3c0.4,0.3,0.6,0.8,0.6,1.3c0,2.2,0,4.5,0,6.7c0,1.1,0,2.3,0,3.4c0,0.1,0,0.1,0,0.2c0.1,0,0.2,0,0.3,0
				c0-0.1,0-0.2,0-0.2c0-4.8,0-9.6,0-14.4c0-0.1,0-0.2,0-0.2c0-0.2,0.1-0.3,0.3-0.3c0.1,0,0.1,0,0.2,0c2.4,0,4.9,0,7.3,0
				c0.4,0,0.5,0.1,0.5,0.5c0,1.3,0,2.6,0,3.9c0,0.1,0,0.1,0,0.2c0.1,0,0.2,0,0.2,0c1.7,0,3.4,0,5.1,0c0.4,0,0.5,0.1,0.5,0.6
				c0,3.3,0,6.5,0,9.8c0,0.1,0,0.1,0,0.2c0.1,0,0.2,0,0.4,0c0.3,0,0.4,0.2,0.4,0.4c0,0.2-0.2,0.3-0.4,0.4c-0.1,0-0.2,0-0.3,0
				c-0.1,0-0.2,0-0.3,0c0.3,0.8,0.2,1.5-0.5,1.9c-0.5,0.3-1.2,0.3-1.6-0.1c-0.5-0.4-0.6-1-0.4-1.8c-3.8,0-7.6,0-11.5,0
				c0.1,0.4,0.1,0.7,0,1c-0.2,0.6-0.6,0.9-1.2,1.1c-0.6,0.1-1.1-0.1-1.6-0.5c-0.3-0.3-0.4-0.6-0.4-1
				C169.3,213,169.3,212.9,169.3,212.8z M180.9,202c0,3.3,0,6.5,0,9.8c1.7,0,3.4,0,5.2,0c0-3.3,0-6.5,0-9.8
				C184.3,202,182.6,202,180.9,202z M173.3,204.9c0,2.3,0,4.6,0,6.9c2.3,0,4.6,0,6.9,0c0-2.3,0-4.6,0-6.9
				C177.9,204.9,175.6,204.9,173.3,204.9z M180.2,204.1c0-2.3,0-4.6,0-6.9c-2.3,0-4.6,0-6.9,0c0,2.3,0,4.6,0,6.9
				C175.6,204.1,177.9,204.1,180.2,204.1z M170.1,213c0,0.5,0.4,1,1,0.9c0.5,0,0.9-0.4,0.9-0.9c0-0.5-0.4-1-0.9-1
				C170.5,212,170.1,212.4,170.1,213z M186.1,213.2c0-0.4-0.3-0.7-0.7-0.7c-0.4,0-0.7,0.3-0.7,0.7c0,0.4,0.3,0.7,0.7,0.7
				C185.8,213.9,186.1,213.6,186.1,213.2z"/>
		</g>
		<g>
			<path class="st0" d="M185.5,206.8c0,1.3,0,2.6,0,3.8c0,0.4-0.1,0.5-0.5,0.5c-1,0-2,0-3,0c-0.4,0-0.5-0.1-0.5-0.5
				c0-2.6,0-5.1,0-7.7c0-0.4,0.1-0.5,0.5-0.5c1,0,2,0,3,0c0.4,0,0.5,0.1,0.5,0.5C185.5,204.3,185.5,205.6,185.5,206.8z M182.2,206.7
				c0,0.4,0,0.8,0,1.1c0,0.1,0,0.2,0.1,0.2c0.7,0.8,1.5,1.5,2.3,2.3c0,0,0.1,0.1,0.2,0.1c0-0.4,0-0.8,0-1.1c0-0.1,0-0.2-0.1-0.3
				c-0.7-0.8-1.5-1.5-2.2-2.3C182.3,206.8,182.3,206.8,182.2,206.7z M184.8,208.2c0-0.4,0-0.7,0-1.1c0-0.1,0-0.2-0.1-0.3
				c-0.7-0.8-1.5-1.5-2.3-2.3c0,0-0.1-0.1-0.1-0.1c0,0.4,0,0.7,0,1.1c0,0.1,0,0.2,0.1,0.3c0.8,0.8,1.5,1.5,2.3,2.3
				C184.6,208.1,184.7,208.1,184.8,208.2z M182.3,203.2C182.2,203.2,182.2,203.3,182.3,203.2c0,0.1,0,0.2,0.1,0.3
				c0.8,0.8,1.5,1.5,2.3,2.3c0,0,0.1,0.1,0.1,0.1c0,0,0,0,0-0.1c0-0.3,0-0.7,0-1c0-0.1,0-0.1-0.1-0.2c-0.4-0.4-0.9-0.9-1.3-1.3
				c0,0-0.1-0.1-0.1-0.1C182.9,203.2,182.6,203.2,182.3,203.2z M182.2,209.1c0,0.4,0,0.9,0,1.4c0.5,0,0.9,0,1.4,0
				C183.1,210,182.7,209.6,182.2,209.1z M184.7,203.2c-0.1,0-0.3,0-0.4,0c0.1,0.1,0.3,0.3,0.4,0.4
				C184.7,203.5,184.7,203.4,184.7,203.2z"/>
		</g>
		<g>
			<path class="st0" d="M179.1,205.5c-1.6,0-3.1,0-4.7,0c-0.4,0-0.5,0.1-0.5,0.5c0,1.6,0,3.1,0,4.7c0,0.4,0.1,0.5,0.5,0.5
				c0.8,0,1.6,0,2.3,0c0.8,0,1.6,0,2.4,0c0.4,0,0.5-0.1,0.5-0.5c0-1.6,0-3.1,0-4.7C179.6,205.6,179.4,205.5,179.1,205.5z
				 M178.8,206.2c0,0.4,0,0.9,0,1.3c-0.4-0.4-0.9-0.9-1.3-1.3C177.9,206.2,178.4,206.2,178.8,206.2z M176.3,206.2
				c0.1,0,0.1,0,0.2,0.1c0.7,0.7,1.5,1.5,2.2,2.2c0,0,0.1,0.1,0.1,0.2c0,0.4,0,0.8,0,1.2c-0.7-0.7-2.9-2.9-3.6-3.6
				c0,0-0.1-0.1-0.2-0.2C175.5,206.2,175.9,206.2,176.3,206.2z M174.6,210.4c0-0.4,0-0.9,0-1.3c0.4,0.4,0.9,0.9,1.3,1.3
				C175.5,210.4,175.1,210.4,174.6,210.4z M177.2,210.4c-0.1,0-0.2,0-0.2-0.1c-0.7-0.7-1.5-1.5-2.2-2.2c-0.1-0.1-0.1-0.2-0.1-0.2
				c0-0.4,0-0.7,0-1.1c0.1,0.1,0.1,0.1,0.2,0.2c0.7,0.7,2.9,2.9,3.6,3.6C177.9,210.4,177.5,210.4,177.2,210.4z"/>
		</g>
		<g>
			<path class="st0" d="M173.9,200.7c0-0.8,0-1.6,0-2.4c0-0.4,0.1-0.5,0.5-0.5c1.6,0,3.1,0,4.7,0c0.4,0,0.5,0.1,0.5,0.5
				c0,1.6,0,3.2,0,4.7c0,0.3-0.1,0.5-0.5,0.5c-1.6,0-3.1,0-4.7,0c-0.4,0-0.5-0.1-0.5-0.5C173.9,202.3,173.9,201.5,173.9,200.7z
				 M175.2,198.6c1.2,1.2,2.4,2.4,3.6,3.6c0-0.4,0-0.7,0-1.1c0-0.1,0-0.1-0.1-0.2c-0.7-0.7-1.5-1.5-2.2-2.2c0,0-0.1-0.1-0.1-0.1
				C176,198.6,175.6,198.6,175.2,198.6z M178.2,202.8c-1.2-1.2-2.4-2.4-3.6-3.6c0,0.4,0,0.8,0,1.1c0,0.1,0,0.1,0.1,0.1
				c0.8,0.8,1.5,1.5,2.3,2.3c0,0,0.1,0.1,0.1,0.1C177.5,202.8,177.9,202.8,178.2,202.8z M177.5,198.6c0.4,0.4,0.9,0.9,1.3,1.3
				c0-0.4,0-0.9,0-1.3C178.4,198.6,177.9,198.6,177.5,198.6z M175.9,202.8c-0.4-0.4-0.9-0.9-1.3-1.3c0,0.4,0,0.8,0,1.3
				C175,202.8,175.5,202.8,175.9,202.8z"/>
		</g>
	</g>
	<g>
		<path class="st0" d="M70.5,174.6v-4.1h2.3v0.8h-1.4v0.8h1.4v0.8h-1.4v0.9h1.4v0.8H70.5z"/>
		<path class="st0" d="M73,174.7h-2.5v-4.3H73v0.9h-1.4v0.7h1.4v0.9h-1.4v0.8H73V174.7z M70.6,174.6h2.2v-0.7h-1.4v-1h1.4v-0.7h-1.4
			v-0.9h1.4v-0.7h-2.2V174.6z"/>
	</g>
	<g>
		<path class="st0" d="M73.9,174.6v-4.1h0.9v3.3h1.4v0.8H73.9z"/>
		<path class="st0" d="M76.4,174.7h-2.5v-4.3h1v3.3h1.4V174.7z M74,174.6h2.2v-0.7h-1.4v-3.3H74V174.6z"/>
	</g>
	<g>
		<path class="st0" d="M76.9,174.6v-4.1h2.3v0.8h-1.4v0.8h1.4v0.8h-1.4v0.9h1.4v0.8H76.9z"/>
		<path class="st0" d="M79.3,174.7h-2.5v-4.3h2.5v0.9h-1.4v0.7h1.4v0.9h-1.4v0.8h1.4V174.7z M76.9,174.6h2.2v-0.7h-1.4v-1h1.4v-0.7
			h-1.4v-0.9h1.4v-0.7h-2.2V174.6z"/>
	</g>
	<g>
		<path class="st0" d="M82.2,174.6h-1l-1.5-4.1h1l0.8,2.3c0.1,0.3,0.2,0.6,0.2,0.8c0.1-0.3,0.1-0.5,0.2-0.8l0.8-2.4h1L82.2,174.6z"
			/>
		<path class="st0" d="M82.3,174.7h-1.1l-1.6-4.3h1.1l0.8,2.4c0.1,0.2,0.1,0.4,0.2,0.6c0.1-0.2,0.1-0.4,0.2-0.6l0.8-2.4h1.1l0,0.1
			L82.3,174.7z M81.3,174.6h0.9l1.5-4h-0.8l-0.8,2.3c-0.1,0.3-0.2,0.5-0.2,0.8l-0.1,0.3l-0.1-0.3c-0.1-0.3-0.2-0.6-0.2-0.8l-0.8-2.3
			h-0.9L81.3,174.6z"/>
	</g>
	<g>
		<path class="st0" d="M86.8,174.6l-0.3-0.8h-1.7l-0.3,0.8h-1l1.6-4.1h1l1.7,4.1H86.8z M85.9,172.1c-0.1-0.2-0.2-0.5-0.2-0.7
			c-0.1,0.3-0.2,0.5-0.2,0.7l-0.3,0.9h1.2L85.9,172.1z"/>
		<path class="st0" d="M87.9,174.7h-1.1l-0.3-0.8h-1.6l-0.3,0.8h-1.1l1.7-4.3h1l0,0L87.9,174.7z M86.9,174.6h0.9l-1.7-4h-0.9l-1.6,4
			h0.8l0.3-0.8h1.8L86.9,174.6z M86.3,173.1H85l0.4-1c0.1-0.3,0.2-0.5,0.2-0.7l0.1-0.2l0.1,0.2c0.1,0.2,0.1,0.4,0.2,0.7L86.3,173.1z
			 M85.2,172.9h1l-0.3-0.9c-0.1-0.2-0.1-0.4-0.2-0.5c0,0.2-0.1,0.3-0.2,0.5L85.2,172.9z"/>
	</g>
	<g>
		<path class="st0" d="M89.4,171.3v3.3h-0.9v-3.3h-0.9v-0.8h2.7v0.8H89.4z"/>
		<path class="st0" d="M89.4,174.7h-1v-3.3h-0.9v-0.9h2.8v0.9h-0.9V174.7z M88.5,174.6h0.8v-3.3h0.9v-0.7h-2.6v0.7h0.9V174.6z"/>
	</g>
	<g>
		<path class="st0" d="M92.7,174.7c-1.2,0-2.2-1-2.2-2.2c0-1.2,1-2.2,2.2-2.2c1.2,0,2.2,1,2.2,2.2C94.9,173.8,93.9,174.7,92.7,174.7
			z M92.7,171.2c-0.7,0-1.3,0.6-1.3,1.3c0,0.7,0.5,1.3,1.3,1.3c0.7,0,1.3-0.6,1.3-1.3C94,171.8,93.5,171.2,92.7,171.2z"/>
		<path class="st0" d="M92.7,174.8c-1.3,0-2.3-1-2.3-2.2c0-1.2,1-2.2,2.3-2.2c1.3,0,2.3,1,2.3,2.2C95,173.8,94,174.8,92.7,174.8z
			 M92.7,170.4c-1.2,0-2.1,1-2.1,2.1c0,1.2,0.9,2.1,2.1,2.1c1.2,0,2.1-0.9,2.1-2.1C94.9,171.4,93.9,170.4,92.7,170.4z M92.7,173.9
			c-0.8,0-1.3-0.6-1.3-1.4c0-0.8,0.6-1.4,1.3-1.4c0.8,0,1.3,0.6,1.3,1.4C94.1,173.3,93.5,173.9,92.7,173.9z M92.7,171.3
			c-0.7,0-1.2,0.6-1.2,1.3c0,0.7,0.5,1.3,1.2,1.3c0.7,0,1.2-0.5,1.2-1.3C93.9,171.8,93.4,171.3,92.7,171.3z"/>
	</g>
	<g>
		<path class="st0" d="M97.6,174.6l-1.1-1.7v1.7h-0.9v-4.1h1.3c0.5,0,0.9,0.1,1.2,0.4c0.2,0.2,0.3,0.5,0.3,0.9c0,0.6-0.4,1.1-1,1.2
			l1.2,1.8H97.6z M97.5,171.4c-0.2-0.2-0.4-0.2-0.6-0.2h-0.3v1.1h0.3c0.3,0,0.4-0.1,0.5-0.2c0.1-0.1,0.2-0.2,0.2-0.4
			C97.6,171.7,97.6,171.5,97.5,171.4z"/>
		<path class="st0" d="M98.8,174.7h-1.2l-1-1.6v1.6h-1v-4.3h1.3c0.6,0,1,0.1,1.3,0.4c0.2,0.2,0.4,0.5,0.4,0.9c0,0.6-0.4,1.1-0.9,1.2
			L98.8,174.7z M97.7,174.6h0.9l-1.2-1.7l0.1,0c0.5-0.1,0.9-0.5,0.9-1.1c0-0.3-0.1-0.6-0.3-0.8c-0.2-0.2-0.6-0.4-1.2-0.4h-1.2v4h0.8
			v-1.9L97.7,174.6z M96.9,172.4h-0.4v-1.2h0.4c0.2,0,0.5,0,0.6,0.2l0,0c0.1,0.1,0.1,0.2,0.1,0.4c0,0.2-0.1,0.3-0.2,0.4
			C97.3,172.3,97.2,172.4,96.9,172.4z M96.6,172.2h0.3c0.3,0,0.4,0,0.5-0.1c0.1-0.1,0.1-0.2,0.1-0.3c0-0.1,0-0.2-0.1-0.3
			c-0.1-0.1-0.3-0.2-0.5-0.2h-0.2V172.2z"/>
	</g>
	<g>
		<g>
			<path class="st0" d="M229.4,23.5v-5.1c0-1.1-0.8-1.9-1.9-1.9c-1.1,0-1.9,0.8-1.9,1.9v5.1c-0.8,0.6-1.3,1.5-1.3,2.5
				c0,1.8,1.4,3.2,3.2,3.2c1.8,0,3.2-1.4,3.2-3.2C230.7,25,230.3,24,229.4,23.5z M227.5,28.6c-1.4,0-2.5-1.1-2.5-2.5
				c0-0.8,0.4-1.7,1.1-2.1c0.1-0.1,0.1-0.2,0.1-0.3v-5.3c0-0.7,0.6-1.3,1.3-1.3c0.7,0,1.3,0.6,1.3,1.3v5.3c0,0.1,0.1,0.2,0.1,0.3
				c0.7,0.4,1.1,1.3,1.1,2.1C230.1,27.4,228.9,28.6,227.5,28.6z"/>
		</g>
		<g>
			<path class="st0" d="M228.2,24.2v-3.9c0-0.4-0.3-0.6-0.6-0.6c-0.4,0-0.6,0.3-0.6,0.6v3.9c-0.8,0.3-1.3,1-1.3,1.8
				c0,1.1,0.8,1.9,1.9,1.9c1.1,0,1.9-0.8,1.9-1.9C229.4,25.2,228.9,24.5,228.2,24.2z"/>
		</g>
		<g>
			<path class="st0" d="M230.4,18.4h1.3c0.2,0,0.3-0.1,0.3-0.3s-0.1-0.3-0.3-0.3h-1.3c-0.2,0-0.3,0.1-0.3,0.3S230.2,18.4,230.4,18.4
				z"/>
		</g>
		<g>
			<path class="st0" d="M230.4,19.6h0.6c0.2,0,0.3-0.1,0.3-0.3S231.2,19,231,19h-0.6c-0.2,0-0.3,0.1-0.3,0.3S230.2,19.6,230.4,19.6z
				"/>
		</g>
		<g>
			<path class="st0" d="M231.7,20.3h-1.3c-0.2,0-0.3,0.1-0.3,0.3s0.1,0.3,0.3,0.3h1.3c0.2,0,0.3-0.1,0.3-0.3S231.9,20.3,231.7,20.3z
				"/>
		</g>
		<g>
			<path class="st0" d="M230.4,22.2h0.6c0.2,0,0.3-0.1,0.3-0.3s-0.1-0.3-0.3-0.3h-0.6c-0.2,0-0.3,0.1-0.3,0.3S230.2,22.2,230.4,22.2
				z"/>
		</g>
		<g>
			<path class="st0" d="M231.7,22.8h-1.3c-0.2,0-0.3,0.1-0.3,0.3s0.1,0.3,0.3,0.3h1.3c0.2,0,0.3-0.1,0.3-0.3S231.9,22.8,231.7,22.8z
				"/>
		</g>
	</g>
	<g>
		<path class="st0" d="M225.5,240.3h-1.6l-0.3,0.8h-1.2l1.7-4.4h1.3l1.7,4.4h-1.2L225.5,240.3z M225.2,239.4l-0.5-1.5l-0.5,1.5
			H225.2z"/>
		<path class="st0" d="M229.7,236.2h0.8l-2.4,5.9h-0.8L229.7,236.2z"/>
		<path class="st0" d="M233.9,238.1c-0.3-0.3-0.6-0.5-1-0.5c-0.2,0-0.3,0-0.5,0.1c-0.1,0.1-0.3,0.1-0.4,0.3
			c-0.1,0.1-0.2,0.2-0.2,0.4c-0.1,0.1-0.1,0.3-0.1,0.5c0,0.2,0,0.3,0.1,0.5c0.1,0.1,0.1,0.3,0.3,0.4c0.1,0.1,0.2,0.2,0.4,0.3
			c0.1,0.1,0.3,0.1,0.5,0.1c0.4,0,0.7-0.2,1-0.5v1.4l-0.1,0c-0.2,0.1-0.3,0.1-0.5,0.1c-0.2,0-0.3,0-0.5,0c-0.3,0-0.6-0.1-0.9-0.2
			c-0.3-0.1-0.5-0.3-0.7-0.5c-0.2-0.2-0.4-0.5-0.5-0.7c-0.1-0.3-0.2-0.6-0.2-0.9c0-0.3,0.1-0.7,0.2-0.9s0.3-0.5,0.5-0.7
			c0.2-0.2,0.5-0.4,0.7-0.5c0.3-0.1,0.6-0.2,0.9-0.2c0.2,0,0.3,0,0.5,0.1c0.2,0,0.3,0.1,0.5,0.2V238.1z"/>
	</g>
	<g>
		<g>
			<path class="st0" d="M229.4,228.5v-5.1c0-1.1-0.8-1.9-1.9-1.9c-1.1,0-1.9,0.8-1.9,1.9v5.1c-0.8,0.6-1.3,1.5-1.3,2.5
				c0,1.8,1.4,3.2,3.2,3.2c1.8,0,3.2-1.4,3.2-3.2C230.7,230,230.3,229.1,229.4,228.5z M227.5,233.6c-1.4,0-2.5-1.1-2.5-2.5
				c0-0.8,0.4-1.7,1.1-2.1c0.1-0.1,0.1-0.2,0.1-0.3v-5.3c0-0.7,0.6-1.3,1.3-1.3c0.7,0,1.3,0.6,1.3,1.3v5.3c0,0.1,0.1,0.2,0.1,0.3
				c0.7,0.4,1.1,1.3,1.1,2.1C230.1,232.5,228.9,233.6,227.5,233.6z"/>
		</g>
		<g>
			<path class="st0" d="M228.2,229.3v-3.9c0-0.4-0.3-0.6-0.6-0.6c-0.4,0-0.6,0.3-0.6,0.6v3.9c-0.8,0.3-1.3,1-1.3,1.8
				c0,1.1,0.8,1.9,1.9,1.9c1.1,0,1.9-0.8,1.9-1.9C229.4,230.2,228.9,229.5,228.2,229.3z"/>
		</g>
		<g>
			<path class="st0" d="M230.4,223.4h1.3c0.2,0,0.3-0.1,0.3-0.3c0-0.2-0.1-0.3-0.3-0.3h-1.3c-0.2,0-0.3,0.1-0.3,0.3
				C230.1,223.3,230.2,223.4,230.4,223.4z"/>
		</g>
		<g>
			<path class="st0" d="M230.4,224.7h0.6c0.2,0,0.3-0.1,0.3-0.3s-0.1-0.3-0.3-0.3h-0.6c-0.2,0-0.3,0.1-0.3,0.3
				S230.2,224.7,230.4,224.7z"/>
		</g>
		<g>
			<path class="st0" d="M231.7,225.3h-1.3c-0.2,0-0.3,0.1-0.3,0.3s0.1,0.3,0.3,0.3h1.3c0.2,0,0.3-0.1,0.3-0.3
				S231.9,225.3,231.7,225.3z"/>
		</g>
		<g>
			<path class="st0" d="M230.4,227.2h0.6c0.2,0,0.3-0.1,0.3-0.3s-0.1-0.3-0.3-0.3h-0.6c-0.2,0-0.3,0.1-0.3,0.3
				S230.2,227.2,230.4,227.2z"/>
		</g>
		<g>
			<path class="st0" d="M231.7,227.9h-1.3c-0.2,0-0.3,0.1-0.3,0.3c0,0.2,0.1,0.3,0.3,0.3h1.3c0.2,0,0.3-0.1,0.3-0.3
				C232,228,231.9,227.9,231.7,227.9z"/>
		</g>
	</g>
	<g>
		<g>
			<rect x="215" y="199.5" class="st0" width="0.5" height="0.5"/>
		</g>
		<g>
			<path class="st0" d="M493.6,200h-1v-0.5h1V200z M491.6,200h-1v-0.5h1V200z M489.5,200h-1v-0.5h1V200z M487.4,200h-1v-0.5h1V200z
				 M485.3,200h-1v-0.5h1V200z M483.3,200h-1v-0.5h1V200z M481.2,200h-1v-0.5h1V200z M479.1,200h-1v-0.5h1V200z M477,200h-1v-0.5h1
				V200z M475,200h-1v-0.5h1V200z M472.9,200h-1v-0.5h1V200z M470.8,200h-1v-0.5h1V200z M468.7,200h-1v-0.5h1V200z M466.7,200h-1
				v-0.5h1V200z M464.6,200h-1v-0.5h1V200z M462.5,200h-1v-0.5h1V200z M460.4,200h-1v-0.5h1V200z M458.4,200h-1v-0.5h1V200z
				 M456.3,200h-1v-0.5h1V200z M454.2,200h-1v-0.5h1V200z M452.1,200h-1v-0.5h1V200z M450.1,200h-1v-0.5h1V200z M448,200h-1v-0.5h1
				V200z M445.9,200h-1v-0.5h1V200z M443.8,200h-1v-0.5h1V200z M441.8,200h-1v-0.5h1V200z M439.7,200h-1v-0.5h1V200z M437.6,200h-1
				v-0.5h1V200z M435.5,200h-1v-0.5h1V200z M433.5,200h-1v-0.5h1V200z M431.4,200h-1v-0.5h1V200z M429.3,200h-1v-0.5h1V200z
				 M427.2,200h-1v-0.5h1V200z M425.2,200h-1v-0.5h1V200z M423.1,200h-1v-0.5h1V200z M421,200h-1v-0.5h1V200z M418.9,200h-1v-0.5h1
				V200z M416.9,200h-1v-0.5h1V200z M414.8,200h-1v-0.5h1V200z M412.7,200h-1v-0.5h1V200z M410.6,200h-1v-0.5h1V200z M408.6,200h-1
				v-0.5h1V200z M406.5,200h-1v-0.5h1V200z M404.4,200h-1v-0.5h1V200z M402.3,200h-1v-0.5h1V200z M400.3,200h-1v-0.5h1V200z
				 M398.2,200h-1v-0.5h1V200z M396.1,200h-1v-0.5h1V200z M394,200h-1v-0.5h1V200z M392,200h-1v-0.5h1V200z M389.9,200h-1v-0.5h1
				V200z M387.8,200h-1v-0.5h1V200z M385.7,200h-1v-0.5h1V200z M383.7,200h-1v-0.5h1V200z M381.6,200h-1v-0.5h1V200z M379.5,200h-1
				v-0.5h1V200z M377.4,200h-1v-0.5h1V200z M375.4,200h-1v-0.5h1V200z M373.3,200h-1v-0.5h1V200z M371.2,200h-1v-0.5h1V200z
				 M369.1,200h-1v-0.5h1V200z M367.1,200h-1v-0.5h1V200z M365,200h-1v-0.5h1V200z M362.9,200h-1v-0.5h1V200z M360.8,200h-1v-0.5h1
				V200z M358.8,200h-1v-0.5h1V200z M356.7,200h-1v-0.5h1V200z M354.6,200h-1v-0.5h1V200z M352.5,200h-1v-0.5h1V200z M350.5,200h-1
				v-0.5h1V200z M348.4,200h-1v-0.5h1V200z M346.3,200h-1v-0.5h1V200z M344.2,200h-1v-0.5h1V200z M342.2,200h-1v-0.5h1V200z
				 M340.1,200h-1v-0.5h1V200z M338,200h-1v-0.5h1V200z M335.9,200h-1v-0.5h1V200z M333.9,200h-1v-0.5h1V200z M331.8,200h-1v-0.5h1
				V200z M329.7,200h-1v-0.5h1V200z M327.6,200h-1v-0.5h1V200z M325.6,200h-1v-0.5h1V200z M323.5,200h-1v-0.5h1V200z M321.4,200h-1
				v-0.5h1V200z M319.3,200h-1v-0.5h1V200z M317.3,200h-1v-0.5h1V200z M315.2,200h-1v-0.5h1V200z M313.1,200h-1v-0.5h1V200z
				 M311,200h-1v-0.5h1V200z M309,200h-1v-0.5h1V200z M306.9,200h-1v-0.5h1V200z M304.8,200h-1v-0.5h1V200z M302.7,200h-1v-0.5h1
				V200z M300.7,200h-1v-0.5h1V200z M298.6,200h-1v-0.5h1V200z M296.5,200h-1v-0.5h1V200z M294.4,200h-1v-0.5h1V200z M292.4,200h-1
				v-0.5h1V200z M290.3,200h-1v-0.5h1V200z M288.2,200h-1v-0.5h1V200z M286.1,200h-1v-0.5h1V200z M284,200h-1v-0.5h1V200z M282,200
				h-1v-0.5h1V200z M279.9,200h-1v-0.5h1V200z M277.8,200h-1v-0.5h1V200z M275.7,200h-1v-0.5h1V200z M273.7,200h-1v-0.5h1V200z
				 M271.6,200h-1v-0.5h1V200z M269.5,200h-1v-0.5h1V200z M267.4,200h-1v-0.5h1V200z M265.4,200h-1v-0.5h1V200z M263.3,200h-1v-0.5
				h1V200z M261.2,200h-1v-0.5h1V200z M259.1,200h-1v-0.5h1V200z M257.1,200h-1v-0.5h1V200z M255,200h-1v-0.5h1V200z M252.9,200h-1
				v-0.5h1V200z M250.8,200h-1v-0.5h1V200z M248.8,200h-1v-0.5h1V200z M246.7,200h-1v-0.5h1V200z M244.6,200h-1v-0.5h1V200z
				 M242.5,200h-1v-0.5h1V200z M240.5,200h-1v-0.5h1V200z M238.4,200h-1v-0.5h1V200z M236.3,200h-1v-0.5h1V200z M234.2,200h-1v-0.5
				h1V200z M232.2,200h-1v-0.5h1V200z M230.1,200h-1v-0.5h1V200z M228,200h-1v-0.5h1V200z M225.9,200h-1v-0.5h1V200z M223.9,200h-1
				v-0.5h1V200z M221.8,200h-1v-0.5h1V200z M219.7,200h-1v-0.5h1V200z M217.6,200h-1v-0.5h1V200z"/>
		</g>
		<g>
			<rect x="494.7" y="199.5" class="st0" width="0.5" height="0.5"/>
		</g>
		<g>
			<g>
				<polygon class="st0" points="215.4,201.1 213.2,199.8 215.4,198.5 				"/>
			</g>
		</g>
		<g>
			<g>
				<polygon class="st0" points="494.8,201.1 497.1,199.8 494.8,198.5 				"/>
			</g>
		</g>
	</g>
	<g>
		<g>
			<rect x="153.6" y="172.3" class="st0" width="0.5" height="0.5"/>
		</g>
		<g>
			<path class="st0" d="M493.6,172.8h-1v-0.5h1V172.8z M491.6,172.8h-1v-0.5h1V172.8z M489.5,172.8h-1v-0.5h1V172.8z M487.4,172.8
				h-1v-0.5h1V172.8z M485.4,172.8h-1v-0.5h1V172.8z M483.3,172.8h-1v-0.5h1V172.8z M481.2,172.8h-1v-0.5h1V172.8z M479.2,172.8h-1
				v-0.5h1V172.8z M477.1,172.8h-1v-0.5h1V172.8z M475,172.8h-1v-0.5h1V172.8z M472.9,172.8h-1v-0.5h1V172.8z M470.9,172.8h-1v-0.5
				h1V172.8z M468.8,172.8h-1v-0.5h1V172.8z M466.7,172.8h-1v-0.5h1V172.8z M464.7,172.8h-1v-0.5h1V172.8z M462.6,172.8h-1v-0.5h1
				V172.8z M460.5,172.8h-1v-0.5h1V172.8z M458.5,172.8h-1v-0.5h1V172.8z M456.4,172.8h-1v-0.5h1V172.8z M454.3,172.8h-1v-0.5h1
				V172.8z M452.2,172.8h-1v-0.5h1V172.8z M450.2,172.8h-1v-0.5h1V172.8z M448.1,172.8h-1v-0.5h1V172.8z M446,172.8h-1v-0.5h1V172.8
				z M444,172.8h-1v-0.5h1V172.8z M441.9,172.8h-1v-0.5h1V172.8z M439.8,172.8h-1v-0.5h1V172.8z M437.8,172.8h-1v-0.5h1V172.8z
				 M435.7,172.8h-1v-0.5h1V172.8z M433.6,172.8h-1v-0.5h1V172.8z M431.5,172.8h-1v-0.5h1V172.8z M429.5,172.8h-1v-0.5h1V172.8z
				 M427.4,172.8h-1v-0.5h1V172.8z M425.3,172.8h-1v-0.5h1V172.8z M423.3,172.8h-1v-0.5h1V172.8z M421.2,172.8h-1v-0.5h1V172.8z
				 M419.1,172.8h-1v-0.5h1V172.8z M417,172.8h-1v-0.5h1V172.8z M415,172.8h-1v-0.5h1V172.8z M412.9,172.8h-1v-0.5h1V172.8z
				 M410.8,172.8h-1v-0.5h1V172.8z M408.8,172.8h-1v-0.5h1V172.8z M406.7,172.8h-1v-0.5h1V172.8z M404.6,172.8h-1v-0.5h1V172.8z
				 M402.6,172.8h-1v-0.5h1V172.8z M400.5,172.8h-1v-0.5h1V172.8z M398.4,172.8h-1v-0.5h1V172.8z M396.3,172.8h-1v-0.5h1V172.8z
				 M394.3,172.8h-1v-0.5h1V172.8z M392.2,172.8h-1v-0.5h1V172.8z M390.1,172.8h-1v-0.5h1V172.8z M388.1,172.8h-1v-0.5h1V172.8z
				 M386,172.8h-1v-0.5h1V172.8z M383.9,172.8h-1v-0.5h1V172.8z M381.9,172.8h-1v-0.5h1V172.8z M379.8,172.8h-1v-0.5h1V172.8z
				 M377.7,172.8h-1v-0.5h1V172.8z M375.6,172.8h-1v-0.5h1V172.8z M373.6,172.8h-1v-0.5h1V172.8z M371.5,172.8h-1v-0.5h1V172.8z
				 M369.4,172.8h-1v-0.5h1V172.8z M367.4,172.8h-1v-0.5h1V172.8z M365.3,172.8h-1v-0.5h1V172.8z M363.2,172.8h-1v-0.5h1V172.8z
				 M361.2,172.8h-1v-0.5h1V172.8z M359.1,172.8h-1v-0.5h1V172.8z M357,172.8h-1v-0.5h1V172.8z M354.9,172.8h-1v-0.5h1V172.8z
				 M352.9,172.8h-1v-0.5h1V172.8z M350.8,172.8h-1v-0.5h1V172.8z M348.7,172.8h-1v-0.5h1V172.8z M346.7,172.8h-1v-0.5h1V172.8z
				 M344.6,172.8h-1v-0.5h1V172.8z M342.5,172.8h-1v-0.5h1V172.8z M340.5,172.8h-1v-0.5h1V172.8z M338.4,172.8h-1v-0.5h1V172.8z
				 M336.3,172.8h-1v-0.5h1V172.8z M334.2,172.8h-1v-0.5h1V172.8z M332.2,172.8h-1v-0.5h1V172.8z M330.1,172.8h-1v-0.5h1V172.8z
				 M328,172.8h-1v-0.5h1V172.8z M326,172.8h-1v-0.5h1V172.8z M323.9,172.8h-1v-0.5h1V172.8z M321.8,172.8h-1v-0.5h1V172.8z
				 M319.8,172.8h-1v-0.5h1V172.8z M317.7,172.8h-1v-0.5h1V172.8z M315.6,172.8h-1v-0.5h1V172.8z M313.5,172.8h-1v-0.5h1V172.8z
				 M311.5,172.8h-1v-0.5h1V172.8z M309.4,172.8h-1v-0.5h1V172.8z M307.3,172.8h-1v-0.5h1V172.8z M305.3,172.8h-1v-0.5h1V172.8z
				 M303.2,172.8h-1v-0.5h1V172.8z M301.1,172.8h-1v-0.5h1V172.8z M299,172.8h-1v-0.5h1V172.8z M297,172.8h-1v-0.5h1V172.8z
				 M294.9,172.8h-1v-0.5h1V172.8z M292.8,172.8h-1v-0.5h1V172.8z M290.8,172.8h-1v-0.5h1V172.8z M288.7,172.8h-1v-0.5h1V172.8z
				 M286.6,172.8h-1v-0.5h1V172.8z M284.6,172.8h-1v-0.5h1V172.8z M282.5,172.8h-1v-0.5h1V172.8z M280.4,172.8h-1v-0.5h1V172.8z
				 M278.3,172.8h-1v-0.5h1V172.8z M276.3,172.8h-1v-0.5h1V172.8z M274.2,172.8h-1v-0.5h1V172.8z M272.1,172.8h-1v-0.5h1V172.8z
				 M270.1,172.8h-1v-0.5h1V172.8z M268,172.8h-1v-0.5h1V172.8z M265.9,172.8h-1v-0.5h1V172.8z M263.9,172.8h-1v-0.5h1V172.8z
				 M261.8,172.8h-1v-0.5h1V172.8z M259.7,172.8h-1v-0.5h1V172.8z M257.6,172.8h-1v-0.5h1V172.8z M255.6,172.8h-1v-0.5h1V172.8z
				 M253.5,172.8h-1v-0.5h1V172.8z M251.4,172.8h-1v-0.5h1V172.8z M249.4,172.8h-1v-0.5h1V172.8z M247.3,172.8h-1v-0.5h1V172.8z
				 M245.2,172.8h-1v-0.5h1V172.8z M243.2,172.8h-1v-0.5h1V172.8z M241.1,172.8h-1v-0.5h1V172.8z M239,172.8h-1v-0.5h1V172.8z
				 M236.9,172.8h-1v-0.5h1V172.8z M234.9,172.8h-1v-0.5h1V172.8z M232.8,172.8h-1v-0.5h1V172.8z M230.7,172.8h-1v-0.5h1V172.8z
				 M228.7,172.8h-1v-0.5h1V172.8z M226.6,172.8h-1v-0.5h1V172.8z M224.5,172.8h-1v-0.5h1V172.8z M222.5,172.8h-1v-0.5h1V172.8z
				 M220.4,172.8h-1v-0.5h1V172.8z M218.3,172.8h-1v-0.5h1V172.8z M216.2,172.8h-1v-0.5h1V172.8z M214.2,172.8h-1v-0.5h1V172.8z
				 M212.1,172.8h-1v-0.5h1V172.8z M210,172.8h-1v-0.5h1V172.8z M208,172.8h-1v-0.5h1V172.8z M205.9,172.8h-1v-0.5h1V172.8z
				 M203.8,172.8h-1v-0.5h1V172.8z M201.8,172.8h-1v-0.5h1V172.8z M199.7,172.8h-1v-0.5h1V172.8z M197.6,172.8h-1v-0.5h1V172.8z
				 M195.5,172.8h-1v-0.5h1V172.8z M193.5,172.8h-1v-0.5h1V172.8z M191.4,172.8h-1v-0.5h1V172.8z M189.3,172.8h-1v-0.5h1V172.8z
				 M187.3,172.8h-1v-0.5h1V172.8z M185.2,172.8h-1v-0.5h1V172.8z M183.1,172.8h-1v-0.5h1V172.8z M181,172.8h-1v-0.5h1V172.8z
				 M179,172.8h-1v-0.5h1V172.8z M176.9,172.8h-1v-0.5h1V172.8z M174.8,172.8h-1v-0.5h1V172.8z M172.8,172.8h-1v-0.5h1V172.8z
				 M170.7,172.8h-1v-0.5h1V172.8z M168.6,172.8h-1v-0.5h1V172.8z M166.6,172.8h-1v-0.5h1V172.8z M164.5,172.8h-1v-0.5h1V172.8z
				 M162.4,172.8h-1v-0.5h1V172.8z M160.3,172.8h-1v-0.5h1V172.8z M158.3,172.8h-1v-0.5h1V172.8z M156.2,172.8h-1v-0.5h1V172.8z"/>
		</g>
		<g>
			<rect x="494.7" y="172.3" class="st0" width="0.5" height="0.5"/>
		</g>
		<g>
			<g>
				<polygon class="st0" points="154,173.9 151.8,172.6 154,171.3 				"/>
			</g>
		</g>
		<g>
			<g>
				<polygon class="st0" points="494.8,173.9 497.1,172.6 494.8,171.3 				"/>
			</g>
		</g>
	</g>
	<g>
		<g>
			<rect x="107.3" y="144.6" class="st0" width="0.5" height="0.5"/>
		</g>
		<g>
			<path class="st0" d="M493.6,145.1h-1v-0.5h1V145.1z M491.6,145.1h-1v-0.5h1V145.1z M489.5,145.1h-1v-0.5h1V145.1z M487.4,145.1
				h-1v-0.5h1V145.1z M485.3,145.1h-1v-0.5h1V145.1z M483.3,145.1h-1v-0.5h1V145.1z M481.2,145.1h-1v-0.5h1V145.1z M479.1,145.1h-1
				v-0.5h1V145.1z M477.1,145.1h-1v-0.5h1V145.1z M475,145.1h-1v-0.5h1V145.1z M472.9,145.1h-1v-0.5h1V145.1z M470.8,145.1h-1v-0.5
				h1V145.1z M468.8,145.1h-1v-0.5h1V145.1z M466.7,145.1h-1v-0.5h1V145.1z M464.6,145.1h-1v-0.5h1V145.1z M462.5,145.1h-1v-0.5h1
				V145.1z M460.5,145.1h-1v-0.5h1V145.1z M458.4,145.1h-1v-0.5h1V145.1z M456.3,145.1h-1v-0.5h1V145.1z M454.2,145.1h-1v-0.5h1
				V145.1z M452.2,145.1h-1v-0.5h1V145.1z M450.1,145.1h-1v-0.5h1V145.1z M448,145.1h-1v-0.5h1V145.1z M445.9,145.1h-1v-0.5h1V145.1
				z M443.9,145.1h-1v-0.5h1V145.1z M441.8,145.1h-1v-0.5h1V145.1z M439.7,145.1h-1v-0.5h1V145.1z M437.6,145.1h-1v-0.5h1V145.1z
				 M435.6,145.1h-1v-0.5h1V145.1z M433.5,145.1h-1v-0.5h1V145.1z M431.4,145.1h-1v-0.5h1V145.1z M429.3,145.1h-1v-0.5h1V145.1z
				 M427.3,145.1h-1v-0.5h1V145.1z M425.2,145.1h-1v-0.5h1V145.1z M423.1,145.1h-1v-0.5h1V145.1z M421,145.1h-1v-0.5h1V145.1z
				 M419,145.1h-1v-0.5h1V145.1z M416.9,145.1h-1v-0.5h1V145.1z M414.8,145.1h-1v-0.5h1V145.1z M412.8,145.1h-1v-0.5h1V145.1z
				 M410.7,145.1h-1v-0.5h1V145.1z M408.6,145.1h-1v-0.5h1V145.1z M406.5,145.1h-1v-0.5h1V145.1z M404.5,145.1h-1v-0.5h1V145.1z
				 M402.4,145.1h-1v-0.5h1V145.1z M400.3,145.1h-1v-0.5h1V145.1z M398.2,145.1h-1v-0.5h1V145.1z M396.2,145.1h-1v-0.5h1V145.1z
				 M394.1,145.1h-1v-0.5h1V145.1z M392,145.1h-1v-0.5h1V145.1z M389.9,145.1h-1v-0.5h1V145.1z M387.9,145.1h-1v-0.5h1V145.1z
				 M385.8,145.1h-1v-0.5h1V145.1z M383.7,145.1h-1v-0.5h1V145.1z M381.6,145.1h-1v-0.5h1V145.1z M379.6,145.1h-1v-0.5h1V145.1z
				 M377.5,145.1h-1v-0.5h1V145.1z M375.4,145.1h-1v-0.5h1V145.1z M373.3,145.1h-1v-0.5h1V145.1z M371.3,145.1h-1v-0.5h1V145.1z
				 M369.2,145.1h-1v-0.5h1V145.1z M367.1,145.1h-1v-0.5h1V145.1z M365,145.1h-1v-0.5h1V145.1z M363,145.1h-1v-0.5h1V145.1z
				 M360.9,145.1h-1v-0.5h1V145.1z M358.8,145.1h-1v-0.5h1V145.1z M356.8,145.1h-1v-0.5h1V145.1z M354.7,145.1h-1v-0.5h1V145.1z
				 M352.6,145.1h-1v-0.5h1V145.1z M350.5,145.1h-1v-0.5h1V145.1z M348.5,145.1h-1v-0.5h1V145.1z M346.4,145.1h-1v-0.5h1V145.1z
				 M344.3,145.1h-1v-0.5h1V145.1z M342.2,145.1h-1v-0.5h1V145.1z M340.2,145.1h-1v-0.5h1V145.1z M338.1,145.1h-1v-0.5h1V145.1z
				 M336,145.1h-1v-0.5h1V145.1z M333.9,145.1h-1v-0.5h1V145.1z M331.9,145.1h-1v-0.5h1V145.1z M329.8,145.1h-1v-0.5h1V145.1z
				 M327.7,145.1h-1v-0.5h1V145.1z M325.6,145.1h-1v-0.5h1V145.1z M323.6,145.1h-1v-0.5h1V145.1z M321.5,145.1h-1v-0.5h1V145.1z
				 M319.4,145.1h-1v-0.5h1V145.1z M317.3,145.1h-1v-0.5h1V145.1z M315.3,145.1h-1v-0.5h1V145.1z M313.2,145.1h-1v-0.5h1V145.1z
				 M311.1,145.1h-1v-0.5h1V145.1z M309,145.1h-1v-0.5h1V145.1z M307,145.1h-1v-0.5h1V145.1z M304.9,145.1h-1v-0.5h1V145.1z
				 M302.8,145.1h-1v-0.5h1V145.1z M300.7,145.1h-1v-0.5h1V145.1z M298.7,145.1h-1v-0.5h1V145.1z M296.6,145.1h-1v-0.5h1V145.1z
				 M294.5,145.1h-1v-0.5h1V145.1z M292.5,145.1h-1v-0.5h1V145.1z M290.4,145.1h-1v-0.5h1V145.1z M288.3,145.1h-1v-0.5h1V145.1z
				 M286.2,145.1h-1v-0.5h1V145.1z M284.2,145.1h-1v-0.5h1V145.1z M282.1,145.1h-1v-0.5h1V145.1z M280,145.1h-1v-0.5h1V145.1z
				 M277.9,145.1h-1v-0.5h1V145.1z M275.9,145.1h-1v-0.5h1V145.1z M273.8,145.1h-1v-0.5h1V145.1z M271.7,145.1h-1v-0.5h1V145.1z
				 M269.6,145.1h-1v-0.5h1V145.1z M267.6,145.1h-1v-0.5h1V145.1z M265.5,145.1h-1v-0.5h1V145.1z M263.4,145.1h-1v-0.5h1V145.1z
				 M261.3,145.1h-1v-0.5h1V145.1z M259.3,145.1h-1v-0.5h1V145.1z M257.2,145.1h-1v-0.5h1V145.1z M255.1,145.1h-1v-0.5h1V145.1z
				 M253,145.1h-1v-0.5h1V145.1z M251,145.1h-1v-0.5h1V145.1z M248.9,145.1h-1v-0.5h1V145.1z M246.8,145.1h-1v-0.5h1V145.1z
				 M244.7,145.1h-1v-0.5h1V145.1z M242.7,145.1h-1v-0.5h1V145.1z M240.6,145.1h-1v-0.5h1V145.1z M238.5,145.1h-1v-0.5h1V145.1z
				 M236.4,145.1h-1v-0.5h1V145.1z M234.4,145.1h-1v-0.5h1V145.1z M232.3,145.1h-1v-0.5h1V145.1z M230.2,145.1h-1v-0.5h1V145.1z
				 M228.2,145.1h-1v-0.5h1V145.1z M226.1,145.1h-1v-0.5h1V145.1z M224,145.1h-1v-0.5h1V145.1z M221.9,145.1h-1v-0.5h1V145.1z
				 M219.9,145.1h-1v-0.5h1V145.1z M217.8,145.1h-1v-0.5h1V145.1z M215.7,145.1h-1v-0.5h1V145.1z M213.6,145.1h-1v-0.5h1V145.1z
				 M211.6,145.1h-1v-0.5h1V145.1z M209.5,145.1h-1v-0.5h1V145.1z M207.4,145.1h-1v-0.5h1V145.1z M205.3,145.1h-1v-0.5h1V145.1z
				 M203.3,145.1h-1v-0.5h1V145.1z M201.2,145.1h-1v-0.5h1V145.1z M199.1,145.1h-1v-0.5h1V145.1z M197,145.1h-1v-0.5h1V145.1z
				 M195,145.1h-1v-0.5h1V145.1z M192.9,145.1h-1v-0.5h1V145.1z M190.8,145.1h-1v-0.5h1V145.1z M188.7,145.1h-1v-0.5h1V145.1z
				 M186.7,145.1h-1v-0.5h1V145.1z M184.6,145.1h-1v-0.5h1V145.1z M182.5,145.1h-1v-0.5h1V145.1z M180.4,145.1h-1v-0.5h1V145.1z
				 M178.4,145.1h-1v-0.5h1V145.1z M176.3,145.1h-1v-0.5h1V145.1z M174.2,145.1h-1v-0.5h1V145.1z M172.2,145.1h-1v-0.5h1V145.1z
				 M170.1,145.1h-1v-0.5h1V145.1z M168,145.1h-1v-0.5h1V145.1z M165.9,145.1h-1v-0.5h1V145.1z M163.9,145.1h-1v-0.5h1V145.1z
				 M161.8,145.1h-1v-0.5h1V145.1z M159.7,145.1h-1v-0.5h1V145.1z M157.6,145.1h-1v-0.5h1V145.1z M155.6,145.1h-1v-0.5h1V145.1z
				 M153.5,145.1h-1v-0.5h1V145.1z M151.4,145.1h-1v-0.5h1V145.1z M149.3,145.1h-1v-0.5h1V145.1z M147.3,145.1h-1v-0.5h1V145.1z
				 M145.2,145.1h-1v-0.5h1V145.1z M143.1,145.1h-1v-0.5h1V145.1z M141,145.1h-1v-0.5h1V145.1z M139,145.1h-1v-0.5h1V145.1z
				 M136.9,145.1h-1v-0.5h1V145.1z M134.8,145.1h-1v-0.5h1V145.1z M132.7,145.1h-1v-0.5h1V145.1z M130.7,145.1h-1v-0.5h1V145.1z
				 M128.6,145.1h-1v-0.5h1V145.1z M126.5,145.1h-1v-0.5h1V145.1z M124.4,145.1h-1v-0.5h1V145.1z M122.4,145.1h-1v-0.5h1V145.1z
				 M120.3,145.1h-1v-0.5h1V145.1z M118.2,145.1h-1v-0.5h1V145.1z M116.1,145.1h-1v-0.5h1V145.1z M114.1,145.1h-1v-0.5h1V145.1z
				 M112,145.1h-1v-0.5h1V145.1z M109.9,145.1h-1v-0.5h1V145.1z"/>
		</g>
		<g>
			<rect x="494.7" y="144.6" class="st0" width="0.5" height="0.5"/>
		</g>
		<g>
			<g>
				<polygon class="st0" points="107.7,146.1 105.5,144.8 107.7,143.5 				"/>
			</g>
		</g>
		<g>
			<g>
				<polygon class="st0" points="494.8,146.1 497.1,144.8 494.8,143.5 				"/>
			</g>
		</g>
	</g>
	<g>
		<g>
			<rect x="468.8" y="8.1" class="st0" width="0.5" height="0.5"/>
		</g>
		<g>
			<path class="st0" d="M469.3,250.1h-0.5v-1h0.5V250.1z M469.3,248.1h-0.5v-1h0.5V248.1z M469.3,246h-0.5v-1h0.5V246z M469.3,243.9
				h-0.5v-1h0.5V243.9z M469.3,241.8h-0.5v-1h0.5V241.8z M469.3,239.7h-0.5v-1h0.5V239.7z M469.3,237.7h-0.5v-1h0.5V237.7z
				 M469.3,235.6h-0.5v-1h0.5V235.6z M469.3,233.5h-0.5v-1h0.5V233.5z M469.3,231.4h-0.5v-1h0.5V231.4z M469.3,229.3h-0.5v-1h0.5
				V229.3z M469.3,227.2h-0.5v-1h0.5V227.2z M469.3,225.2h-0.5v-1h0.5V225.2z M469.3,223.1h-0.5v-1h0.5V223.1z M469.3,221h-0.5v-1
				h0.5V221z M469.3,218.9h-0.5v-1h0.5V218.9z M469.3,216.8h-0.5v-1h0.5V216.8z M469.3,214.8h-0.5v-1h0.5V214.8z M469.3,212.7h-0.5
				v-1h0.5V212.7z M469.3,210.6h-0.5v-1h0.5V210.6z M469.3,208.5h-0.5v-1h0.5V208.5z M469.3,206.4h-0.5v-1h0.5V206.4z M469.3,204.3
				h-0.5v-1h0.5V204.3z M469.3,202.3h-0.5v-1h0.5V202.3z M469.3,200.2h-0.5v-1h0.5V200.2z M469.3,198.1h-0.5v-1h0.5V198.1z
				 M469.3,196h-0.5v-1h0.5V196z M469.3,193.9h-0.5v-1h0.5V193.9z M469.3,191.9h-0.5v-1h0.5V191.9z M469.3,189.8h-0.5v-1h0.5V189.8z
				 M469.3,187.7h-0.5v-1h0.5V187.7z M469.3,185.6h-0.5v-1h0.5V185.6z M469.3,183.5h-0.5v-1h0.5V183.5z M469.3,181.4h-0.5v-1h0.5
				V181.4z M469.3,179.4h-0.5v-1h0.5V179.4z M469.3,177.3h-0.5v-1h0.5V177.3z M469.3,175.2h-0.5v-1h0.5V175.2z M469.3,173.1h-0.5v-1
				h0.5V173.1z M469.3,171h-0.5v-1h0.5V171z M469.3,169h-0.5v-1h0.5V169z M469.3,166.9h-0.5v-1h0.5V166.9z M469.3,164.8h-0.5v-1h0.5
				V164.8z M469.3,162.7h-0.5v-1h0.5V162.7z M469.3,160.6h-0.5v-1h0.5V160.6z M469.3,158.5h-0.5v-1h0.5V158.5z M469.3,156.5h-0.5v-1
				h0.5V156.5z M469.3,154.4h-0.5v-1h0.5V154.4z M469.3,152.3h-0.5v-1h0.5V152.3z M469.3,150.2h-0.5v-1h0.5V150.2z M469.3,148.1
				h-0.5v-1h0.5V148.1z M469.3,146h-0.5v-1h0.5V146z M469.3,144h-0.5v-1h0.5V144z M469.3,141.9h-0.5v-1h0.5V141.9z M469.3,139.8
				h-0.5v-1h0.5V139.8z M469.3,137.7h-0.5v-1h0.5V137.7z M469.3,135.6h-0.5v-1h0.5V135.6z M469.3,133.6h-0.5v-1h0.5V133.6z
				 M469.3,131.5h-0.5v-1h0.5V131.5z M469.3,129.4h-0.5v-1h0.5V129.4z M469.3,127.3h-0.5v-1h0.5V127.3z M469.3,125.2h-0.5v-1h0.5
				V125.2z M469.3,123.1h-0.5v-1h0.5V123.1z M469.3,121.1h-0.5v-1h0.5V121.1z M469.3,119h-0.5v-1h0.5V119z M469.3,116.9h-0.5v-1h0.5
				V116.9z M469.3,114.8h-0.5v-1h0.5V114.8z M469.3,112.7h-0.5v-1h0.5V112.7z M469.3,110.7h-0.5v-1h0.5V110.7z M469.3,108.6h-0.5v-1
				h0.5V108.6z M469.3,106.5h-0.5v-1h0.5V106.5z M469.3,104.4h-0.5v-1h0.5V104.4z M469.3,102.3h-0.5v-1h0.5V102.3z M469.3,100.2
				h-0.5v-1h0.5V100.2z M469.3,98.2h-0.5v-1h0.5V98.2z M469.3,96.1h-0.5v-1h0.5V96.1z M469.3,94h-0.5v-1h0.5V94z M469.3,91.9h-0.5
				v-1h0.5V91.9z M469.3,89.8h-0.5v-1h0.5V89.8z M469.3,87.8h-0.5v-1h0.5V87.8z M469.3,85.7h-0.5v-1h0.5V85.7z M469.3,83.6h-0.5v-1
				h0.5V83.6z M469.3,81.5h-0.5v-1h0.5V81.5z M469.3,79.4h-0.5v-1h0.5V79.4z M469.3,77.3h-0.5v-1h0.5V77.3z M469.3,75.3h-0.5v-1h0.5
				V75.3z M469.3,73.2h-0.5v-1h0.5V73.2z M469.3,71.1h-0.5v-1h0.5V71.1z M469.3,69h-0.5v-1h0.5V69z M469.3,66.9h-0.5v-1h0.5V66.9z
				 M469.3,64.9h-0.5v-1h0.5V64.9z M469.3,62.8h-0.5v-1h0.5V62.8z M469.3,60.7h-0.5v-1h0.5V60.7z M469.3,58.6h-0.5v-1h0.5V58.6z
				 M469.3,56.5h-0.5v-1h0.5V56.5z M469.3,54.4h-0.5v-1h0.5V54.4z M469.3,52.4h-0.5v-1h0.5V52.4z M469.3,50.3h-0.5v-1h0.5V50.3z
				 M469.3,48.2h-0.5v-1h0.5V48.2z M469.3,46.1h-0.5v-1h0.5V46.1z M469.3,44h-0.5v-1h0.5V44z M469.3,42h-0.5v-1h0.5V42z M469.3,39.9
				h-0.5v-1h0.5V39.9z M469.3,37.8h-0.5v-1h0.5V37.8z M469.3,35.7h-0.5v-1h0.5V35.7z M469.3,33.6h-0.5v-1h0.5V33.6z M469.3,31.5
				h-0.5v-1h0.5V31.5z M469.3,29.5h-0.5v-1h0.5V29.5z M469.3,27.4h-0.5v-1h0.5V27.4z M469.3,25.3h-0.5v-1h0.5V25.3z M469.3,23.2
				h-0.5v-1h0.5V23.2z M469.3,21.1h-0.5v-1h0.5V21.1z M469.3,19h-0.5v-1h0.5V19z M469.3,17h-0.5v-1h0.5V17z M469.3,14.9h-0.5v-1h0.5
				V14.9z M469.3,12.8h-0.5v-1h0.5V12.8z M469.3,10.7h-0.5v-1h0.5V10.7z"/>
		</g>
		<g>
			<rect x="468.8" y="251.2" class="st0" width="0.5" height="0.5"/>
		</g>
		<g>
			<g>
				<polygon class="st0" points="467.8,8.5 469.1,6.3 470.4,8.5 				"/>
			</g>
		</g>
		<g>
			<g>
				<polygon class="st0" points="467.8,251.3 469.1,253.6 470.4,251.3 				"/>
			</g>
		</g>
	</g>
</g>
</svg>
