<?xml version="1.0" encoding="utf-8"?>
<!-- Generator: Adobe Illustrator 22.1.0, SVG Export Plug-In . SVG Version: 6.00 Build 0)  -->
<svg version="1.1" id="Layer_1" xmlns="http://www.w3.org/2000/svg" xmlns:xlink="http://www.w3.org/1999/xlink" x="0px" y="0px"
	 viewBox="0 0 61 64" style="enable-background:new 0 0 61 64;" xml:space="preserve">
<style type="text/css">
	.st0{fill:#FFFFFF;}
</style>
<g>
	<path class="st0" d="M15.2,54.5c-1,0.2-1.3,0.7-1.3,1.6c0,2.1,2,2.2,2,4.6c0,1.8-2,2.7-3.2,3.2l-0.1-0.2c1.1-0.5,2-1,2-2.5
		c0-2.1-2-2.3-2-4.5c0-1.2,1.1-2.2,2.4-2.5L15.2,54.5z"/>
	<path class="st0" d="M16.7,54.6h3.7v0.3h-1.2v8.9h-1.4v-8.9h-1.2V54.6z"/>
	<path class="st0" d="M26.9,54.6h0.3v6.6c0,1.5-1.4,2.7-2.9,2.7c-1.6,0-2.8-1.2-2.8-2.7v-6.6h1.4v6.6c0,1.6,0.9,2.3,1.9,2.3
		c1,0,2.1-1.1,2.1-2.3V54.6z"/>
	<path class="st0" d="M29.5,63.8h-0.2v-9.4h0.2c2.4,0,4,2.4,4,4.7C33.4,61.4,31.8,63.8,29.5,63.8z M30.6,55v8.3
		c1-0.3,2.5-2.1,2.5-4.2C33.1,57.1,31.7,55.3,30.6,55z"/>
	<path class="st0" d="M35.2,54.6h1.4v9.1h-1.4V54.6z"/>
	<path class="st0" d="M43,54.4c2.6,0,4.8,2.1,4.8,4.8c0,2.6-2.1,4.8-4.8,4.8s-4.8-2.1-4.8-4.8C38.3,56.5,40.4,54.4,43,54.4z
		 M40,55.8v6.6c0.8,0.7,1.8,1.2,3,1.2c2.5,0,4.5-2,4.5-4.5c0-2.5-2-4.5-4.5-4.5C41.9,54.7,40.8,55.1,40,55.8z"/>
	<path class="st0" d="M0.4,0.7h3.1v19.6h4.3v0.6H0.4V0.7z"/>
	<path class="st0" d="M8.5,20.9L18.9,0l10.3,20.9h-3.5l-1.6-3.4H10.9l-1.6,3.4H8.5z M11.2,17h12.6L17.5,4.2L11.2,17z"/>
	<path class="st0" d="M31.8,0.7h3.1v19.6h4.3v0.6h-7.5V0.7z"/>
	<path class="st0" d="M40,20.9L50.3,0l10.3,20.9h-3.5l-1.6-3.4H42.3l-1.6,3.4H40z M42.6,17h12.6L48.9,4.2L42.6,17z"/>
	<path class="st0" d="M0.7,24.7h3.1v19.6h4.3v0.6H0.7V24.7z"/>
	<path class="st0" d="M8.8,44.9l10.3-20.9l10.3,20.9H26l-1.6-3.4H11.2l-1.6,3.4H8.8z M11.5,41h12.6l-6.3-12.7L11.5,41z"/>
	<path class="st0" d="M44.8,24.7v20.2h-0.6v-5.1L32.7,29.3v15.6h-0.6V24.5l12.1,11.2v-11H44.8z"/>
	<path class="st0" d="M50.2,45.2h-0.5V24.4h0.5c5.3,0,8.8,5.3,8.8,10.4C59,39.9,55.5,45.2,50.2,45.2z M52.9,25.6V44
		c2.3-0.7,5.5-4.6,5.5-9.2C58.3,30.2,55.2,26.3,52.9,25.6z"/>
</g>
</svg>
