<?xml version="1.0" encoding="utf-8"?>
<!-- Generator: Adobe Illustrator 22.1.0, SVG Export Plug-In . SVG Version: 6.00 Build 0)  -->
<svg version="1.1" id="Layer_1" xmlns="http://www.w3.org/2000/svg" xmlns:xlink="http://www.w3.org/1999/xlink" x="0px" y="0px"
	 viewBox="0 0 64 64" style="enable-background:new 0 0 64 64;" xml:space="preserve">
<style type="text/css">
	.st0{fill:#E05895;}
</style>
<g>
	<path class="st0" d="M32.1,0.4C14.7,0.4,0.5,14.5,0.5,31.9c0,17.4,14.1,31.5,31.5,31.5c17.4,0,31.5-14.1,31.5-31.5
		C63.6,14.5,49.5,0.4,32.1,0.4z M32.1,17.4c4.1,0,7.4,3.3,7.4,7.4c0,4.1-3.3,7.4-7.4,7.4c-4.1,0-7.4-3.3-7.4-7.4
		C24.6,20.7,28,17.4,32.1,17.4z M46.6,44.5L46.6,44.5c0,1-0.8,1.9-1.9,1.9H19.4c-1,0-1.9-0.8-1.9-1.9h0v-2.2c0-4.6,3.8-8.4,8.4-8.4
		h12.2c4.6,0,8.4,3.8,8.4,8.4V44.5z"/>
</g>
</svg>
