<?xml version="1.0" encoding="utf-8"?>
<!-- Generator: Adobe Illustrator 22.1.0, SVG Export Plug-In . SVG Version: 6.00 Build 0)  -->
<svg version="1.1" id="Layer_1" xmlns="http://www.w3.org/2000/svg" xmlns:xlink="http://www.w3.org/1999/xlink" x="0px" y="0px"
	 viewBox="0 0 434 173" style="enable-background:new 0 0 434 173;" xml:space="preserve">
<style type="text/css">
	.st0{fill:#D3D3D3;}
	.st1{fill:#2F2028;}
</style>
<polygon class="st0" points="34.8,79.2 1.4,141.4 393.1,141.4 360.3,79.4 "/>
<rect x="34" y="14.1" class="st1" width="95.8" height="1.6"/>
<rect x="108.9" y="33.4" transform="matrix(-1.836970e-16 1 -1 -1.836970e-16 163.1937 -94.7791)" class="st1" width="40.2" height="1.6"/>
<rect x="1.7" y="46.4" transform="matrix(-1.836970e-16 1 -1 -1.836970e-16 81.9428 12.4106)" class="st1" width="66.1" height="1.6"/>
<rect x="34" y="78.7" class="st1" width="327.6" height="1.6"/>
<rect x="128.2" y="52.7" class="st1" width="119.6" height="1.6"/>
<polygon class="st1" points="286.5,80.2 246.7,53.8 247.8,52.7 287.6,79 "/>
<rect x="162.4" y="33.4" transform="matrix(-1.836970e-16 1 -1 -1.836970e-16 216.6913 -148.2767)" class="st1" width="40.2" height="1.6"/>
<rect x="181.7" y="14.1" class="st1" width="180" height="1.6"/>
<rect x="327.8" y="46.4" transform="matrix(-1.836970e-16 1 -1 -1.836970e-16 408.0919 -313.7385)" class="st1" width="66.1" height="1.6"/>
<rect x="376.4" y="28" transform="matrix(-1.836970e-16 1 -1 -1.836970e-16 415.9126 -358.4247)" class="st1" width="21.6" height="1.6"/>
<rect x="376.4" y="75.5" transform="matrix(-1.836970e-16 1 -1 -1.836970e-16 463.466 -310.8713)" class="st1" width="21.6" height="1.6"/>
<rect x="394.2" y="11.5" transform="matrix(-1.836970e-16 1 -1 -1.836970e-16 417.2748 -392.7275)" class="st1" width="21.6" height="1.6"/>
<rect x="394.2" y="59" transform="matrix(-1.836970e-16 1 -1 -1.836970e-16 464.8282 -345.1741)" class="st1" width="21.6" height="1.6"/>
<rect x="408.4" y="77.5" transform="matrix(-1.836970e-16 1 -1 -1.836970e-16 497.5211 -340.8811)" class="st1" width="21.6" height="1.6"/>
<rect x="408.4" y="125.1" transform="matrix(-1.836970e-16 1 -1 -1.836970e-16 545.0746 -293.3277)" class="st1" width="21.6" height="1.6"/>
<rect x="341.3" y="109.3" transform="matrix(0.4691 0.8831 -0.8831 0.4691 297.1829 -274.1852)" class="st1" width="70.6" height="1.6"/>
<rect x="0.7" y="140.9" class="st1" width="393.2" height="1.6"/>
<rect x="-17.5" y="109" transform="matrix(-0.4691 0.8831 -0.8831 -0.4691 123.6432 145.3396)" class="st1" width="71.2" height="1.6"/>
<path class="st1" d="M190.4,172h-10.9l3.4-3.5c0.9-0.9,1.6-1.7,2.1-2.3c0.5-0.6,0.9-1.2,1.1-1.6c0.2-0.4,0.4-0.8,0.5-1.1
	c0.1-0.3,0.1-0.5,0.1-0.7c0-0.2,0-0.4-0.1-0.6c-0.1-0.2-0.2-0.4-0.3-0.5c-0.1-0.1-0.3-0.3-0.5-0.4c-0.2-0.1-0.4-0.1-0.7-0.1
	c-0.5,0-0.9,0.2-1.1,0.5c-0.3,0.3-0.4,0.7-0.4,1.2c0,0.1,0,0.3,0.1,0.6h-3.8c0-0.8,0.1-1.5,0.4-2.2c0.3-0.6,0.6-1.2,1.1-1.7
	c0.5-0.5,1-0.8,1.7-1.1c0.6-0.3,1.3-0.4,2.1-0.4c0.8,0,1.5,0.1,2.1,0.4c0.6,0.2,1.2,0.6,1.7,1c0.5,0.4,0.8,0.9,1.1,1.5
	c0.3,0.6,0.4,1.2,0.4,1.9c0,0.7-0.2,1.4-0.5,2.1s-0.8,1.3-1.5,1.9L186,169h4.4V172z"/>
<path class="st1" d="M219.7,172h-10.9l3.4-3.5c0.9-0.9,1.6-1.7,2.1-2.3c0.5-0.6,0.9-1.2,1.1-1.6c0.2-0.4,0.4-0.8,0.5-1.1
	c0.1-0.3,0.1-0.5,0.1-0.7c0-0.2,0-0.4-0.1-0.6c-0.1-0.2-0.2-0.4-0.3-0.5c-0.1-0.1-0.3-0.3-0.5-0.4c-0.2-0.1-0.4-0.1-0.7-0.1
	c-0.5,0-0.9,0.2-1.1,0.5c-0.3,0.3-0.4,0.7-0.4,1.2c0,0.1,0,0.3,0.1,0.6h-3.8c0-0.8,0.1-1.5,0.4-2.2c0.3-0.6,0.6-1.2,1.1-1.7
	c0.5-0.5,1-0.8,1.7-1.1c0.6-0.3,1.3-0.4,2.1-0.4c0.8,0,1.5,0.1,2.1,0.4c0.6,0.2,1.2,0.6,1.7,1c0.5,0.4,0.8,0.9,1.1,1.5
	c0.3,0.6,0.4,1.2,0.4,1.9c0,0.7-0.2,1.4-0.5,2.1s-0.8,1.3-1.5,1.9l-2.2,2.1h4.4V172z"/>
<path class="st1" d="M203,170.3c0-0.3,0.1-0.6,0.2-0.8c0.1-0.3,0.3-0.5,0.4-0.7c0.2-0.2,0.4-0.3,0.7-0.4s0.5-0.2,0.8-0.2
	c0.3,0,0.6,0.1,0.8,0.2c0.3,0.1,0.5,0.3,0.7,0.4c0.2,0.2,0.3,0.4,0.4,0.7c0.1,0.3,0.2,0.5,0.2,0.8s-0.1,0.6-0.2,0.8
	c-0.1,0.3-0.3,0.5-0.4,0.7c-0.2,0.2-0.4,0.3-0.7,0.4c-0.3,0.1-0.5,0.2-0.8,0.2c-0.3,0-0.6-0.1-0.8-0.2s-0.5-0.3-0.7-0.4
	c-0.2-0.2-0.3-0.4-0.4-0.7C203,170.8,203,170.6,203,170.3z"/>
<path class="st1" d="M201,161.2h-4.9l-0.2,1.5c0.2,0,0.4,0,0.6-0.1c0.2,0,0.4,0,0.6,0c0.7,0,1.4,0.1,2,0.4c0.6,0.2,1.1,0.6,1.6,1
	c0.4,0.4,0.8,1,1,1.6c0.2,0.6,0.4,1.3,0.4,2c0,0.8-0.1,1.4-0.4,2.1c-0.3,0.6-0.7,1.1-1.2,1.6c-0.5,0.4-1.1,0.8-1.9,1
	c-0.7,0.2-1.5,0.3-2.4,0.3c-0.8,0-1.7-0.1-2.4-0.3c-0.8-0.2-1.5-0.5-2.2-0.9l0.5-3.4c0.6,0.5,1.3,0.9,1.9,1.2
	c0.6,0.3,1.3,0.4,1.8,0.4c0.7,0,1.3-0.2,1.8-0.6c0.4-0.4,0.7-0.9,0.7-1.5c0-0.7-0.3-1.3-0.9-1.7c-0.6-0.4-1.3-0.6-2.3-0.6
	c-0.4,0-0.9,0-1.3,0.1c-0.4,0.1-0.9,0.2-1.3,0.4l1.2-7.5h7.4V161.2z"/>
<path class="st1" d="M391.8,58.7h-10.9l3.4-3.5c0.9-0.9,1.6-1.7,2.1-2.3c0.5-0.6,0.9-1.2,1.1-1.6c0.2-0.4,0.4-0.8,0.5-1.1
	c0.1-0.3,0.1-0.5,0.1-0.7c0-0.2,0-0.4-0.1-0.6c-0.1-0.2-0.2-0.4-0.3-0.5c-0.1-0.1-0.3-0.3-0.5-0.4c-0.2-0.1-0.4-0.1-0.7-0.1
	c-0.5,0-0.9,0.2-1.1,0.5s-0.4,0.7-0.4,1.2c0,0.1,0,0.3,0.1,0.6h-3.8c0-0.8,0.1-1.5,0.4-2.2c0.3-0.6,0.6-1.2,1.1-1.7
	c0.5-0.5,1-0.8,1.7-1.1s1.3-0.4,2.1-0.4c0.8,0,1.5,0.1,2.1,0.4c0.6,0.2,1.2,0.6,1.7,1c0.5,0.4,0.8,0.9,1.1,1.5
	c0.3,0.6,0.4,1.2,0.4,1.9c0,0.7-0.2,1.4-0.5,2.1c-0.3,0.6-0.8,1.3-1.5,1.9l-2.2,2.1h4.4V58.7z"/>
<path class="st1" d="M409.2,32.3h-4.9l-0.2,1.5c0.2,0,0.4,0,0.6-0.1c0.2,0,0.4,0,0.6,0c0.7,0,1.4,0.1,2,0.4c0.6,0.2,1.1,0.6,1.6,1
	c0.4,0.4,0.8,1,1,1.6c0.2,0.6,0.4,1.3,0.4,2c0,0.8-0.1,1.4-0.4,2.1c-0.3,0.6-0.7,1.1-1.2,1.6c-0.5,0.4-1.1,0.8-1.9,1
	c-0.7,0.2-1.5,0.3-2.4,0.3c-0.8,0-1.7-0.1-2.4-0.3c-0.8-0.2-1.5-0.5-2.2-0.9l0.5-3.4c0.6,0.5,1.3,0.9,1.9,1.2
	c0.6,0.3,1.3,0.4,1.8,0.4c0.7,0,1.3-0.2,1.8-0.6c0.4-0.4,0.7-0.9,0.7-1.5c0-0.7-0.3-1.3-0.9-1.7c-0.6-0.4-1.3-0.6-2.3-0.6
	c-0.4,0-0.9,0-1.3,0.1c-0.4,0.1-0.9,0.2-1.3,0.4l1.2-7.5h7.4V32.3z"/>
<path class="st1" d="M407.5,100.6c-1.4-0.6-2.1-1.5-2.1-2.9c0-0.6,0.1-1.1,0.3-1.5c0.2-0.5,0.5-0.8,0.9-1.2c0.4-0.3,0.9-0.6,1.4-0.8
	c0.6-0.2,1.2-0.3,1.8-0.3s1.3,0.1,1.8,0.3c0.6,0.2,1,0.4,1.4,0.8c0.4,0.3,0.7,0.7,0.9,1.2c0.2,0.4,0.3,1,0.3,1.5
	c0,0.3,0,0.7-0.1,0.9c-0.1,0.3-0.2,0.5-0.4,0.8c-0.2,0.2-0.4,0.4-0.7,0.6c-0.3,0.2-0.6,0.4-1,0.6c1.8,0.7,2.7,1.8,2.7,3.4
	c0,0.6-0.1,1.1-0.4,1.6c-0.3,0.5-0.6,0.9-1.1,1.2c-0.5,0.3-1,0.6-1.6,0.8c-0.6,0.2-1.3,0.3-2,0.3c-0.7,0-1.4-0.1-2-0.3
	c-0.6-0.2-1.1-0.5-1.6-0.8c-0.5-0.3-0.8-0.8-1.1-1.2c-0.3-0.5-0.4-1-0.4-1.6C404.9,102.4,405.7,101.2,407.5,100.6z M408.3,103.6
	c0,0.2,0,0.4,0.1,0.6c0.1,0.2,0.2,0.4,0.3,0.5c0.1,0.1,0.3,0.3,0.5,0.3c0.2,0.1,0.4,0.1,0.6,0.1c0.2,0,0.4,0,0.6-0.1
	c0.2-0.1,0.4-0.2,0.5-0.3c0.1-0.1,0.3-0.3,0.3-0.5c0.1-0.2,0.1-0.4,0.1-0.6c0-0.4-0.2-0.8-0.5-1.1c-0.3-0.3-0.7-0.5-1.1-0.5
	c-0.4,0-0.8,0.2-1.1,0.5C408.5,102.8,408.3,103.1,408.3,103.6z M408.5,97.7c0,0.4,0.1,0.8,0.4,1c0.3,0.3,0.6,0.4,1,0.4
	c0.2,0,0.4,0,0.6-0.1c0.2-0.1,0.3-0.2,0.5-0.3c0.1-0.1,0.2-0.3,0.3-0.5c0.1-0.2,0.1-0.4,0.1-0.5c0-0.4-0.1-0.7-0.4-1
	c-0.3-0.3-0.6-0.4-1-0.4c-0.4,0-0.8,0.1-1,0.4C408.6,97,408.5,97.3,408.5,97.7z"/>
<path class="st1" d="M416.5,106.4c0-0.3,0.1-0.6,0.2-0.8c0.1-0.3,0.3-0.5,0.4-0.7c0.2-0.2,0.4-0.3,0.7-0.4c0.3-0.1,0.5-0.2,0.8-0.2
	c0.3,0,0.6,0.1,0.8,0.2c0.3,0.1,0.5,0.3,0.7,0.4c0.2,0.2,0.3,0.4,0.4,0.7c0.1,0.3,0.2,0.5,0.2,0.8s-0.1,0.6-0.2,0.8
	c-0.1,0.3-0.3,0.5-0.4,0.7c-0.2,0.2-0.4,0.3-0.7,0.4c-0.3,0.1-0.5,0.2-0.8,0.2c-0.3,0-0.6-0.1-0.8-0.2c-0.3-0.1-0.5-0.3-0.7-0.4
	c-0.2-0.2-0.3-0.4-0.4-0.7C416.5,107,416.5,106.7,416.5,106.4z"/>
<path class="st1" d="M431.9,102.3h1.7v2.8h-1.7v2.9h-3.4v-2.9h-6.7v-2.3l5.3-8.7h4.8V102.3z M428.5,102.3v-5.5l-3.2,5.5H428.5z"/>
<rect x="0.5" y="165.2" transform="matrix(-1 -1.224647e-16 1.224647e-16 -1 161.5049 331.9932)" class="st1" width="160.5" height="1.6"/>
<rect x="238.8" y="165.2" transform="matrix(-1 -1.224647e-16 1.224647e-16 -1 632.6724 331.9932)" class="st1" width="155.1" height="1.6"/>
</svg>
