<?xml version="1.0" encoding="utf-8"?>
<!-- Generator: Adobe Illustrator 22.1.0, SVG Export Plug-In . SVG Version: 6.00 Build 0)  -->
<svg version="1.1" id="레이어_1" xmlns="http://www.w3.org/2000/svg" xmlns:xlink="http://www.w3.org/1999/xlink" x="0px"
	 y="0px" viewBox="0 0 119 89.1" style="enable-background:new 0 0 119 89.1;" xml:space="preserve">
<style type="text/css">
	.st0{fill:#FFFFFF;}
</style>
<g>
	<path class="st0" d="M0,1.3h6.2v38.8h8.6v1.1H0V1.3z"/>
	<path class="st0" d="M16.1,41.2L36.6,0l20.4,41.2H50l-3.3-6.6h-26l-3.3,6.6H16.1z M21.3,33.4h24.9L33.8,8.3L21.3,33.4z"/>
	<path class="st0" d="M62.1,1.3h6.2v38.8h8.6v1.1H62.1V1.3z"/>
	<path class="st0" d="M78.2,41.2L98.7,0L119,41.2h-6.9l-3.3-6.6h-26l-3.3,6.6H78.2z M83.4,33.4h24.9L95.9,8.3L83.4,33.4z"/>
	<path class="st0" d="M0.6,48.7h6.2v38.8h8.6v1.1H0.6V48.7z"/>
	<path class="st0" d="M16.7,88.6l20.4-41.2l20.4,41.2h-6.9L47.4,82h-26l-3.3,6.6H16.7z M21.9,80.9h24.9L34.4,55.8L21.9,80.9z"/>
	<path class="st0" d="M87.8,48.7v39.9h-1.3v-10L63.9,57.8v30.8h-1.3V48.3l23.9,22V48.7H87.8z"/>
	<path class="st0" d="M98.5,89.1h-1v-41h1c10.4,0,17.3,10.5,17.3,20.5C115.7,78.6,108.9,89.1,98.5,89.1z M103.6,50.5v36.3
		c4.6-1.4,10.8-9.1,10.8-18.1C114.5,59.6,108.2,51.9,103.6,50.5z"/>
</g>
</svg>
