<svg id="레이어_1" data-name="레이어 1" xmlns="http://www.w3.org/2000/svg" viewBox="0 0 119.02 235.92"><defs><style>.cls-1,.cls-2{fill:#f19ec2;}.cls-2{font-size:38.11px;font-family:Yasashii-Bold, Yasashii Bold;font-weight:700;}</style></defs><title>대지 1</title><path class="cls-1" d="M29.26,107.86A2.81,2.81,0,0,0,26.65,111c0,4.23,4,4.28,4,9.18,0,3.61-3.87,5.34-6.32,6.37l-.18-.44c2.27-.93,4.05-1.93,4.05-5,0-4.15-3.95-4.57-3.95-8.79,0-2.38,2.14-4.28,4.8-4.95Z"/><path class="cls-1" d="M32.22,108h7.4v.51H37.3V126H34.52V108.5h-2.3Z"/><path class="cls-1" d="M52.46,108H53v13a5.65,5.65,0,0,1-5.7,5.39A5.45,5.45,0,0,1,41.79,121V108h2.78v13c0,3.25,1.7,4.64,3.69,4.64s4.2-2.17,4.2-4.62Z"/><path class="cls-1" d="M57.44,126.27H57V107.76h.44c4.72,0,7.81,4.74,7.81,9.25S62.16,126.27,57.44,126.27Zm2.35-17.46v16.4c2.06-.65,4.89-4.1,4.89-8.2S61.85,109.46,59.79,108.81Z"/><path class="cls-1" d="M68.78,108h2.79v18H68.78Z"/><path class="cls-1" d="M84.23,107.63A9.39,9.39,0,1,1,74.84,117,9.38,9.38,0,0,1,84.23,107.63Zm-5.88,2.83v13.1a8.49,8.49,0,0,0,5.88,2.32,8.87,8.87,0,0,0,0-17.74A8.49,8.49,0,0,0,78.35,110.46Z"/><path class="cls-1" d="M25.06,130.39c-2,.41-2.61,1.41-2.61,3.14,0,4.23,4,4.28,4,9.18,0,3.61-3.86,5.34-6.31,6.37l-.18-.44c2.27-.93,4-1.94,4-5,0-4.15-3.94-4.56-3.94-8.79,0-2.37,2.14-4.28,4.79-5Z"/><path class="cls-1" d="M30,130.52h6.4V131H32.74v5.08h5.39v.52H32.74v11.42h3.87v.51H30Z"/><path class="cls-1" d="M41.09,130.44h1.27c3,0,3.89,1.57,3.89,3a3.36,3.36,0,0,1-2,3l11.91,12.12h-.8L43.88,136.91v11.65H41.09Zm2.79.69V136a2.67,2.67,0,0,0,1.8-2.58A2.21,2.21,0,0,0,43.88,131.13Z"/><path class="cls-1" d="M71.2,130.52,62,149.13l-9.21-18.61h3.12l7.32,14.84,7.38-14.84Z"/><path class="cls-1" d="M73.53,130.52h2.78v18H73.53Z"/><path class="cls-1" d="M86.44,148.92a10,10,0,0,1,0-18.77l.29.47a8.16,8.16,0,0,0-3.38,2v13.9a8.22,8.22,0,0,0,3.38,2Z"/><path class="cls-1" d="M90,130.52h6.4V131H92.74v5.08h5.38v.52H92.74v11.42H96.6v.51H90Z"/><path class="cls-1" d="M0,1.53H6.16v38.8h8.56v1.14H0Z"/><path class="cls-1" d="M16.15,41.47,36.57.28,56.94,41.47H50l-3.25-6.62h-26l-3.25,6.62Zm5.19-7.76H46.22L33.84,8.61Z"/><path class="cls-1" d="M62.08,1.53h6.16v38.8H76.8v1.14H62.08Z"/><path class="cls-1" d="M78.23,41.47,98.65.28,119,41.47h-6.9l-3.25-6.62h-26L79.6,41.47Zm5.19-7.76H108.3L95.92,8.61Z"/><path class="cls-1" d="M.6,49H6.76V87.76h8.56v1.15H.6Z"/><path class="cls-1" d="M16.75,88.91l20.42-41.2,20.37,41.2h-6.9l-3.25-6.62h-26l-3.25,6.62Zm5.19-7.76H46.82L34.43,56Z"/><path class="cls-1" d="M87.78,49V88.91H86.53v-10L63.93,58.1V88.91H62.68V48.62l23.85,22V49Z"/><path class="cls-1" d="M98.46,89.42h-1v-41h1c10.44,0,17.28,10.5,17.28,20.49S108.9,89.42,98.46,89.42Zm5.19-38.63V87.08c4.56-1.43,10.84-9.07,10.84-18.14S108.21,52.22,103.65,50.79Z"/><text class="cls-2" transform="translate(37.75 193.88)">b1</text><polygon class="cls-1" points="53.33 225.86 59.76 236.19 66.18 225.86 63.2 225.86 63.2 211.8 56.32 211.8 56.32 225.86 53.33 225.86"/></svg>