<svg id="레이어_1" data-name="레이어 1" xmlns="http://www.w3.org/2000/svg" viewBox="0 0 119.02 148.85"><defs><style>.cls-1{fill:#f19ec2;}</style></defs><title>대지 1</title><path class="cls-1" d="M29.26,107.58c-2,.42-2.61,1.42-2.61,3.15,0,4.23,4,4.28,4,9.18,0,3.6-3.87,5.33-6.32,6.36l-.18-.44c2.27-.92,4.05-1.93,4.05-5,0-4.15-3.95-4.56-3.95-8.79,0-2.37,2.14-4.28,4.8-4.95Z"/><path class="cls-1" d="M32.22,107.71h7.4v.52H37.3v17.53H34.52V108.23h-2.3Z"/><path class="cls-1" d="M52.46,107.71H53v13a5.65,5.65,0,0,1-5.7,5.39,5.45,5.45,0,0,1-5.54-5.42v-13h2.78v13c0,3.25,1.7,4.64,3.69,4.64s4.2-2.16,4.2-4.61Z"/><path class="cls-1" d="M57.44,126H57V107.48h.44c4.72,0,7.81,4.74,7.81,9.25S62.16,126,57.44,126Zm2.35-17.45v16.39c2.06-.64,4.89-4.1,4.89-8.2S61.85,109.18,59.79,108.54Z"/><path class="cls-1" d="M68.78,107.71h2.79v18.05H68.78Z"/><path class="cls-1" d="M84.23,107.35a9.39,9.39,0,1,1-9.39,9.38A9.38,9.38,0,0,1,84.23,107.35Zm-5.88,2.84v13.09a8.45,8.45,0,0,0,5.88,2.32,8.87,8.87,0,0,0,0-17.73A8.45,8.45,0,0,0,78.35,110.19Z"/><path class="cls-1" d="M25.06,130.11a2.81,2.81,0,0,0-2.61,3.14c0,4.23,4,4.28,4,9.18,0,3.61-3.86,5.34-6.31,6.37l-.18-.44c2.27-.93,4-1.93,4-5,0-4.15-3.94-4.57-3.94-8.79,0-2.38,2.14-4.28,4.79-4.95Z"/><path class="cls-1" d="M30,130.24h6.4v.51H32.74v5.08h5.39v.52H32.74v11.42h3.87v.51H30Z"/><path class="cls-1" d="M41.09,130.16h1.27c3,0,3.89,1.57,3.89,3a3.39,3.39,0,0,1-2,3l11.91,12.11h-.8L43.88,136.63v11.65H41.09Zm2.79.7v4.87a2.67,2.67,0,0,0,1.8-2.58A2.19,2.19,0,0,0,43.88,130.86Z"/><path class="cls-1" d="M71.2,130.24,62,148.85l-9.21-18.61h3.12l7.32,14.85,7.38-14.85Z"/><path class="cls-1" d="M73.53,130.24h2.78v18H73.53Z"/><path class="cls-1" d="M86.44,148.65a10,10,0,0,1,0-18.77l.29.46a8.18,8.18,0,0,0-3.38,2v13.89a8,8,0,0,0,3.38,2Z"/><path class="cls-1" d="M90,130.24h6.4v.51H92.74v5.08h5.38v.52H92.74v11.42H96.6v.51H90Z"/><path class="cls-1" d="M0,1.26H6.16V40.05h8.56V41.2H0Z"/><path class="cls-1" d="M16.15,41.2,36.57,0,56.94,41.2H50l-3.25-6.62h-26L17.52,41.2Zm5.19-7.76H46.22L33.84,8.33Z"/><path class="cls-1" d="M62.08,1.26h6.16V40.05H76.8V41.2H62.08Z"/><path class="cls-1" d="M78.23,41.2,98.65,0,119,41.2h-6.9l-3.25-6.62h-26L79.6,41.2Zm5.19-7.76H108.3L95.92,8.33Z"/><path class="cls-1" d="M.6,48.69H6.76v38.8h8.56v1.14H.6Z"/><path class="cls-1" d="M16.75,88.63l20.42-41.2,20.37,41.2h-6.9L47.39,82h-26l-3.25,6.62Zm5.19-7.76H46.82L34.43,55.76Z"/><path class="cls-1" d="M87.78,48.69V88.63H86.53v-10L63.93,57.82V88.63H62.68V48.35l23.85,22V48.69Z"/><path class="cls-1" d="M98.46,89.14h-1v-41h1c10.44,0,17.28,10.49,17.28,20.48S108.9,89.14,98.46,89.14Zm5.19-38.63V86.8c4.56-1.42,10.84-9.07,10.84-18.14S108.21,51.94,103.65,50.51Z"/></svg>