<?xml version="1.0" encoding="utf-8"?>
<!-- Generator: Adobe Illustrator 22.1.0, SVG Export Plug-In . SVG Version: 6.00 Build 0)  -->
<svg version="1.1" id="Layer_1" xmlns="http://www.w3.org/2000/svg" xmlns:xlink="http://www.w3.org/1999/xlink" x="0px" y="0px"
	 viewBox="0 0 330 260" style="enable-background:new 0 0 330 260;" xml:space="preserve">
<style type="text/css">
	.st0{fill:#DE699D;}
</style>
<g>
	<g>
		<path class="st0" d="M155.6,255.5h-2.9l0.9-0.9c0.2-0.2,0.4-0.5,0.6-0.6c0.1-0.2,0.2-0.3,0.3-0.4c0.1-0.1,0.1-0.2,0.1-0.3
			s0-0.1,0-0.2c0-0.1,0-0.1,0-0.2c0-0.1,0-0.1-0.1-0.1l-0.1-0.1c0,0-0.1,0-0.2,0c-0.1,0-0.2,0-0.3,0.1s-0.1,0.2-0.1,0.3
			c0,0,0,0.1,0,0.2h-1c0-0.2,0-0.4,0.1-0.6c0.1-0.2,0.2-0.3,0.3-0.4c0.1-0.1,0.3-0.2,0.4-0.3c0.2-0.1,0.4-0.1,0.6-0.1
			c0.2,0,0.4,0,0.6,0.1c0.2,0.1,0.3,0.2,0.4,0.3c0.1,0.1,0.2,0.3,0.3,0.4c0.1,0.2,0.1,0.3,0.1,0.5s0,0.4-0.1,0.5
			c-0.1,0.2-0.2,0.3-0.4,0.5l-0.6,0.6h1.2v0.7H155.6z"/>
		<path class="st0" d="M156.6,252.7h-0.5v-0.8h1.5v3.6h-0.9v-2.8H156.6z"/>
		<path class="st0" d="M158.5,255c0-0.1,0-0.1,0-0.2c0-0.1,0.1-0.1,0.1-0.2c0.1-0.1,0.1-0.1,0.2-0.1c0.1,0,0.1,0,0.2,0
			c0.1,0,0.1,0,0.2,0c0.1,0,0.1,0.1,0.2,0.1c0.1,0.1,0.1,0.1,0.1,0.2c0,0.1,0,0.1,0,0.2s0,0.1,0,0.2c0,0.1-0.1,0.1-0.1,0.2
			c-0.1,0.1-0.1,0.1-0.2,0.1c-0.1,0-0.1,0-0.2,0c-0.1,0-0.1,0-0.2,0c-0.1,0-0.1-0.1-0.2-0.1c-0.1-0.1-0.1-0.1-0.1-0.2
			C158.5,255.2,158.5,255.1,158.5,255z"/>
		<path class="st0" d="M162.2,251.9l-1,1.2l0,0c0.1-0.1,0.2-0.1,0.2-0.1c0.1,0,0.1,0,0.2,0c0.2,0,0.3,0,0.5,0.1
			c0.1,0.1,0.3,0.2,0.4,0.3c0.1,0.1,0.2,0.3,0.3,0.4c0.1,0.2,0.1,0.3,0.1,0.5s0,0.4-0.1,0.5c-0.1,0.2-0.2,0.3-0.3,0.4
			c-0.1,0.1-0.3,0.2-0.5,0.3s-0.4,0.1-0.6,0.1c-0.2,0-0.5,0-0.6-0.1s-0.3-0.2-0.5-0.3c-0.1-0.1-0.2-0.3-0.3-0.4
			c-0.1-0.2-0.1-0.3-0.1-0.5s0-0.4,0.1-0.7c0.1-0.2,0.2-0.5,0.4-0.7l0.8-1H162.2z M160.7,254.2c0,0.1,0,0.2,0,0.2
			c0,0.1,0.1,0.1,0.1,0.2c0.1,0.1,0.1,0.1,0.2,0.1c0.1,0,0.1,0,0.2,0c0.1,0,0.2,0,0.2,0c0.1,0,0.1-0.1,0.2-0.1
			c0.1-0.1,0.1-0.1,0.1-0.2c0-0.1,0-0.1,0-0.2c0-0.1,0-0.2,0-0.2c0-0.1-0.1-0.1-0.1-0.2c-0.1-0.1-0.1-0.1-0.2-0.1
			c-0.1,0-0.1,0-0.2,0c-0.1,0-0.2,0-0.2,0c-0.1,0-0.1,0.1-0.2,0.1c-0.1,0.1-0.1,0.1-0.1,0.2C160.7,254.1,160.7,254.2,160.7,254.2z"
			/>
		<path class="st0" d="M163,253h0.9v0.3c0.2-0.2,0.5-0.3,0.8-0.3c0.4,0,0.6,0.2,0.8,0.5c0.2-0.3,0.5-0.5,0.8-0.5
			c0.1,0,0.2,0,0.3,0.1c0.1,0,0.2,0.1,0.3,0.2c0.1,0.1,0.1,0.2,0.2,0.3c0,0.1,0.1,0.3,0.1,0.4v1.6h-0.9v-1.2c0-0.1,0-0.2,0-0.3
			s0-0.1-0.1-0.2l-0.1-0.1H166c-0.3,0-0.4,0.2-0.4,0.6v1.2h-0.9v-1.2c0-0.1,0-0.2,0-0.3s0-0.1-0.1-0.2l-0.1-0.1c0,0-0.1,0-0.2,0
			c-0.1,0-0.1,0-0.2,0c0,0-0.1,0-0.1,0.1c0,0-0.1,0.1-0.1,0.2c0,0.1,0,0.2,0,0.3v1.2H163V253z"/>
		<path class="st0" d="M170.3,251.7c-0.4,0.6-0.5,1.4-0.5,2.2c0,0.2,0,0.4,0,0.6c0,0.2,0.1,0.4,0.1,0.6c0,0.2,0.1,0.4,0.2,0.6
			c0.1,0.2,0.1,0.3,0.2,0.4l-0.5,0.3c-0.2-0.3-0.4-0.7-0.5-1.1c-0.1-0.4-0.2-0.9-0.2-1.4c0-0.2,0-0.5,0-0.7s0.1-0.5,0.1-0.7
			c0.1-0.2,0.1-0.4,0.2-0.6c0.1-0.2,0.2-0.4,0.3-0.5L170.3,251.7z"/>
		<path class="st0" d="M171.6,252.7h-0.5v-0.8h1.5v3.6h-0.9v-2.8H171.6z"/>
		<path class="st0" d="M173.8,255.5l1-1.2l0,0c-0.1,0.1-0.2,0.1-0.2,0.1c-0.1,0-0.1,0-0.2,0c-0.2,0-0.3,0-0.5-0.1
			c-0.1-0.1-0.3-0.2-0.4-0.3c-0.1-0.1-0.2-0.3-0.3-0.4c-0.1-0.2-0.1-0.3-0.1-0.5s0-0.4,0.1-0.5c0.1-0.2,0.2-0.3,0.3-0.4
			c0.1-0.1,0.3-0.2,0.5-0.3s0.4-0.1,0.6-0.1c0.2,0,0.5,0,0.6,0.1c0.2,0.1,0.3,0.2,0.5,0.3c0.1,0.1,0.2,0.3,0.3,0.4
			c0.1,0.2,0.1,0.3,0.1,0.5s0,0.4-0.1,0.7c-0.1,0.2-0.2,0.5-0.4,0.7l-0.8,1H173.8z M175.4,253.1c0-0.1,0-0.2,0-0.2
			c0-0.1-0.1-0.1-0.1-0.2c-0.1-0.1-0.1-0.1-0.2-0.1c-0.1,0-0.1,0-0.2,0c-0.1,0-0.2,0-0.2,0c-0.1,0-0.1,0.1-0.2,0.1
			c-0.1,0.1-0.1,0.1-0.1,0.2c0,0.1,0,0.1,0,0.2c0,0.1,0,0.2,0,0.2c0,0.1,0.1,0.1,0.1,0.2c0.1,0.1,0.1,0.1,0.2,0.1c0.1,0,0.1,0,0.2,0
			c0.1,0,0.2,0,0.2,0c0.1,0,0.1-0.1,0.2-0.1c0.1-0.1,0.1-0.1,0.1-0.2C175.3,253.3,175.4,253.2,175.4,253.1z"/>
		<path class="st0" d="M176.4,255c0-0.1,0-0.1,0-0.2c0-0.1,0.1-0.1,0.1-0.2c0.1-0.1,0.1-0.1,0.2-0.1c0.1,0,0.1,0,0.2,0
			c0.1,0,0.1,0,0.2,0c0.1,0,0.1,0.1,0.2,0.1c0.1,0.1,0.1,0.1,0.1,0.2c0,0.1,0,0.1,0,0.2s0,0.1,0,0.2c0,0.1-0.1,0.1-0.1,0.2
			c-0.1,0.1-0.1,0.1-0.2,0.1c-0.1,0-0.1,0-0.2,0c-0.1,0-0.1,0-0.2,0c-0.1,0-0.1-0.1-0.2-0.1c-0.1-0.1-0.1-0.1-0.1-0.2
			C176.5,255.2,176.4,255.1,176.4,255z"/>
		<path class="st0" d="M178.6,252.7H178v-0.8h1.5v3.6h-0.9V252.7z"/>
		<path class="st0" d="M180.7,253h0.9v0.3c0.2-0.2,0.5-0.3,0.8-0.3c0.4,0,0.6,0.2,0.8,0.5c0.2-0.3,0.5-0.5,0.8-0.5
			c0.1,0,0.2,0,0.3,0.1c0.1,0,0.2,0.1,0.3,0.2c0.1,0.1,0.1,0.2,0.2,0.3c0,0.1,0.1,0.3,0.1,0.4v1.6H184v-1.2c0-0.1,0-0.2,0-0.3
			s0-0.1-0.1-0.2l-0.1-0.1h-0.1c-0.3,0-0.4,0.2-0.4,0.6v1.2h-0.9v-1.2c0-0.1,0-0.2,0-0.3s0-0.1-0.1-0.2l-0.1-0.1c0,0-0.1,0-0.2,0
			c-0.1,0-0.1,0-0.2,0c0,0-0.1,0-0.1,0.1c0,0-0.1,0.1-0.1,0.2c0,0.1,0,0.2,0,0.3v1.2h-0.9V253z"/>
		<path class="st0" d="M185.2,256.2c0.4-0.6,0.5-1.4,0.5-2.2c0-0.2,0-0.4,0-0.6c0-0.2-0.1-0.4-0.1-0.6c0-0.2-0.1-0.4-0.2-0.6
			c-0.1-0.2-0.1-0.3-0.2-0.4l0.5-0.3c0.2,0.3,0.4,0.7,0.5,1.1c0.1,0.4,0.2,0.9,0.2,1.4c0,0.2,0,0.5,0,0.7s-0.1,0.5-0.1,0.7
			c-0.1,0.2-0.1,0.4-0.2,0.6c-0.1,0.2-0.2,0.4-0.3,0.5L185.2,256.2z"/>
	</g>
	<g>
		<path class="st0" d="M297.5,59.7c-0.4-0.2-0.6-0.4-0.6-0.8c0-0.2,0-0.3,0.1-0.4c0.1-0.1,0.1-0.2,0.3-0.3s0.2-0.2,0.4-0.2
			c0.2,0,0.3-0.1,0.5-0.1s0.3,0,0.5,0.1c0.2,0,0.3,0.1,0.4,0.2c0.1,0.1,0.2,0.2,0.3,0.3c0.1,0.1,0.1,0.3,0.1,0.4c0,0.1,0,0.2,0,0.3
			s-0.1,0.1-0.1,0.2c0,0.1-0.1,0.1-0.2,0.2c-0.1,0.1-0.2,0.1-0.3,0.2c0.5,0.2,0.7,0.5,0.7,0.9c0,0.2,0,0.3-0.1,0.4
			c-0.1,0.1-0.2,0.2-0.3,0.3c-0.1,0.1-0.3,0.2-0.4,0.2c-0.2,0.1-0.4,0.1-0.6,0.1s-0.4,0-0.5-0.1c-0.2-0.1-0.3-0.1-0.4-0.2
			c-0.1-0.1-0.2-0.2-0.3-0.3c-0.1-0.1-0.1-0.3-0.1-0.4C296.8,60.2,297.1,59.9,297.5,59.7z M297.8,60.5c0,0.1,0,0.1,0,0.2
			c0,0.1,0.1,0.1,0.1,0.1l0.1,0.1c0,0,0.1,0,0.2,0s0.1,0,0.2,0s0.1-0.1,0.1-0.1l0.1-0.1c0,0,0-0.1,0-0.2c0-0.1,0-0.2-0.1-0.3
			s-0.2-0.1-0.3-0.1c-0.1,0-0.2,0-0.3,0.1C297.8,60.3,297.8,60.4,297.8,60.5z M297.8,58.9c0,0.1,0,0.2,0.1,0.3s0.2,0.1,0.3,0.1
			c0.1,0,0.1,0,0.2,0l0.1-0.1l0.1-0.1V59c0-0.1,0-0.2-0.1-0.3s-0.2-0.1-0.3-0.1s-0.2,0-0.3,0.1C297.8,58.7,297.8,58.8,297.8,58.9z"
			/>
		<path class="st0" d="M299.9,61.1c0-0.1,0-0.1,0-0.2c0-0.1,0.1-0.1,0.1-0.2c0.1-0.1,0.1-0.1,0.2-0.1s0.1,0,0.2,0s0.1,0,0.2,0
			s0.1,0.1,0.2,0.1c0.1,0.1,0.1,0.1,0.1,0.2c0,0.1,0,0.1,0,0.2c0,0.1,0,0.1,0,0.2c0,0.1-0.1,0.1-0.1,0.2c-0.1,0.1-0.1,0.1-0.2,0.1
			s-0.1,0-0.2,0s-0.1,0-0.2,0s-0.1-0.1-0.2-0.1c-0.1-0.1-0.1-0.1-0.1-0.2C299.9,61.3,299.9,61.2,299.9,61.1z"/>
		<path class="st0" d="M302.5,59.4L302.5,59.4c0.1,0,0.1,0,0.1,0c0.1,0,0.2,0,0.3-0.1c0.1-0.1,0.1-0.2,0.1-0.3s0-0.2-0.1-0.3
			s-0.2-0.1-0.3-0.1c-0.1,0-0.2,0-0.3,0.1c-0.1,0.1-0.1,0.2-0.1,0.3h-0.9c0-0.2,0.1-0.4,0.1-0.5c0.1-0.1,0.2-0.3,0.3-0.4
			s0.2-0.2,0.4-0.2c0.1-0.1,0.3-0.1,0.5-0.1s0.3,0,0.5,0.1c0.1,0,0.3,0.1,0.4,0.2c0.1,0.1,0.2,0.2,0.2,0.3c0.1,0.1,0.1,0.3,0.1,0.4
			c0,0.2,0,0.3-0.1,0.4c-0.1,0.1-0.2,0.2-0.3,0.3c0.2,0.1,0.3,0.2,0.4,0.3s0.2,0.3,0.2,0.5s0,0.3-0.1,0.5c-0.1,0.1-0.2,0.3-0.3,0.4
			c-0.1,0.1-0.3,0.2-0.4,0.2c-0.2,0.1-0.4,0.1-0.6,0.1c-0.3,0-0.5-0.1-0.8-0.2c-0.2-0.1-0.4-0.3-0.5-0.5c-0.1-0.1-0.1-0.2-0.1-0.3
			s0-0.2,0-0.3h0.9c0,0.2,0.1,0.3,0.1,0.4c0.1,0.1,0.2,0.1,0.4,0.1c0.2,0,0.3,0,0.4-0.1s0.1-0.2,0.1-0.3c0-0.2,0-0.3-0.1-0.4
			c-0.1-0.1-0.2-0.1-0.3-0.1h-0.1h-0.1L302.5,59.4L302.5,59.4z"/>
		<path class="st0" d="M304.4,59.1h0.9v0.3c0.2-0.2,0.5-0.3,0.8-0.3c0.4,0,0.6,0.2,0.8,0.5c0.2-0.3,0.5-0.5,0.8-0.5
			c0.1,0,0.2,0,0.3,0.1s0.2,0.1,0.3,0.2c0.1,0.1,0.1,0.2,0.2,0.3c0,0.1,0.1,0.3,0.1,0.4v1.6h-0.9v-1.2c0-0.1,0-0.2,0-0.3
			s0-0.1-0.1-0.2l-0.1-0.1h-0.1c-0.3,0-0.4,0.2-0.4,0.6v1.2h-0.9v-1.2c0-0.1,0-0.2,0-0.3s0-0.1-0.1-0.2l-0.1-0.1c0,0-0.1,0-0.2,0
			s-0.1,0-0.2,0c0,0-0.1,0-0.1,0.1c0,0-0.1,0.1-0.1,0.2c0,0.1,0,0.2,0,0.3v1.2h-0.9L304.4,59.1L304.4,59.1z"/>
	</g>
	<g>
		<path class="st0" d="M312.9,171.5h-0.5v-0.8h1.5v3.6H313v-2.8H312.9z"/>
		<path class="st0" d="M315.8,172.1C315.9,172.1,315.9,172.1,315.8,172.1c0.1,0,0.1,0,0.1,0c0.1,0,0.2,0,0.3-0.1
			c0.1-0.1,0.1-0.2,0.1-0.3s0-0.2-0.1-0.3s-0.2-0.1-0.3-0.1c-0.1,0-0.2,0-0.3,0.1c-0.1,0.1-0.1,0.2-0.1,0.3h-0.9
			c0-0.2,0.1-0.4,0.1-0.5c0.1-0.1,0.2-0.3,0.3-0.4c0.1-0.1,0.2-0.2,0.4-0.2c0.1-0.1,0.3-0.1,0.5-0.1s0.3,0,0.5,0.1
			c0.1,0,0.3,0.1,0.4,0.2c0.1,0.1,0.2,0.2,0.2,0.3c0.1,0.1,0.1,0.3,0.1,0.4c0,0.2,0,0.3-0.1,0.4c-0.1,0.1-0.2,0.2-0.3,0.3
			c0.2,0.1,0.3,0.2,0.4,0.3s0.2,0.3,0.2,0.5s0,0.3-0.1,0.5c-0.1,0.1-0.2,0.3-0.3,0.4c-0.1,0.1-0.3,0.2-0.4,0.2
			c-0.2,0.1-0.4,0.1-0.6,0.1c-0.3,0-0.5-0.1-0.8-0.2c-0.2-0.1-0.4-0.3-0.5-0.5c-0.1-0.1-0.1-0.2-0.1-0.3s0-0.2,0-0.3h0.9
			c0,0.2,0.1,0.3,0.1,0.4c0.1,0.1,0.2,0.1,0.4,0.1c0.2,0,0.3,0,0.4-0.1s0.1-0.2,0.1-0.3c0-0.2,0-0.3-0.1-0.4
			c-0.1-0.1-0.2-0.1-0.3-0.1h-0.1h-0.1L315.8,172.1L315.8,172.1z"/>
		<path class="st0" d="M317.7,173.9c0-0.1,0-0.1,0-0.2c0-0.1,0.1-0.1,0.1-0.2c0.1-0.1,0.1-0.1,0.2-0.1s0.1,0,0.2,0s0.1,0,0.2,0
			s0.1,0.1,0.2,0.1c0.1,0.1,0.1,0.1,0.1,0.2c0,0.1,0,0.1,0,0.2s0,0.1,0,0.2c0,0.1-0.1,0.1-0.1,0.2c-0.1,0.1-0.1,0.1-0.2,0.1
			s-0.1,0-0.2,0s-0.1,0-0.2,0s-0.1-0.1-0.2-0.1c-0.1-0.1-0.1-0.1-0.1-0.2S317.7,173.9,317.7,173.9z"/>
		<path class="st0" d="M319.9,172.4c-0.4-0.2-0.6-0.4-0.6-0.8c0-0.2,0-0.3,0.1-0.4c0.1-0.1,0.1-0.2,0.3-0.3c0.1-0.1,0.2-0.2,0.4-0.2
			c0.2,0,0.3-0.1,0.5-0.1s0.3,0,0.5,0.1c0.2,0,0.3,0.1,0.4,0.2c0.1,0.1,0.2,0.2,0.3,0.3c0.1,0.1,0.1,0.3,0.1,0.4c0,0.1,0,0.2,0,0.3
			s-0.1,0.1-0.1,0.2c0,0.1-0.1,0.1-0.2,0.2c-0.1,0.1-0.2,0.1-0.3,0.2c0.5,0.2,0.7,0.5,0.7,0.9c0,0.2,0,0.3-0.1,0.4
			c-0.1,0.1-0.2,0.2-0.3,0.3c-0.1,0.1-0.3,0.2-0.4,0.2c-0.2,0.1-0.4,0.1-0.6,0.1s-0.4,0-0.5-0.1c-0.2-0.1-0.3-0.1-0.4-0.2
			c-0.1-0.1-0.2-0.2-0.3-0.3c-0.1-0.1-0.1-0.3-0.1-0.4C319.2,172.9,319.4,172.6,319.9,172.4z M320.1,173.2c0,0.1,0,0.1,0,0.2
			c0,0.1,0.1,0.1,0.1,0.1l0.1,0.1c0.1,0,0.1,0,0.2,0s0.1,0,0.2,0s0.1-0.1,0.1-0.1l0.1-0.1c0-0.1,0-0.1,0-0.2c0-0.1,0-0.2-0.1-0.3
			s-0.2-0.1-0.3-0.1c-0.1,0-0.2,0-0.3,0.1C320.1,173,320.1,173.1,320.1,173.2z M320.1,171.6c0,0.1,0,0.2,0.1,0.3s0.2,0.1,0.3,0.1
			c0.1,0,0.1,0,0.2,0l0.1-0.1l0.1-0.1v-0.1c0-0.1,0-0.2-0.1-0.3s-0.2-0.1-0.3-0.1s-0.2,0-0.3,0.1
			C320.2,171.4,320.1,171.5,320.1,171.6z"/>
		<path class="st0" d="M322.3,171.9h0.9v0.3c0.2-0.2,0.5-0.3,0.8-0.3c0.4,0,0.6,0.2,0.8,0.5c0.2-0.3,0.5-0.5,0.8-0.5
			c0.1,0,0.2,0,0.3,0.1c0.1,0,0.2,0.1,0.3,0.2c0.1,0.1,0.1,0.2,0.2,0.3c0,0.1,0.1,0.3,0.1,0.4v1.6h-0.9v-1.2c0-0.1,0-0.2,0-0.3
			s0-0.1-0.1-0.2l-0.1-0.1h-0.1c-0.3,0-0.4,0.2-0.4,0.6v1.2H324v-1.2c0-0.1,0-0.2,0-0.3s0-0.1-0.1-0.2l-0.1-0.1c0,0-0.1,0-0.2,0
			s-0.1,0-0.2,0c0,0-0.1,0-0.1,0.1c0,0-0.1,0.1-0.1,0.2c0,0.1,0,0.2,0,0.3v1.2h-0.9L322.3,171.9L322.3,171.9z"/>
	</g>
	<g>
		<g>
			<rect x="5.9" y="246.8" class="st0" width="0.5" height="0.5"/>
		</g>
		<g>
			<path class="st0" d="M312.7,247.2h-1v-0.5h1V247.2z M310.8,247.2h-1v-0.5h1V247.2z M308.8,247.2h-1v-0.5h1V247.2z M306.9,247.2
				h-1v-0.5h1V247.2z M305,247.2h-1v-0.5h1V247.2z M303,247.2h-1v-0.5h1V247.2z M301.1,247.2h-1v-0.5h1V247.2z M299.1,247.2h-1v-0.5
				h1V247.2z M297.2,247.2h-1v-0.5h1V247.2z M295.3,247.2h-1v-0.5h1V247.2z M293.3,247.2h-1v-0.5h1V247.2z M291.4,247.2h-1v-0.5h1
				V247.2z M289.4,247.2h-1v-0.5h1V247.2z M287.5,247.2h-1v-0.5h1V247.2z M285.6,247.2h-1v-0.5h1V247.2z M283.6,247.2h-1v-0.5h1
				V247.2z M281.7,247.2h-1v-0.5h1V247.2z M279.7,247.2h-1v-0.5h1V247.2z M277.8,247.2h-1v-0.5h1V247.2z M275.9,247.2h-1v-0.5h1
				V247.2z M273.9,247.2h-1v-0.5h1V247.2z M272,247.2h-1v-0.5h1V247.2z M270.1,247.2h-1v-0.5h1V247.2z M268.1,247.2h-1v-0.5h1V247.2
				z M266.2,247.2h-1v-0.5h1V247.2z M264.2,247.2h-1v-0.5h1V247.2z M262.3,247.2h-1v-0.5h1V247.2z M260.4,247.2h-1v-0.5h1V247.2z
				 M258.4,247.2h-1v-0.5h1V247.2z M256.5,247.2h-1v-0.5h1V247.2z M254.5,247.2h-1v-0.5h1V247.2z M252.6,247.2h-1v-0.5h1V247.2z
				 M250.7,247.2h-1v-0.5h1V247.2z M248.7,247.2h-1v-0.5h1V247.2z M246.8,247.2h-1v-0.5h1V247.2z M244.9,247.2h-1v-0.5h1V247.2z
				 M242.9,247.2h-1v-0.5h1V247.2z M241,247.2h-1v-0.5h1V247.2z M239,247.2h-1v-0.5h1V247.2z M237.1,247.2h-1v-0.5h1V247.2z
				 M235.2,247.2h-1v-0.5h1V247.2z M233.2,247.2h-1v-0.5h1V247.2z M231.3,247.2h-1v-0.5h1V247.2z M229.3,247.2h-1v-0.5h1V247.2z
				 M227.4,247.2h-1v-0.5h1V247.2z M225.5,247.2h-1v-0.5h1V247.2z M223.5,247.2h-1v-0.5h1V247.2z M221.6,247.2h-1v-0.5h1V247.2z
				 M219.6,247.2h-1v-0.5h1V247.2z M217.7,247.2h-1v-0.5h1V247.2z M215.8,247.2h-1v-0.5h1V247.2z M213.8,247.2h-1v-0.5h1V247.2z
				 M211.9,247.2h-1v-0.5h1V247.2z M210,247.2h-1v-0.5h1V247.2z M208,247.2h-1v-0.5h1V247.2z M206.1,247.2h-1v-0.5h1V247.2z
				 M204.1,247.2h-1v-0.5h1V247.2z M202.2,247.2h-1v-0.5h1V247.2z M200.3,247.2h-1v-0.5h1V247.2z M198.3,247.2h-1v-0.5h1V247.2z
				 M196.4,247.2h-1v-0.5h1V247.2z M194.4,247.2h-1v-0.5h1V247.2z M192.5,247.2h-1v-0.5h1V247.2z M190.6,247.2h-1v-0.5h1V247.2z
				 M188.6,247.2h-1v-0.5h1V247.2z M186.7,247.2h-1v-0.5h1V247.2z M184.8,247.2h-1v-0.5h1V247.2z M182.8,247.2h-1v-0.5h1V247.2z
				 M180.9,247.2h-1v-0.5h1V247.2z M178.9,247.2h-1v-0.5h1V247.2z M177,247.2h-1v-0.5h1V247.2z M175.1,247.2h-1v-0.5h1V247.2z
				 M173.1,247.2h-1v-0.5h1V247.2z M171.2,247.2h-1v-0.5h1V247.2z M169.2,247.2h-1v-0.5h1V247.2z M167.3,247.2h-1v-0.5h1V247.2z
				 M165.4,247.2h-1v-0.5h1V247.2z M163.4,247.2h-1v-0.5h1V247.2z M161.5,247.2h-1v-0.5h1V247.2z M159.5,247.2h-1v-0.5h1V247.2z
				 M157.6,247.2h-1v-0.5h1V247.2z M155.7,247.2h-1v-0.5h1V247.2z M153.7,247.2h-1v-0.5h1V247.2z M151.8,247.2h-1v-0.5h1V247.2z
				 M149.9,247.2h-1v-0.5h1V247.2z M147.9,247.2h-1v-0.5h1V247.2z M146,247.2h-1v-0.5h1V247.2z M144,247.2h-1v-0.5h1V247.2z
				 M142.1,247.2h-1v-0.5h1V247.2z M140.2,247.2h-1v-0.5h1V247.2z M138.2,247.2h-1v-0.5h1V247.2z M136.3,247.2h-1v-0.5h1V247.2z
				 M134.3,247.2h-1v-0.5h1V247.2z M132.4,247.2h-1v-0.5h1V247.2z M130.5,247.2h-1v-0.5h1V247.2z M128.5,247.2h-1v-0.5h1V247.2z
				 M126.6,247.2h-1v-0.5h1V247.2z M124.7,247.2h-1v-0.5h1V247.2z M122.7,247.2h-1v-0.5h1V247.2z M120.8,247.2h-1v-0.5h1V247.2z
				 M118.8,247.2h-1v-0.5h1V247.2z M116.9,247.2h-1v-0.5h1V247.2z M115,247.2h-1v-0.5h1V247.2z M113,247.2h-1v-0.5h1V247.2z
				 M111.1,247.2h-1v-0.5h1V247.2z M109.1,247.2h-1v-0.5h1V247.2z M107.2,247.2h-1v-0.5h1V247.2z M105.3,247.2h-1v-0.5h1V247.2z
				 M103.3,247.2h-1v-0.5h1V247.2z M101.4,247.2h-1v-0.5h1V247.2z M99.4,247.2h-1v-0.5h1V247.2z M97.5,247.2h-1v-0.5h1V247.2z
				 M95.6,247.2h-1v-0.5h1V247.2z M93.6,247.2h-1v-0.5h1V247.2z M91.7,247.2h-1v-0.5h1V247.2z M89.8,247.2h-1v-0.5h1V247.2z
				 M87.8,247.2h-1v-0.5h1V247.2z M85.9,247.2h-1v-0.5h1V247.2z M83.9,247.2h-1v-0.5h1V247.2z M82,247.2h-1v-0.5h1V247.2z
				 M80.1,247.2h-1v-0.5h1V247.2z M78.1,247.2h-1v-0.5h1V247.2z M76.2,247.2h-1v-0.5h1V247.2z M74.2,247.2h-1v-0.5h1V247.2z
				 M72.3,247.2h-1v-0.5h1V247.2z M70.4,247.2h-1v-0.5h1V247.2z M68.4,247.2h-1v-0.5h1V247.2z M66.5,247.2h-1v-0.5h1V247.2z
				 M64.6,247.2h-1v-0.5h1V247.2z M62.6,247.2h-1v-0.5h1V247.2z M60.7,247.2h-1v-0.5h1V247.2z M58.7,247.2h-1v-0.5h1V247.2z
				 M56.8,247.2h-1v-0.5h1V247.2z M54.9,247.2h-1v-0.5h1V247.2z M52.9,247.2h-1v-0.5h1V247.2z M51,247.2h-1v-0.5h1V247.2z M49,247.2
				h-1v-0.5h1V247.2z M47.1,247.2h-1v-0.5h1V247.2z M45.2,247.2h-1v-0.5h1V247.2z M43.2,247.2h-1v-0.5h1V247.2z M41.3,247.2h-1v-0.5
				h1V247.2z M39.3,247.2h-1v-0.5h1V247.2z M37.4,247.2h-1v-0.5h1V247.2z M35.5,247.2h-1v-0.5h1V247.2z M33.5,247.2h-1v-0.5h1V247.2
				z M31.6,247.2h-1v-0.5h1V247.2z M29.7,247.2h-1v-0.5h1V247.2z M27.7,247.2h-1v-0.5h1V247.2z M25.8,247.2h-1v-0.5h1V247.2z
				 M23.8,247.2h-1v-0.5h1V247.2z M21.9,247.2h-1v-0.5h1V247.2z M20,247.2h-1v-0.5h1V247.2z M18,247.2h-1v-0.5h1V247.2z M16.1,247.2
				h-1v-0.5h1V247.2z M14.1,247.2h-1v-0.5h1V247.2z M12.2,247.2h-1v-0.5h1V247.2z M10.3,247.2h-1v-0.5h1V247.2z M8.3,247.2h-1v-0.5
				h1V247.2z"/>
		</g>
		<g>
			<rect x="313.7" y="246.8" class="st0" width="0.5" height="0.5"/>
		</g>
		<g>
			<g>
				<polygon class="st0" points="6.3,248.2 4.2,247 6.3,245.8 				"/>
			</g>
		</g>
		<g>
			<g>
				<polygon class="st0" points="313.8,248.2 315.9,247 313.8,245.8 				"/>
			</g>
		</g>
	</g>
	<g>
		<g>
			<rect x="292.4" y="6.2" class="st0" width="0.5" height="0.5"/>
		</g>
		<g>
			<path class="st0" d="M292.9,115.3h-0.5v-1h0.5V115.3z M292.9,113.3h-0.5v-1h0.5V113.3z M292.9,111.4h-0.5v-1h0.5V111.4z
				 M292.9,109.5h-0.5v-1h0.5V109.5z M292.9,107.5h-0.5v-1h0.5V107.5z M292.9,105.6h-0.5v-1h0.5V105.6z M292.9,103.6h-0.5v-1h0.5
				V103.6z M292.9,101.7h-0.5v-1h0.5V101.7z M292.9,99.8h-0.5v-1h0.5V99.8z M292.9,97.8h-0.5v-1h0.5V97.8z M292.9,95.9h-0.5v-1h0.5
				V95.9z M292.9,93.9h-0.5v-1h0.5V93.9z M292.9,92h-0.5v-1h0.5V92z M292.9,90.1h-0.5v-1h0.5V90.1z M292.9,88.1h-0.5v-1h0.5V88.1z
				 M292.9,86.2h-0.5v-1h0.5V86.2z M292.9,84.3h-0.5v-1h0.5V84.3z M292.9,82.3h-0.5v-1h0.5V82.3z M292.9,80.4h-0.5v-1h0.5V80.4z
				 M292.9,78.4h-0.5v-1h0.5V78.4z M292.9,76.5h-0.5v-1h0.5V76.5z M292.9,74.6h-0.5v-1h0.5V74.6z M292.9,72.6h-0.5v-1h0.5V72.6z
				 M292.9,70.7h-0.5v-1h0.5V70.7z M292.9,68.7h-0.5v-1h0.5V68.7z M292.9,66.8h-0.5v-1h0.5V66.8z M292.9,64.9h-0.5v-1h0.5V64.9z
				 M292.9,62.9h-0.5v-1h0.5V62.9z M292.9,61h-0.5v-1h0.5V61z M292.9,59.1h-0.5v-1h0.5V59.1z M292.9,57.1h-0.5v-1h0.5V57.1z
				 M292.9,55.2h-0.5v-1h0.5V55.2z M292.9,53.2h-0.5v-1h0.5V53.2z M292.9,51.3h-0.5v-1h0.5V51.3z M292.9,49.4h-0.5v-1h0.5V49.4z
				 M292.9,47.4h-0.5v-1h0.5V47.4z M292.9,45.5h-0.5v-1h0.5V45.5z M292.9,43.5h-0.5v-1h0.5V43.5z M292.9,41.6h-0.5v-1h0.5V41.6z
				 M292.9,39.7h-0.5v-1h0.5V39.7z M292.9,37.7h-0.5v-1h0.5V37.7z M292.9,35.8h-0.5v-1h0.5V35.8z M292.9,33.8h-0.5v-1h0.5V33.8z
				 M292.9,31.9h-0.5v-1h0.5V31.9z M292.9,30h-0.5v-1h0.5V30z M292.9,28h-0.5v-1h0.5V28z M292.9,26.1h-0.5v-1h0.5V26.1z M292.9,24.2
				h-0.5v-1h0.5V24.2z M292.9,22.2h-0.5v-1h0.5V22.2z M292.9,20.3h-0.5v-1h0.5V20.3z M292.9,18.3h-0.5v-1h0.5V18.3z M292.9,16.4
				h-0.5v-1h0.5V16.4z M292.9,14.5h-0.5v-1h0.5V14.5z M292.9,12.5h-0.5v-1h0.5V12.5z M292.9,10.6h-0.5v-1h0.5V10.6z M292.9,8.6h-0.5
				v-1h0.5V8.6z"/>
		</g>
		<g>
			<rect x="292.4" y="116.2" class="st0" width="0.5" height="0.5"/>
		</g>
		<g>
			<g>
				<polygon class="st0" points="291.5,6.6 292.7,4.5 293.9,6.6 				"/>
			</g>
		</g>
		<g>
			<g>
				<polygon class="st0" points="291.5,116.4 292.7,118.5 293.9,116.4 				"/>
			</g>
		</g>
	</g>
	<g>
		<g>
			
				<rect x="292.9" y="120.4" transform="matrix(0.967 -0.2549 0.2549 0.967 -21.0741 78.7107)" class="st0" width="0.5" height="0.5"/>
		</g>
		<g>
			<path class="st0" d="M322.7,233.5l-0.2-0.9l0.5-0.1l0.2,0.9L322.7,233.5z M322.2,231.6l-0.2-0.9l0.5-0.1l0.2,0.9L322.2,231.6z
				 M321.7,229.8l-0.2-0.9l0.5-0.1l0.2,0.9L321.7,229.8z M321.2,227.9L321,227l0.5-0.1l0.2,0.9L321.2,227.9z M320.7,226l-0.2-0.9
				l0.5-0.1l0.2,0.9L320.7,226z M320.2,224.1l-0.2-0.9l0.5-0.1l0.2,0.9L320.2,224.1z M319.7,222.3l-0.2-0.9l0.5-0.1l0.2,0.9
				L319.7,222.3z M319.2,220.4l-0.2-0.9l0.5-0.1l0.2,0.9L319.2,220.4z M318.8,218.5l-0.2-0.9l0.5-0.1l0.2,0.9L318.8,218.5z
				 M318.3,216.6l-0.2-0.9l0.5-0.1l0.2,0.9L318.3,216.6z M317.8,214.8l-0.2-0.9l0.5-0.1l0.2,0.9L317.8,214.8z M317.3,212.9l-0.2-0.9
				l0.5-0.1l0.2,0.9L317.3,212.9z M316.8,211l-0.2-0.9l0.5-0.1l0.2,0.9L316.8,211z M316.3,209.1l-0.2-0.9l0.5-0.1l0.2,0.9
				L316.3,209.1z M315.8,207.2l-0.2-0.9l0.5-0.1l0.2,0.9L315.8,207.2z M315.3,205.4l-0.2-0.9l0.5-0.1l0.2,0.9L315.3,205.4z
				 M314.8,203.5l-0.2-0.9l0.5-0.1l0.2,0.9L314.8,203.5z M314.3,201.6l-0.2-0.9l0.5-0.1l0.2,0.9L314.3,201.6z M313.8,199.7l-0.2-0.9
				l0.5-0.1l0.2,0.9L313.8,199.7z M313.3,197.9l-0.2-0.9l0.5-0.1l0.2,0.9L313.3,197.9z M312.8,196l-0.2-0.9l0.5-0.1l0.2,0.9
				L312.8,196z M312.3,194.1l-0.2-0.9l0.5-0.1l0.2,0.9L312.3,194.1z M311.8,192.2l-0.2-0.9l0.5-0.1l0.2,0.9L311.8,192.2z
				 M311.3,190.4l-0.2-0.9l0.5-0.1l0.2,0.9L311.3,190.4z M310.8,188.5l-0.2-0.9l0.5-0.1l0.2,0.9L310.8,188.5z M310.3,186.6l-0.2-0.9
				l0.5-0.1l0.2,0.9L310.3,186.6z M309.8,184.7l-0.2-0.9l0.5-0.1l0.2,0.9L309.8,184.7z M309.3,182.9l-0.2-0.9l0.5-0.1l0.2,0.9
				L309.3,182.9z M308.9,181l-0.2-0.9l0.5-0.1l0.2,0.9L308.9,181z M308.4,179.1l-0.2-0.9l0.5-0.1l0.2,0.9L308.4,179.1z M307.9,177.2
				l-0.2-0.9l0.5-0.1l0.2,0.9L307.9,177.2z M307.4,175.3l-0.2-0.9l0.5-0.1l0.2,0.9L307.4,175.3z M306.9,173.5l-0.2-0.9l0.5-0.1
				l0.2,0.9L306.9,173.5z M306.4,171.6l-0.2-0.9l0.5-0.1l0.2,0.9L306.4,171.6z M305.9,169.7l-0.2-0.9l0.5-0.1l0.2,0.9L305.9,169.7z
				 M305.4,167.8l-0.2-0.9l0.5-0.1l0.2,0.9L305.4,167.8z M304.9,166l-0.2-0.9l0.5-0.1l0.2,0.9L304.9,166z M304.4,164.1l-0.2-0.9
				l0.5-0.1l0.2,0.9L304.4,164.1z M303.9,162.2l-0.2-0.9l0.5-0.1l0.2,0.9L303.9,162.2z M303.4,160.3l-0.2-0.9l0.5-0.1l0.2,0.9
				L303.4,160.3z M302.9,158.5l-0.2-0.9l0.5-0.1l0.2,0.9L302.9,158.5z M302.4,156.6l-0.2-0.9l0.5-0.1l0.2,0.9L302.4,156.6z
				 M301.9,154.7l-0.2-0.9l0.5-0.1l0.2,0.9L301.9,154.7z M301.4,152.8l-0.2-0.9l0.5-0.1l0.2,0.9L301.4,152.8z M300.9,151l-0.2-0.9
				l0.5-0.1l0.2,0.9L300.9,151z M300.4,149.1l-0.2-0.9l0.5-0.1l0.2,0.9L300.4,149.1z M299.9,147.2l-0.2-0.9l0.5-0.1l0.2,0.9
				L299.9,147.2z M299.4,145.3l-0.2-0.9l0.5-0.1l0.2,0.9L299.4,145.3z M298.9,143.4l-0.2-0.9l0.5-0.1l0.2,0.9L298.9,143.4z
				 M298.5,141.6l-0.2-0.9l0.5-0.1l0.2,0.9L298.5,141.6z M298,139.7l-0.2-0.9l0.5-0.1l0.2,0.9L298,139.7z M297.5,137.8l-0.2-0.9
				l0.5-0.1l0.2,0.9L297.5,137.8z M297,135.9l-0.2-0.9l0.5-0.1l0.2,0.9L297,135.9z M296.5,134.1l-0.2-0.9l0.5-0.1l0.2,0.9
				L296.5,134.1z M296,132.2l-0.2-0.9l0.5-0.1l0.2,0.9L296,132.2z M295.5,130.3l-0.2-0.9l0.5-0.1l0.2,0.9L295.5,130.3z M295,128.4
				l-0.2-0.9l0.5-0.1l0.2,0.9L295,128.4z M294.5,126.6l-0.2-0.9l0.5-0.1l0.2,0.9L294.5,126.6z M294,124.7l-0.2-0.9l0.5-0.1l0.2,0.9
				L294,124.7z M293.5,122.8l-0.2-0.9l0.5-0.1l0.2,0.9L293.5,122.8z"/>
		</g>
		<g>
			
				<rect x="323" y="234.4" transform="matrix(0.967 -0.2549 0.2549 0.967 -49.1379 90.1483)" class="st0" width="0.5" height="0.5"/>
		</g>
		<g>
			<g>
				<polygon class="st0" points="292,121.1 292.7,118.7 294.4,120.4 				"/>
			</g>
		</g>
		<g>
			<g>
				<polygon class="st0" points="322.1,234.8 323.8,236.5 324.4,234.2 				"/>
			</g>
		</g>
	</g>
	<g>
		<path class="st0" d="M285.9,118.8H34.2V3.6h251.7V118.8z M35.6,117.4h248.8V5H35.6V117.4z"/>
	</g>
	<g>
		<polygon class="st0" points="316.4,237 3.6,237 34.1,117.2 35.5,117.6 5.5,235.6 314.6,235.6 284,117.6 285.4,117.2 		"/>
	</g>
</g>
</svg>
